Monoto-Extended.ufo
<glyph name="quotedbl" format="2">
  <advance width="800"/>
  <unicode hex="0022"/>
  <outline>
    <contour>
      <point x="491" y="456" type="line"/>
      <point x="554" y="456" type="line"/>
      <point x="573" y="714" type="line"/>
      <point x="472" y="714" type="line"/>
    </contour>
    <contour>
      <point x="246" y="456" type="line"/>
      <point x="310" y="456" type="line"/>
      <point x="329" y="714" type="line"/>
      <point x="227" y="714" type="line"/>
    </contour>
  </outline>
</glyph>
<glyph name="dollar" format="2">
  <advance width="800"/>
  <unicode hex="0024"/>
  <outline>
    <contour>
      <point x="361" y="-58" type="line"/>
      <point x="429" y="-58" type="line"/>
      <point x="429" y="37" type="line"/>
      <point x="598" y="51"/>
      <point x="705" y="119"/>
      <point x="705" y="214" type="curve" smooth="yes"/>
      <point x="705" y="322"/>
      <point x="603" y="359"/>
      <point x="429" y="397" type="curve"/>
      <point x="429" y="607" type="line"/>
      <point x="496" y="603"/>
      <point x="566" y="589"/>
      <point x="636" y="572" type="curve"/>
      <point x="666" y="650" type="line"/>
      <point x="593" y="670"/>
      <point x="517" y="686"/>
      <point x="429" y="688" type="curve"/>
      <point x="429" y="759" type="line"/>
      <point x="361" y="759" type="line"/>
      <point x="361" y="687" type="line"/>
      <point x="202" y="679"/>
      <point x="94" y="616"/>
      <point x="94" y="514" type="curve" smooth="yes"/>
      <point x="94" y="411"/>
      <point x="198" y="365"/>
      <point x="361" y="326" type="curve"/>
      <point x="361" y="115" type="line"/>
      <point x="265" y="116"/>
      <point x="169" y="135"/>
      <point x="103" y="157" type="curve"/>
      <point x="103" y="67" type="line"/>
      <point x="165" y="47"/>
      <point x="254" y="34"/>
      <point x="361" y="33" type="curve"/>
    </contour>
    <contour>
      <point x="429" y="120" type="curve"/>
      <point x="429" y="304" type="line"/>
      <point x="555" y="283"/>
      <point x="613" y="263"/>
      <point x="613" y="214" type="curve" smooth="yes"/>
      <point x="613" y="163"/>
      <point x="545" y="129"/>
    </contour>
    <contour>
      <point x="361" y="420" type="line"/>
      <point x="251" y="440"/>
      <point x="186" y="465"/>
      <point x="186" y="514" type="curve" smooth="yes"/>
      <point x="186" y="565"/>
      <point x="253" y="599"/>
      <point x="361" y="605" type="curve"/>
    </contour>
  </outline>
</glyph>
<glyph name="percent" format="2">
  <advance width="800"/>
  <unicode hex="0025"/>
  <outline>
    <contour>
      <point x="93" y="-1" type="line"/>
      <point x="179" y="-1" type="line"/>
      <point x="699" y="715" type="line"/>
      <point x="613" y="715" type="line"/>
    </contour>
    <contour>
      <point x="628" y="-9" type="curve" smooth="yes"/>
      <point x="757" y="-9"/>
      <point x="830" y="53"/>
      <point x="830" y="161" type="curve" smooth="yes"/>
      <point x="830" y="269"/>
      <point x="754" y="330"/>
      <point x="629" y="330" type="curve" smooth="yes"/>
      <point x="498" y="330"/>
      <point x="426" y="269"/>
      <point x="426" y="161" type="curve" smooth="yes"/>
      <point x="426" y="53"/>
      <point x="502" y="-9"/>
    </contour>
    <contour>
      <point x="629" y="53" type="curve" smooth="yes"/>
      <point x="546" y="53"/>
      <point x="507" y="86"/>
      <point x="507" y="161" type="curve" smooth="yes"/>
      <point x="507" y="237"/>
      <point x="546" y="267"/>
      <point x="629" y="267" type="curve" smooth="yes"/>
      <point x="709" y="267"/>
      <point x="748" y="237"/>
      <point x="748" y="161" type="curve" smooth="yes"/>
      <point x="748" y="86"/>
      <point x="709" y="53"/>
    </contour>
    <contour>
      <point x="172" y="383" type="curve" smooth="yes"/>
      <point x="301" y="383"/>
      <point x="374" y="445"/>
      <point x="374" y="553" type="curve" smooth="yes"/>
      <point x="374" y="661"/>
      <point x="298" y="722"/>
      <point x="173" y="722" type="curve" smooth="yes"/>
      <point x="42" y="722"/>
      <point x="-30" y="661"/>
      <point x="-30" y="553" type="curve" smooth="yes"/>
      <point x="-30" y="445"/>
      <point x="46" y="383"/>
    </contour>
    <contour>
      <point x="173" y="445" type="curve" smooth="yes"/>
      <point x="90" y="445"/>
      <point x="51" y="478"/>
      <point x="51" y="553" type="curve" smooth="yes"/>
      <point x="51" y="629"/>
      <point x="90" y="660"/>
      <point x="173" y="660" type="curve" smooth="yes"/>
      <point x="253" y="660"/>
      <point x="292" y="629"/>
      <point x="292" y="553" type="curve" smooth="yes"/>
      <point x="292" y="478"/>
      <point x="253" y="445"/>
    </contour>
  </outline>
</glyph>
<glyph name="ampersand" format="2">
  <advance width="800"/>
  <unicode hex="0026"/>
  <outline>
    <contour>
      <point x="314" y="-10" type="curve" smooth="yes"/>
      <point x="559" y="-10"/>
      <point x="716" y="165"/>
      <point x="754" y="353" type="curve"/>
      <point x="666" y="353" type="line"/>
      <point x="643" y="237"/>
      <point x="515" y="72"/>
      <point x="323" y="72" type="curve" smooth="yes"/>
      <point x="212" y="72"/>
      <point x="144" y="121"/>
      <point x="144" y="183" type="curve" smooth="yes"/>
      <point x="144" y="261"/>
      <point x="236" y="310"/>
      <point x="331" y="359" type="curve" smooth="yes"/>
      <point x="433" y="411"/>
      <point x="545" y="476"/>
      <point x="545" y="578" type="curve" smooth="yes"/>
      <point x="545" y="664"/>
      <point x="467" y="725"/>
      <point x="344" y="725" type="curve" smooth="yes"/>
      <point x="220" y="725"/>
      <point x="141" y="665"/>
      <point x="141" y="576" type="curve" smooth="yes"/>
      <point x="141" y="494"/>
      <point x="202" y="420"/>
      <point x="270" y="360" type="curve" smooth="yes"/>
      <point x="681" y="0" type="line"/>
      <point x="793" y="0" type="line"/>
      <point x="329" y="418" type="line" smooth="yes"/>
      <point x="278" y="465"/>
      <point x="228" y="523"/>
      <point x="228" y="574" type="curve" smooth="yes"/>
      <point x="228" y="623"/>
      <point x="272" y="652"/>
      <point x="344" y="652" type="curve" smooth="yes"/>
      <point x="415" y="652"/>
      <point x="459" y="625"/>
      <point x="459" y="579" type="curve" smooth="yes"/>
      <point x="459" y="503"/>
      <point x="355" y="448"/>
      <point x="279" y="413" type="curve" smooth="yes"/>
      <point x="161" y="359"/>
      <point x="52" y="291"/>
      <point x="52" y="177" type="curve" smooth="yes"/>
      <point x="52" y="70"/>
      <point x="149" y="-10"/>
    </contour>
  </outline>
</glyph>
<glyph name="comma" format="2">
  <advance width="800"/>
  <unicode hex="002C"/>
  <outline>
    <contour>
      <point x="293" y="-142" type="curve"/>
      <point x="372" y="-142" type="line"/>
      <point x="419" y="-62"/>
      <point x="464" y="41"/>
      <point x="490" y="119" type="curve"/>
      <point x="481" y="131" type="line"/>
      <point x="371" y="131" type="line"/>
      <point x="356" y="54"/>
      <point x="328" y="-54"/>
    </contour>
  </outline>
</glyph>
<glyph name="hyphen" format="2">
  <advance width="800"/>
  <unicode hex="002D"/>
  <outline>
    <contour>
      <point x="185" y="227" type="line"/>
      <point x="615" y="227" type="line"/>
      <point x="615" y="313" type="line"/>
      <point x="185" y="313" type="line"/>
    </contour>
  </outline>
</glyph>
<glyph name="period" format="2">
  <advance width="800"/>
  <unicode hex="002E"/>
  <outline>
    <contour>
      <point x="400" y="-10" type="curve" smooth="yes"/>
      <point x="445" y="-10"/>
      <point x="473" y="11"/>
      <point x="473" y="60" type="curve" smooth="yes"/>
      <point x="473" y="111"/>
      <point x="445" y="130"/>
      <point x="400" y="130" type="curve" smooth="yes"/>
      <point x="355" y="130"/>
      <point x="328" y="111"/>
      <point x="328" y="60" type="curve" smooth="yes"/>
      <point x="328" y="11"/>
      <point x="355" y="-10"/>
    </contour>
  </outline>
</glyph>
<glyph name="slash" format="2">
  <advance width="800"/>
  <unicode hex="002F"/>
  <outline>
    <contour>
      <point x="158" y="-1" type="line"/>
      <point x="251" y="-1" type="line"/>
      <point x="641" y="715" type="line"/>
      <point x="548" y="715" type="line"/>
    </contour>
  </outline>
</glyph>
<glyph name="zero" format="2">
  <advance width="800"/>
  <unicode hex="0030"/>
  <outline>
    <contour>
      <point x="400" y="-10" type="curve" smooth="yes"/>
      <point x="632" y="-10"/>
      <point x="729" y="128"/>
      <point x="729" y="358" type="curve" smooth="yes"/>
      <point x="729" y="590"/>
      <point x="639" y="724"/>
      <point x="401" y="724" type="curve" smooth="yes"/>
      <point x="160" y="724"/>
      <point x="71" y="590"/>
      <point x="71" y="358" type="curve" smooth="yes"/>
      <point x="71" y="127"/>
      <point x="177" y="-10"/>
    </contour>
    <contour>
      <point x="216" y="100" type="line"/>
      <point x="630" y="556" type="line"/>
      <point x="575" y="624" type="line"/>
      <point x="161" y="154" type="line"/>
    </contour>
    <contour>
      <point x="400" y="75" type="curve" smooth="yes"/>
      <point x="234" y="75"/>
      <point x="162" y="175"/>
      <point x="162" y="358" type="curve" smooth="yes"/>
      <point x="162" y="549"/>
      <point x="227" y="640"/>
      <point x="401" y="640" type="curve" smooth="yes"/>
      <point x="577" y="640"/>
      <point x="639" y="543"/>
      <point x="639" y="358" type="curve" smooth="yes"/>
      <point x="639" y="165"/>
      <point x="566" y="75"/>
    </contour>
  </outline>
</glyph>
<glyph name="one" format="2">
  <advance width="800"/>
  <unicode hex="0031"/>
  <outline>
    <contour>
      <point x="401" y="0" type="line"/>
      <point x="495" y="0" type="line"/>
      <point x="495" y="714" type="line"/>
      <point x="414" y="714" type="line"/>
      <point x="131" y="612" type="line"/>
      <point x="176" y="538" type="line"/>
      <point x="317" y="582" type="line" smooth="yes"/>
      <point x="360" y="596"/>
      <point x="377" y="603"/>
      <point x="405" y="615" type="curve"/>
      <point x="403" y="571"/>
      <point x="401" y="494"/>
      <point x="401" y="440" type="curve" smooth="yes"/>
    </contour>
    <contour>
      <point x="198" y="0" type="line"/>
      <point x="696" y="0" type="line"/>
      <point x="696" y="66" type="line"/>
      <point x="495" y="76" type="line"/>
      <point x="402" y="76" type="line"/>
      <point x="198" y="66" type="line"/>
    </contour>
  </outline>
</glyph>
<glyph name="three" format="2">
  <advance width="800"/>
  <unicode hex="0033"/>
  <outline>
    <contour>
      <point x="358" y="-10" type="curve" smooth="yes"/>
      <point x="603" y="-10"/>
      <point x="722" y="78"/>
      <point x="722" y="199" type="curve" smooth="yes"/>
      <point x="722" y="301"/>
      <point x="637" y="358"/>
      <point x="483" y="373" type="curve"/>
      <point x="483" y="376" type="line"/>
      <point x="604" y="391"/>
      <point x="690" y="451"/>
      <point x="690" y="547" type="curve" smooth="yes"/>
      <point x="690" y="651"/>
      <point x="585" y="724"/>
      <point x="402" y="724" type="curve" smooth="yes"/>
      <point x="277" y="724"/>
      <point x="176" y="692"/>
      <point x="97" y="651" type="curve"/>
      <point x="145" y="586" type="line"/>
      <point x="218" y="612"/>
      <point x="300" y="640"/>
      <point x="396" y="640" type="curve" smooth="yes"/>
      <point x="520" y="640"/>
      <point x="593" y="602"/>
      <point x="593" y="537" type="curve" smooth="yes"/>
      <point x="593" y="462"/>
      <point x="492" y="411"/>
      <point x="344" y="411" type="curve" smooth="yes"/>
      <point x="235" y="411" type="line"/>
      <point x="235" y="326" type="line"/>
      <point x="344" y="326" type="line" smooth="yes"/>
      <point x="518" y="326"/>
      <point x="624" y="292"/>
      <point x="624" y="204" type="curve" smooth="yes"/>
      <point x="624" y="126"/>
      <point x="539" y="74"/>
      <point x="365" y="74" type="curve" smooth="yes"/>
      <point x="270" y="74"/>
      <point x="169" y="90"/>
      <point x="90" y="119" type="curve"/>
      <point x="90" y="29" type="line"/>
      <point x="170" y="-1"/>
      <point x="268" y="-10"/>
    </contour>
  </outline>
</glyph>
<glyph name="five" format="2">
  <advance width="800"/>
  <unicode hex="0035"/>
  <outline>
    <contour>
      <point x="349" y="-10" type="curve" smooth="yes"/>
      <point x="577" y="-10"/>
      <point x="707" y="80"/>
      <point x="707" y="222" type="curve" smooth="yes"/>
      <point x="707" y="367"/>
      <point x="576" y="440"/>
      <point x="385" y="440" type="curve" smooth="yes"/>
      <point x="323" y="440"/>
      <point x="253" y="436"/>
      <point x="218" y="430" type="curve"/>
      <point x="249" y="628" type="line"/>
      <point x="653" y="628" type="line"/>
      <point x="653" y="714" type="line"/>
      <point x="164" y="714" type="line"/>
      <point x="124" y="375" type="line"/>
      <point x="173" y="346" type="line"/>
      <point x="229" y="355"/>
      <point x="297" y="362"/>
      <point x="355" y="362" type="curve" smooth="yes"/>
      <point x="518" y="362"/>
      <point x="607" y="312"/>
      <point x="607" y="215" type="curve" smooth="yes"/>
      <point x="607" y="119"/>
      <point x="510" y="75"/>
      <point x="344" y="75" type="curve" smooth="yes"/>
      <point x="253" y="75"/>
      <point x="163" y="90"/>
      <point x="97" y="120" type="curve"/>
      <point x="97" y="29" type="line"/>
      <point x="159" y="3"/>
      <point x="257" y="-10"/>
    </contour>
  </outline>
</glyph>
<glyph name="six" format="2">
  <advance width="800"/>
  <unicode hex="0036"/>
  <outline>
    <contour>
      <point x="414" y="-10" type="curve" smooth="yes"/>
      <point x="609" y="-10"/>
      <point x="729" y="81"/>
      <point x="729" y="231" type="curve" smooth="yes"/>
      <point x="729" y="373"/>
      <point x="614" y="454"/>
      <point x="430" y="454" type="curve" smooth="yes"/>
      <point x="294" y="454"/>
      <point x="211" y="416"/>
      <point x="174" y="366" type="curve"/>
      <point x="168" y="366" type="line"/>
      <point x="173" y="519"/>
      <point x="284" y="642"/>
      <point x="517" y="642" type="curve" smooth="yes"/>
      <point x="562" y="642"/>
      <point x="611" y="639"/>
      <point x="646" y="631" type="curve"/>
      <point x="646" y="715" type="line"/>
      <point x="610" y="721"/>
      <point x="555" y="724"/>
      <point x="514" y="724" type="curve" smooth="yes"/>
      <point x="194" y="724"/>
      <point x="73" y="513"/>
      <point x="73" y="308" type="curve" smooth="yes"/>
      <point x="73" y="94"/>
      <point x="187" y="-10"/>
    </contour>
    <contour>
      <point x="413" y="71" type="curve" smooth="yes"/>
      <point x="233" y="71"/>
      <point x="173" y="161"/>
      <point x="173" y="246" type="curve" smooth="yes"/>
      <point x="173" y="310"/>
      <point x="269" y="378"/>
      <point x="416" y="378" type="curve" smooth="yes"/>
      <point x="563" y="378"/>
      <point x="634" y="326"/>
      <point x="634" y="230" type="curve" smooth="yes"/>
      <point x="634" y="116"/>
      <point x="549" y="71"/>
    </contour>
  </outline>
</glyph>
<glyph name="eight" format="2">
  <advance width="800"/>
  <unicode hex="0038"/>
  <outline>
    <contour>
      <point x="383" y="-10" type="curve" smooth="yes"/>
      <point x="577" y="-10"/>
      <point x="710" y="69"/>
      <point x="710" y="180" type="curve" smooth="yes"/>
      <point x="710" y="278"/>
      <point x="615" y="332"/>
      <point x="472" y="378" type="curve"/>
      <point x="596" y="414"/>
      <point x="677" y="466"/>
      <point x="677" y="554" type="curve" smooth="yes"/>
      <point x="677" y="666"/>
      <point x="553" y="724"/>
      <point x="393" y="724" type="curve" smooth="yes"/>
      <point x="228" y="724"/>
      <point x="103" y="666"/>
      <point x="103" y="554" type="curve" smooth="yes"/>
      <point x="103" y="469"/>
      <point x="191" y="413"/>
      <point x="296" y="374" type="curve"/>
      <point x="165" y="336"/>
      <point x="70" y="280"/>
      <point x="70" y="180" type="curve" smooth="yes"/>
      <point x="70" y="62"/>
      <point x="194" y="-10"/>
    </contour>
    <contour>
      <point x="385" y="68" type="curve"/>
      <point x="243" y="68"/>
      <point x="165" y="115"/>
      <point x="165" y="181" type="curve" smooth="yes"/>
      <point x="165" y="254"/>
      <point x="254" y="301"/>
      <point x="378" y="336" type="curve"/>
      <point x="545" y="288"/>
      <point x="615" y="254"/>
      <point x="615" y="185" type="curve" smooth="yes"/>
      <point x="615" y="117"/>
      <point x="526" y="68"/>
    </contour>
    <contour>
      <point x="391" y="418" type="curve"/>
      <point x="283" y="445"/>
      <point x="197" y="476"/>
      <point x="197" y="548" type="curve" smooth="yes"/>
      <point x="197" y="611"/>
      <point x="275" y="644"/>
      <point x="392" y="644" type="curve" smooth="yes"/>
      <point x="509" y="644"/>
      <point x="582" y="611"/>
      <point x="582" y="548" type="curve" smooth="yes"/>
      <point x="582" y="482"/>
      <point x="509" y="446"/>
    </contour>
  </outline>
</glyph>
<glyph name="nine" format="2">
  <advance width="800"/>
  <unicode hex="0039"/>
  <outline>
    <contour>
      <point x="288" y="-10" type="curve" smooth="yes"/>
      <point x="606" y="-10"/>
      <point x="725" y="210"/>
      <point x="725" y="393" type="curve" smooth="yes"/>
      <point x="725" y="625"/>
      <point x="607" y="724"/>
      <point x="387" y="724" type="curve" smooth="yes"/>
      <point x="189" y="724"/>
      <point x="69" y="633"/>
      <point x="69" y="487" type="curve" smooth="yes"/>
      <point x="69" y="341"/>
      <point x="181" y="260"/>
      <point x="367" y="260" type="curve" smooth="yes"/>
      <point x="501" y="260"/>
      <point x="586" y="298"/>
      <point x="625" y="348" type="curve"/>
      <point x="631" y="348" type="line"/>
      <point x="622" y="196"/>
      <point x="512" y="72"/>
      <point x="283" y="72" type="curve" smooth="yes"/>
      <point x="231" y="72"/>
      <point x="181" y="75"/>
      <point x="147" y="83" type="curve"/>
      <point x="147" y="-1" type="line"/>
      <point x="183" y="-7"/>
      <point x="236" y="-10"/>
    </contour>
    <contour>
      <point x="379" y="336" type="curve" smooth="yes"/>
      <point x="240" y="336"/>
      <point x="164" y="382"/>
      <point x="164" y="486" type="curve" smooth="yes"/>
      <point x="164" y="592"/>
      <point x="246" y="643"/>
      <point x="387" y="643" type="curve" smooth="yes"/>
      <point x="566" y="643"/>
      <point x="625" y="544"/>
      <point x="625" y="477" type="curve" smooth="yes"/>
      <point x="625" y="395"/>
      <point x="526" y="336"/>
    </contour>
  </outline>
</glyph>
<glyph name="colon" format="2">
  <advance width="800"/>
  <unicode hex="003A"/>
  <outline>
    <contour>
      <point x="401" y="407" type="curve" smooth="yes"/>
      <point x="446" y="407"/>
      <point x="472" y="428"/>
      <point x="472" y="477" type="curve" smooth="yes"/>
      <point x="472" y="528"/>
      <point x="446" y="547"/>
      <point x="401" y="547" type="curve" smooth="yes"/>
      <point x="356" y="547"/>
      <point x="329" y="528"/>
      <point x="329" y="477" type="curve" smooth="yes"/>
      <point x="329" y="428"/>
      <point x="356" y="407"/>
    </contour>
    <contour>
      <point x="400" y="-10" type="curve" smooth="yes"/>
      <point x="445" y="-10"/>
      <point x="471" y="11"/>
      <point x="471" y="60" type="curve" smooth="yes"/>
      <point x="471" y="111"/>
      <point x="445" y="130"/>
      <point x="400" y="130" type="curve" smooth="yes"/>
      <point x="355" y="130"/>
      <point x="328" y="111"/>
      <point x="328" y="60" type="curve" smooth="yes"/>
      <point x="328" y="11"/>
      <point x="355" y="-10"/>
    </contour>
  </outline>
</glyph>
<glyph name="question" format="2">
  <advance width="800"/>
  <unicode hex="003F"/>
  <outline>
    <contour>
      <point x="302" y="206" type="line"/>
      <point x="388" y="206" type="line"/>
      <point x="388" y="216" type="line" smooth="yes"/>
      <point x="388" y="271"/>
      <point x="411" y="295"/>
      <point x="507" y="349" type="curve" smooth="yes"/>
      <point x="615" y="410"/>
      <point x="677" y="455"/>
      <point x="677" y="549" type="curve" smooth="yes"/>
      <point x="677" y="656"/>
      <point x="564" y="724"/>
      <point x="385" y="724" type="curve" smooth="yes"/>
      <point x="278" y="724"/>
      <point x="204" y="701"/>
      <point x="123" y="675" type="curve"/>
      <point x="158" y="596" type="line"/>
      <point x="233" y="622"/>
      <point x="302" y="641"/>
      <point x="387" y="641" type="curve" smooth="yes"/>
      <point x="508" y="641"/>
      <point x="583" y="599"/>
      <point x="583" y="544" type="curve" smooth="yes"/>
      <point x="583" y="474"/>
      <point x="535" y="443"/>
      <point x="436" y="395" type="curve" smooth="yes"/>
      <point x="330" y="343"/>
      <point x="302" y="300"/>
      <point x="302" y="226" type="curve" smooth="yes"/>
    </contour>
    <contour>
      <point x="349" y="-10" type="curve" smooth="yes"/>
      <point x="395" y="-10"/>
      <point x="422" y="10"/>
      <point x="422" y="60" type="curve" smooth="yes"/>
      <point x="422" y="111"/>
      <point x="395" y="130"/>
      <point x="349" y="130" type="curve" smooth="yes"/>
      <point x="305" y="130"/>
      <point x="278" y="111"/>
      <point x="278" y="60" type="curve" smooth="yes"/>
      <point x="278" y="10"/>
      <point x="305" y="-10"/>
    </contour>
  </outline>
</glyph>
<glyph name="at" format="2">
  <advance width="800"/>
  <unicode hex="0040"/>
  <outline>
    <contour>
      <point x="434" y="-89" type="curve" smooth="yes"/>
      <point x="530" y="-89"/>
      <point x="611" y="-73"/>
      <point x="680" y="-49" type="curve"/>
      <point x="680" y="18" type="line"/>
      <point x="607" y="-4"/>
      <point x="525" y="-20"/>
      <point x="435" y="-20" type="curve" smooth="yes"/>
      <point x="196" y="-20"/>
      <point x="66" y="102"/>
      <point x="66" y="297" type="curve" smooth="yes"/>
      <point x="66" y="506"/>
      <point x="203" y="645"/>
      <point x="427" y="645" type="curve" smooth="yes"/>
      <point x="619" y="645"/>
      <point x="735" y="541"/>
      <point x="735" y="358" type="curve" smooth="yes"/>
      <point x="735" y="258"/>
      <point x="708" y="174"/>
      <point x="641" y="174" type="curve" smooth="yes"/>
      <point x="600" y="174"/>
      <point x="578" y="190"/>
      <point x="578" y="257" type="curve" smooth="yes"/>
      <point x="578" y="267"/>
      <point x="580" y="283"/>
      <point x="581" y="294" type="curve" smooth="yes"/>
      <point x="595" y="496" type="line"/>
      <point x="554" y="508"/>
      <point x="491" y="520"/>
      <point x="434" y="520" type="curve" smooth="yes"/>
      <point x="284" y="520"/>
      <point x="194" y="427"/>
      <point x="194" y="296" type="curve" smooth="yes"/>
      <point x="194" y="184"/>
      <point x="256" y="108"/>
      <point x="367" y="108" type="curve" smooth="yes"/>
      <point x="441" y="108"/>
      <point x="497" y="145"/>
      <point x="524" y="194" type="curve"/>
      <point x="527" y="194" type="line"/>
      <point x="536" y="148"/>
      <point x="576" y="108"/>
      <point x="641" y="108" type="curve" smooth="yes"/>
      <point x="759" y="108"/>
      <point x="809" y="235"/>
      <point x="809" y="358" type="curve" smooth="yes"/>
      <point x="809" y="578"/>
      <point x="662" y="714"/>
      <point x="426" y="714" type="curve" smooth="yes"/>
      <point x="156" y="714"/>
      <point x="-10" y="539"/>
      <point x="-10" y="293" type="curve" smooth="yes"/>
      <point x="-10" y="61"/>
      <point x="149" y="-89"/>
    </contour>
    <contour>
      <point x="380" y="174" type="curve" smooth="yes"/>
      <point x="314" y="174"/>
      <point x="277" y="209"/>
      <point x="277" y="294" type="curve" smooth="yes"/>
      <point x="277" y="374"/>
      <point x="327" y="454"/>
      <point x="432" y="454" type="curve" smooth="yes"/>
      <point x="459" y="454"/>
      <point x="487" y="450"/>
      <point x="511" y="445" type="curve"/>
      <point x="500" y="325" type="line" smooth="yes"/>
      <point x="491" y="234"/>
      <point x="455" y="174"/>
    </contour>
  </outline>
</glyph>
<glyph name="D" format="2">
  <advance width="800"/>
  <unicode hex="0044"/>
  <anchor x="350" y="0" name="bottom"/>
  <anchor x="390" y="357" name="center"/>
  <anchor x="383" y="714" name="top"/>
  <anchor x="830" y="714" name="topright"/>
  <outline>
    <contour>
      <point x="83" y="0" type="line"/>
      <point x="294" y="0" type="line" smooth="yes"/>
      <point x="593" y="0"/>
      <point x="761" y="123"/>
      <point x="761" y="365" type="curve" smooth="yes"/>
      <point x="761" y="593"/>
      <point x="599" y="714"/>
      <point x="315" y="714" type="curve" smooth="yes"/>
      <point x="83" y="714" type="line"/>
    </contour>
    <contour>
      <point x="179" y="83" type="line"/>
      <point x="179" y="631" type="line"/>
      <point x="302" y="631" type="line" smooth="yes"/>
      <point x="540" y="631"/>
      <point x="662" y="546"/>
      <point x="662" y="361" type="curve" smooth="yes"/>
      <point x="662" y="179"/>
      <point x="539" y="83"/>
      <point x="281" y="83" type="curve" smooth="yes"/>
    </contour>
  </outline>
</glyph>
<glyph name="F" format="2">
  <advance width="800"/>
  <unicode hex="0046"/>
  <anchor x="422" y="0" name="bottom"/>
  <anchor x="427" y="714" name="top"/>
  <anchor x="802" y="714" name="topright"/>
  <outline>
    <contour>
      <point x="116" y="0" type="line"/>
      <point x="212" y="0" type="line"/>
      <point x="212" y="299" type="line"/>
      <point x="681" y="299" type="line"/>
      <point x="681" y="385" type="line"/>
      <point x="212" y="385" type="line"/>
      <point x="212" y="628" type="line"/>
      <point x="707" y="628" type="line"/>
      <point x="707" y="714" type="line"/>
      <point x="116" y="714" type="line"/>
    </contour>
  </outline>
</glyph>
<glyph name="G" format="2">
  <advance width="800"/>
  <unicode hex="0047"/>
  <anchor x="449" y="0" name="bottom"/>
  <anchor x="435" y="714" name="top"/>
  <anchor x="802" y="714" name="topright"/>
  <outline>
    <contour>
      <point x="449" y="-10" type="curve" smooth="yes"/>
      <point x="546" y="-10"/>
      <point x="641" y="7"/>
      <point x="717" y="27" type="curve"/>
      <point x="717" y="380" type="line"/>
      <point x="422" y="380" type="line"/>
      <point x="422" y="296" type="line"/>
      <point x="624" y="296" type="line"/>
      <point x="624" y="90" type="line"/>
      <point x="577" y="83"/>
      <point x="520" y="76"/>
      <point x="452" y="76" type="curve" smooth="yes"/>
      <point x="237" y="76"/>
      <point x="138" y="193"/>
      <point x="138" y="350" type="curve" smooth="yes"/>
      <point x="138" y="534"/>
      <point x="252" y="637"/>
      <point x="468" y="637" type="curve" smooth="yes"/>
      <point x="537" y="637"/>
      <point x="609" y="623"/>
      <point x="671" y="601" type="curve"/>
      <point x="706" y="682" type="line"/>
      <point x="634" y="709"/>
      <point x="553" y="724"/>
      <point x="466" y="724" type="curve" smooth="yes"/>
      <point x="189" y="724"/>
      <point x="39" y="585"/>
      <point x="39" y="346" type="curve" smooth="yes"/>
      <point x="39" y="115"/>
      <point x="178" y="-10"/>
    </contour>
  </outline>
</glyph>
<glyph name="H" format="2">
  <advance width="800"/>
  <unicode hex="0048"/>
  <anchor x="400" y="0" name="bottom"/>
  <anchor x="400" y="375" name="center"/>
  <anchor x="400" y="714" name="top"/>
  <anchor x="-1" y="714" name="topleft"/>
  <anchor x="830" y="714" name="topright"/>
  <outline>
    <contour>
      <point x="83" y="0" type="line"/>
      <point x="180" y="0" type="line"/>
      <point x="180" y="330" type="line"/>
      <point x="620" y="330" type="line"/>
      <point x="620" y="0" type="line"/>
      <point x="717" y="0" type="line"/>
      <point x="717" y="714" type="line"/>
      <point x="620" y="714" type="line"/>
      <point x="620" y="416" type="line"/>
      <point x="180" y="416" type="line"/>
      <point x="180" y="714" type="line"/>
      <point x="83" y="714" type="line"/>
    </contour>
  </outline>
</glyph>
<glyph name="J" format="2">
  <advance width="800"/>
  <unicode hex="004A"/>
  <anchor x="400" y="0" name="bottom"/>
  <anchor x="566" y="714" name="top"/>
  <anchor x="801" y="714" name="topright"/>
  <outline>
    <contour>
      <point x="333" y="-10" type="curve" smooth="yes"/>
      <point x="528" y="-10"/>
      <point x="613" y="72"/>
      <point x="613" y="221" type="curve" smooth="yes"/>
      <point x="613" y="714" type="line"/>
      <point x="517" y="714" type="line"/>
      <point x="517" y="234" type="line" smooth="yes"/>
      <point x="517" y="121"/>
      <point x="455" y="79"/>
      <point x="325" y="79" type="curve" smooth="yes"/>
      <point x="247" y="79"/>
      <point x="174" y="95"/>
      <point x="123" y="108" type="curve"/>
      <point x="123" y="18" type="line"/>
      <point x="180" y="1"/>
      <point x="256" y="-10"/>
    </contour>
  </outline>
</glyph>
<glyph name="K" format="2">
  <advance width="800"/>
  <unicode hex="004B"/>
  <anchor x="420" y="0" name="bottom"/>
  <anchor x="400" y="714" name="top"/>
  <anchor x="801" y="714" name="topright"/>
  <outline>
    <contour>
      <point x="83" y="0" type="line"/>
      <point x="179" y="0" type="line"/>
      <point x="179" y="236" type="line"/>
      <point x="309" y="325" type="line"/>
      <point x="643" y="0" type="line"/>
      <point x="754" y="0" type="line"/>
      <point x="375" y="391" type="line"/>
      <point x="744" y="714" type="line"/>
      <point x="629" y="714" type="line"/>
      <point x="272" y="439" type="line" smooth="yes"/>
      <point x="233" y="409"/>
      <point x="209" y="370"/>
      <point x="179" y="335" type="curve"/>
      <point x="179" y="714" type="line"/>
      <point x="83" y="714" type="line"/>
    </contour>
  </outline>
</glyph>
<glyph name="M" format="2">
  <advance width="800"/>
  <unicode hex="004D"/>
  <anchor x="400" y="0" name="bottom"/>
  <anchor x="406" y="714" name="top"/>
  <anchor x="830" y="714" name="topright"/>
  <outline>
    <contour>
      <point x="46" y="0" type="line"/>
      <point x="137" y="0" type="line"/>
      <point x="137" y="369" type="line" smooth="yes"/>
      <point x="137" y="442"/>
      <point x="131" y="562"/>
      <point x="123" y="619" type="curve"/>
      <point x="127" y="619" type="line"/>
      <point x="353" y="176" type="line"/>
      <point x="445" y="176" type="line"/>
      <point x="669" y="618" type="line"/>
      <point x="674" y="618" type="line"/>
      <point x="667" y="551"/>
      <point x="663" y="444"/>
      <point x="663" y="369" type="curve" smooth="yes"/>
      <point x="663" y="0" type="line"/>
      <point x="754" y="0" type="line"/>
      <point x="754" y="714" type="line"/>
      <point x="615" y="714" type="line"/>
      <point x="401" y="296" type="line"/>
      <point x="397" y="296" type="line"/>
      <point x="182" y="714" type="line"/>
      <point x="46" y="714" type="line"/>
    </contour>
  </outline>
</glyph>
<glyph name="U" format="2">
  <advance width="800"/>
  <unicode hex="0055"/>
  <anchor x="400" y="0" name="bottom"/>
  <anchor x="744" y="10" name="ogonek"/>
  <anchor x="400" y="714" name="top"/>
  <anchor x="801" y="714" name="topright"/>
  <outline>
    <contour>
      <point x="396" y="-10" type="curve" smooth="yes"/>
      <point x="618" y="-10"/>
      <point x="717" y="102"/>
      <point x="717" y="253" type="curve" smooth="yes"/>
      <point x="717" y="714" type="line"/>
      <point x="620" y="714" type="line"/>
      <point x="620" y="261" type="line" smooth="yes"/>
      <point x="620" y="155"/>
      <point x="559" y="76"/>
      <point x="398" y="76" type="curve" smooth="yes"/>
      <point x="238" y="76"/>
      <point x="180" y="148"/>
      <point x="180" y="260" type="curve" smooth="yes"/>
      <point x="180" y="714" type="line"/>
      <point x="83" y="714" type="line"/>
      <point x="83" y="254" type="line" smooth="yes"/>
      <point x="83" y="93"/>
      <point x="176" y="-10"/>
    </contour>
  </outline>
</glyph>
<glyph name="V" format="2">
  <advance width="800"/>
  <unicode hex="0056"/>
  <anchor x="400" y="0" name="bottom"/>
  <anchor x="400" y="714" name="top"/>
  <anchor x="801" y="714" name="topright"/>
  <outline>
    <contour>
      <point x="349" y="0" type="line"/>
      <point x="454" y="0" type="line"/>
      <point x="786" y="714" type="line"/>
      <point x="684" y="714" type="line"/>
      <point x="461" y="255" type="line" smooth="yes"/>
      <point x="433" y="198"/>
      <point x="418" y="138"/>
      <point x="404" y="91" type="curve"/>
      <point x="400" y="91" type="line"/>
      <point x="386" y="139"/>
      <point x="369" y="197"/>
      <point x="342" y="253" type="curve" smooth="yes"/>
      <point x="115" y="714" type="line"/>
      <point x="13" y="714" type="line"/>
    </contour>
  </outline>
</glyph>
<glyph name="W" format="2">
  <advance width="800"/>
  <unicode hex="0057"/>
  <anchor x="400" y="0" name="bottom"/>
  <anchor x="400" y="714" name="top"/>
  <anchor x="801" y="714" name="topright"/>
  <outline>
    <contour>
      <point x="145" y="0" type="line"/>
      <point x="257" y="0" type="line"/>
      <point x="365" y="314" type="line" smooth="yes"/>
      <point x="385" y="374"/>
      <point x="392" y="424"/>
      <point x="399" y="444" type="curve"/>
      <point x="402" y="444" type="line"/>
      <point x="409" y="424"/>
      <point x="416" y="373"/>
      <point x="437" y="314" type="curve" smooth="yes"/>
      <point x="547" y="0" type="line"/>
      <point x="658" y="0" type="line"/>
      <point x="786" y="714" type="line"/>
      <point x="696" y="714" type="line"/>
      <point x="670" y="600"/>
      <point x="645" y="502"/>
      <point x="626" y="399" type="curve" smooth="yes"/>
      <point x="603" y="277"/>
      <point x="602" y="153"/>
      <point x="595" y="101" type="curve"/>
      <point x="592" y="101" type="line"/>
      <point x="581" y="148"/>
      <point x="564" y="243"/>
      <point x="538" y="309" type="curve" smooth="yes"/>
      <point x="448" y="537" type="line"/>
      <point x="353" y="537" type="line"/>
      <point x="262" y="311" type="line" smooth="yes"/>
      <point x="237" y="251"/>
      <point x="220" y="148"/>
      <point x="210" y="101" type="curve"/>
      <point x="206" y="101" type="line"/>
      <point x="203" y="153"/>
      <point x="197" y="299"/>
      <point x="177" y="396" type="curve" smooth="yes"/>
      <point x="155" y="498"/>
      <point x="129" y="598"/>
      <point x="103" y="714" type="curve"/>
      <point x="13" y="714" type="line"/>
    </contour>
  </outline>
</glyph>
<glyph name="X" format="2">
  <advance width="800"/>
  <unicode hex="0058"/>
  <anchor x="400" y="0" name="bottom"/>
  <anchor x="400" y="714" name="top"/>
  <anchor x="801" y="714" name="topright"/>
  <outline>
    <contour>
      <point x="28" y="0" type="line"/>
      <point x="133" y="0" type="line"/>
      <point x="402" y="289" type="line"/>
      <point x="669" y="0" type="line"/>
      <point x="772" y="0" type="line"/>
      <point x="449" y="368" type="line"/>
      <point x="749" y="714" type="line"/>
      <point x="645" y="714" type="line"/>
      <point x="401" y="448" type="line"/>
      <point x="161" y="714" type="line"/>
      <point x="56" y="714" type="line"/>
      <point x="355" y="369" type="line"/>
    </contour>
  </outline>
</glyph>
<glyph name="Y" format="2">
  <advance width="800"/>
  <unicode hex="0059"/>
  <anchor x="400" y="0" name="bottom"/>
  <anchor x="400" y="714" name="top"/>
  <anchor x="-1" y="714" name="topleft"/>
  <anchor x="801" y="714" name="topright"/>
  <outline>
    <contour>
      <point x="355" y="0" type="line"/>
      <point x="448" y="0" type="line"/>
      <point x="448" y="278" type="line"/>
      <point x="772" y="714" type="line"/>
      <point x="669" y="714" type="line"/>
      <point x="402" y="362" type="line"/>
      <point x="134" y="714" type="line"/>
      <point x="28" y="714" type="line"/>
      <point x="355" y="278" type="line"/>
    </contour>
  </outline>
</glyph>
<glyph name="Z" format="2">
  <advance width="800"/>
  <unicode hex="005A"/>
  <anchor x="422" y="0" name="bottom"/>
  <anchor x="420" y="714" name="top"/>
  <anchor x="802" y="714" name="topright"/>
  <outline>
    <contour>
      <point x="116" y="0" type="line"/>
      <point x="692" y="0" type="line"/>
      <point x="692" y="86" type="line"/>
      <point x="224" y="86" type="line"/>
      <point x="684" y="639" type="line"/>
      <point x="684" y="714" type="line"/>
      <point x="149" y="714" type="line"/>
      <point x="149" y="631" type="line"/>
      <point x="579" y="631" type="line"/>
      <point x="116" y="75" type="line"/>
    </contour>
  </outline>
</glyph>
<glyph name="asciicircum" format="2">
  <advance width="800"/>
  <unicode hex="005E"/>
  <outline>
    <contour>
      <point x="47" y="265" type="line"/>
      <point x="134" y="265" type="line"/>
      <point x="396" y="617" type="line"/>
      <point x="666" y="265" type="line"/>
      <point x="753" y="265" type="line"/>
      <point x="425" y="719" type="line"/>
      <point x="368" y="719" type="line"/>
    </contour>
  </outline>
</glyph>
<glyph name="grave" format="2">
  <advance width="800"/>
  <unicode hex="0060"/>
  <outline>
    <contour>
      <point x="461" y="606" type="curve"/>
      <point x="527" y="606" type="line"/>
      <point x="527" y="618" type="line"/>
      <point x="475" y="655"/>
      <point x="399" y="721"/>
      <point x="363" y="766" type="curve"/>
      <point x="251" y="766" type="line"/>
      <point x="251" y="756" type="line"/>
      <point x="292" y="719"/>
      <point x="391" y="642"/>
    </contour>
  </outline>
</glyph>
<glyph name="d" format="2">
  <advance width="800"/>
  <unicode hex="0064"/>
  <anchor x="400" y="0" name="bottom"/>
  <anchor x="400" y="269" name="center"/>
  <anchor x="400" y="760" name="top"/>
  <anchor x="801" y="760" name="topright"/>
  <outline>
    <contour>
      <point x="363" y="-10" type="curve" smooth="yes"/>
      <point x="493" y="-10"/>
      <point x="566" y="23"/>
      <point x="608" y="72" type="curve"/>
      <point x="613" y="72" type="line"/>
      <point x="624" y="0" type="line"/>
      <point x="703" y="0" type="line"/>
      <point x="703" y="760" type="line"/>
      <point x="607" y="760" type="line"/>
      <point x="607" y="552" type="line" smooth="yes"/>
      <point x="607" y="525"/>
      <point x="609" y="492"/>
      <point x="614" y="469" type="curve"/>
      <point x="608" y="469" type="line"/>
      <point x="572" y="515"/>
      <point x="500" y="547"/>
      <point x="376" y="547" type="curve" smooth="yes"/>
      <point x="166" y="547"/>
      <point x="56" y="447"/>
      <point x="56" y="271" type="curve" smooth="yes"/>
      <point x="56" y="85"/>
      <point x="167" y="-10"/>
    </contour>
    <contour>
      <point x="383" y="68" type="curve" smooth="yes"/>
      <point x="231" y="68"/>
      <point x="155" y="133"/>
      <point x="155" y="263" type="curve" smooth="yes"/>
      <point x="155" y="402"/>
      <point x="240" y="469"/>
      <point x="389" y="469" type="curve" smooth="yes"/>
      <point x="546" y="469"/>
      <point x="608" y="382"/>
      <point x="608" y="267" type="curve" smooth="yes"/>
      <point x="608" y="248" type="line" smooth="yes"/>
      <point x="608" y="138"/>
      <point x="541" y="68"/>
    </contour>
  </outline>
</glyph>
<glyph name="g" format="2">
  <advance width="800"/>
  <unicode hex="0067"/>
  <anchor x="400" y="-245" name="bottom"/>
  <anchor x="400" y="537" name="top"/>
  <anchor x="801" y="537" name="topright"/>
  <outline>
    <contour>
      <point x="362" y="-245" type="curve" smooth="yes"/>
      <point x="603" y="-245"/>
      <point x="703" y="-166"/>
      <point x="703" y="-11" type="curve" smooth="yes"/>
      <point x="703" y="537" type="line"/>
      <point x="626" y="537" type="line"/>
      <point x="611" y="471" type="line"/>
      <point x="605" y="471" type="line"/>
      <point x="556" y="526"/>
      <point x="489" y="547"/>
      <point x="371" y="547" type="curve" smooth="yes"/>
      <point x="170" y="547"/>
      <point x="56" y="441"/>
      <point x="56" y="266" type="curve" smooth="yes"/>
      <point x="56" y="92"/>
      <point x="171" y="-10"/>
      <point x="367" y="-10" type="curve" smooth="yes"/>
      <point x="483" y="-10"/>
      <point x="564" y="7"/>
      <point x="610" y="62" type="curve"/>
      <point x="615" y="62" type="line"/>
      <point x="611" y="32"/>
      <point x="611" y="22"/>
      <point x="611" y="5" type="curve" smooth="yes"/>
      <point x="611" y="-13" type="line" smooth="yes"/>
      <point x="611" y="-110"/>
      <point x="544" y="-168"/>
      <point x="361" y="-168" type="curve" smooth="yes"/>
      <point x="269" y="-168"/>
      <point x="170" y="-153"/>
      <point x="97" y="-122" type="curve"/>
      <point x="97" y="-208" type="line"/>
      <point x="170" y="-231"/>
      <point x="258" y="-245"/>
    </contour>
    <contour>
      <point x="387" y="68" type="curve" smooth="yes"/>
      <point x="231" y="68"/>
      <point x="155" y="138"/>
      <point x="155" y="268" type="curve" smooth="yes"/>
      <point x="155" y="396"/>
      <point x="228" y="469"/>
      <point x="390" y="469" type="curve" smooth="yes"/>
      <point x="545" y="469"/>
      <point x="614" y="410"/>
      <point x="614" y="267" type="curve" smooth="yes"/>
      <point x="614" y="247" type="line" smooth="yes"/>
      <point x="614" y="123"/>
      <point x="550" y="68"/>
    </contour>
  </outline>
</glyph>
<glyph name="i" format="2">
  <advance width="800"/>
  <unicode hex="0069"/>
  <anchor x="430" y="0" name="bottom"/>
  <anchor x="415" y="761" name="top"/>
  <anchor x="681" y="761" name="topright"/>
  <outline>
    <contour>
      <point x="94" y="0" type="line"/>
      <point x="740" y="0" type="line"/>
      <point x="740" y="65" type="line"/>
      <point x="474" y="80" type="line"/>
      <point x="474" y="537" type="line"/>
      <point x="120" y="537" type="line"/>
      <point x="120" y="470" type="line"/>
      <point x="377" y="457" type="line"/>
      <point x="377" y="80" type="line"/>
      <point x="94" y="65" type="line"/>
    </contour>
    <contour>
      <point x="417" y="630" type="curve" smooth="yes"/>
      <point x="464" y="630"/>
      <point x="490" y="652"/>
      <point x="490" y="696" type="curve" smooth="yes"/>
      <point x="490" y="740"/>
      <point x="462" y="761"/>
      <point x="417" y="761" type="curve" smooth="yes"/>
      <point x="369" y="761"/>
      <point x="342" y="740"/>
      <point x="342" y="696" type="curve" smooth="yes"/>
      <point x="342" y="652"/>
      <point x="370" y="630"/>
    </contour>
  </outline>
</glyph>
<glyph name="j" format="2">
  <advance width="800"/>
  <unicode hex="006A"/>
  <anchor x="311" y="-245" name="bottom"/>
  <anchor x="457" y="761" name="top"/>
  <anchor x="801" y="761" name="topright"/>
  <outline>
    <contour>
      <point x="252" y="-245" type="curve" smooth="yes"/>
      <point x="420" y="-245"/>
      <point x="518" y="-175"/>
      <point x="518" y="-49" type="curve" smooth="yes"/>
      <point x="518" y="537" type="line"/>
      <point x="162" y="537" type="line"/>
      <point x="162" y="470" type="line"/>
      <point x="421" y="457" type="line"/>
      <point x="421" y="-32" type="line" smooth="yes"/>
      <point x="421" y="-123"/>
      <point x="367" y="-165"/>
      <point x="242" y="-165" type="curve" smooth="yes"/>
      <point x="185" y="-165"/>
      <point x="109" y="-156"/>
      <point x="66" y="-144" type="curve"/>
      <point x="66" y="-227" type="line"/>
      <point x="106" y="-238"/>
      <point x="186" y="-245"/>
    </contour>
    <contour>
      <point x="460" y="630" type="curve" smooth="yes"/>
      <point x="506" y="630"/>
      <point x="533" y="652"/>
      <point x="533" y="696" type="curve" smooth="yes"/>
      <point x="533" y="740"/>
      <point x="505" y="761"/>
      <point x="460" y="761" type="curve" smooth="yes"/>
      <point x="411" y="761"/>
      <point x="386" y="740"/>
      <point x="386" y="696" type="curve" smooth="yes"/>
      <point x="386" y="652"/>
      <point x="413" y="630"/>
    </contour>
  </outline>
</glyph>
<glyph name="l" format="2">
  <advance width="800"/>
  <unicode hex="006C"/>
  <anchor x="427" y="0" name="bottom"/>
  <anchor x="427" y="387" name="center"/>
  <anchor x="400" y="760" name="top"/>
  <anchor x="674" y="760" name="topright"/>
  <outline>
    <contour>
      <point x="94" y="0" type="line"/>
      <point x="740" y="0" type="line"/>
      <point x="740" y="65" type="line"/>
      <point x="474" y="80" type="line"/>
      <point x="474" y="760" type="line"/>
      <point x="115" y="760" type="line"/>
      <point x="115" y="693" type="line"/>
      <point x="377" y="680" type="line"/>
      <point x="377" y="80" type="line"/>
      <point x="94" y="65" type="line"/>
    </contour>
  </outline>
</glyph>
<glyph name="n" format="2">
  <advance width="800"/>
  <unicode hex="006E"/>
  <anchor x="410" y="0" name="bottom"/>
  <anchor x="415" y="537" name="top"/>
  <anchor x="801" y="537" name="topright"/>
  <outline>
    <contour>
      <point x="97" y="0" type="line"/>
      <point x="194" y="0" type="line"/>
      <point x="194" y="272" type="line" smooth="yes"/>
      <point x="194" y="396"/>
      <point x="272" y="469"/>
      <point x="426" y="469" type="curve" smooth="yes"/>
      <point x="550" y="469"/>
      <point x="613" y="428"/>
      <point x="613" y="339" type="curve" smooth="yes"/>
      <point x="613" y="0" type="line"/>
      <point x="710" y="0" type="line"/>
      <point x="710" y="358" type="line" smooth="yes"/>
      <point x="710" y="487"/>
      <point x="610" y="547"/>
      <point x="451" y="547" type="curve" smooth="yes"/>
      <point x="317" y="547"/>
      <point x="233" y="519"/>
      <point x="193" y="459" type="curve"/>
      <point x="188" y="459" type="line"/>
      <point x="174" y="537" type="line"/>
      <point x="97" y="537" type="line"/>
    </contour>
  </outline>
</glyph>
<glyph name="q" format="2">
  <advance width="800"/>
  <unicode hex="0071"/>
  <anchor x="377" y="-240" name="bottom"/>
  <anchor x="377" y="537" name="top"/>
  <anchor x="801" y="537" name="topright"/>
  <outline>
    <contour>
      <point x="607" y="-240" type="line"/>
      <point x="703" y="-240" type="line"/>
      <point x="703" y="537" type="line"/>
      <point x="626" y="537" type="line"/>
      <point x="611" y="466" type="line"/>
      <point x="606" y="466" type="line"/>
      <point x="567" y="512"/>
      <point x="491" y="547"/>
      <point x="368" y="547" type="curve" smooth="yes"/>
      <point x="168" y="547"/>
      <point x="56" y="447"/>
      <point x="56" y="268" type="curve" smooth="yes"/>
      <point x="56" y="89"/>
      <point x="170" y="-10"/>
      <point x="361" y="-10" type="curve" smooth="yes"/>
      <point x="489" y="-10"/>
      <point x="566" y="26"/>
      <point x="607" y="72" type="curve"/>
      <point x="611" y="72" type="line"/>
      <point x="609" y="42"/>
      <point x="607" y="14"/>
      <point x="607" y="-11" type="curve" smooth="yes"/>
    </contour>
    <contour>
      <point x="378" y="68" type="curve" smooth="yes"/>
      <point x="226" y="68"/>
      <point x="155" y="146"/>
      <point x="155" y="267" type="curve" smooth="yes"/>
      <point x="155" y="399"/>
      <point x="228" y="469"/>
      <point x="382" y="469" type="curve" smooth="yes"/>
      <point x="540" y="469"/>
      <point x="608" y="394"/>
      <point x="608" y="267" type="curve" smooth="yes"/>
      <point x="608" y="248" type="line" smooth="yes"/>
      <point x="608" y="129"/>
      <point x="532" y="68"/>
    </contour>
  </outline>
</glyph>
<glyph name="s" format="2">
  <advance width="800"/>
  <unicode hex="0073"/>
  <anchor x="404" y="0" name="bottom"/>
  <anchor x="404" y="537" name="top"/>
  <anchor x="801" y="537" name="topright"/>
  <outline>
    <contour>
      <point x="375" y="-10" type="curve" smooth="yes"/>
      <point x="576" y="-10"/>
      <point x="673" y="46"/>
      <point x="673" y="148" type="curve" smooth="yes"/>
      <point x="673" y="239"/>
      <point x="580" y="263"/>
      <point x="433" y="307" type="curve" smooth="yes"/>
      <point x="304" y="346"/>
      <point x="240" y="362"/>
      <point x="240" y="404" type="curve" smooth="yes"/>
      <point x="240" y="447"/>
      <point x="301" y="468"/>
      <point x="426" y="468" type="curve" smooth="yes"/>
      <point x="493" y="468"/>
      <point x="560" y="461"/>
      <point x="627" y="438" type="curve"/>
      <point x="659" y="513" type="line"/>
      <point x="584" y="537"/>
      <point x="511" y="547"/>
      <point x="425" y="547" type="curve" smooth="yes"/>
      <point x="248" y="547"/>
      <point x="145" y="499"/>
      <point x="145" y="402" type="curve" smooth="yes"/>
      <point x="145" y="317"/>
      <point x="243" y="286"/>
      <point x="378" y="241" type="curve" smooth="yes"/>
      <point x="514" y="196"/>
      <point x="576" y="187"/>
      <point x="576" y="145" type="curve" smooth="yes"/>
      <point x="576" y="95"/>
      <point x="521" y="69"/>
      <point x="380" y="69" type="curve" smooth="yes"/>
      <point x="280" y="69"/>
      <point x="199" y="90"/>
      <point x="127" y="112" type="curve"/>
      <point x="127" y="24" type="line"/>
      <point x="188" y="2"/>
      <point x="280" y="-10"/>
    </contour>
  </outline>
</glyph>
<glyph name="u" format="2">
  <advance width="800"/>
  <unicode hex="0075"/>
  <anchor x="400" y="0" name="bottom"/>
  <anchor x="744" y="10" name="ogonek"/>
  <anchor x="400" y="537" name="top"/>
  <anchor x="801" y="537" name="topright"/>
  <outline>
    <contour>
      <point x="353" y="-10" type="curve" smooth="yes"/>
      <point x="482" y="-10"/>
      <point x="562" y="12"/>
      <point x="606" y="72" type="curve"/>
      <point x="612" y="72" type="line"/>
      <point x="625" y="0" type="line"/>
      <point x="703" y="0" type="line"/>
      <point x="703" y="537" type="line"/>
      <point x="606" y="537" type="line"/>
      <point x="606" y="261" type="line" smooth="yes"/>
      <point x="606" y="141"/>
      <point x="531" y="68"/>
      <point x="376" y="68" type="curve" smooth="yes"/>
      <point x="245" y="68"/>
      <point x="187" y="113"/>
      <point x="187" y="197" type="curve" smooth="yes"/>
      <point x="187" y="537" type="line"/>
      <point x="90" y="537" type="line"/>
      <point x="90" y="180" type="line" smooth="yes"/>
      <point x="90" y="54"/>
      <point x="176" y="-10"/>
    </contour>
  </outline>
</glyph>
<glyph name="v" format="2">
  <advance width="800"/>
  <unicode hex="0076"/>
  <anchor x="400" y="0" name="bottom"/>
  <anchor x="400" y="537" name="top"/>
  <anchor x="801" y="537" name="topright"/>
  <outline>
    <contour>
      <point x="343" y="0" type="line"/>
      <point x="453" y="0" type="line"/>
      <point x="743" y="537" type="line"/>
      <point x="641" y="537" type="line"/>
      <point x="463" y="219" type="line" smooth="yes"/>
      <point x="441" y="178"/>
      <point x="422" y="134"/>
      <point x="401" y="82" type="curve"/>
      <point x="398" y="82" type="line"/>
      <point x="377" y="134"/>
      <point x="359" y="177"/>
      <point x="336" y="219" type="curve" smooth="yes"/>
      <point x="157" y="537" type="line"/>
      <point x="56" y="537" type="line"/>
    </contour>
  </outline>
</glyph>
<glyph name="w" format="2">
  <advance width="800"/>
  <unicode hex="0077"/>
  <anchor x="404" y="0" name="bottom"/>
  <anchor x="404" y="537" name="top"/>
  <anchor x="801" y="537" name="topright"/>
  <outline>
    <contour>
      <point x="146" y="0" type="line"/>
      <point x="255" y="0" type="line"/>
      <point x="345" y="188" type="line" smooth="yes"/>
      <point x="369" y="239"/>
      <point x="386" y="295"/>
      <point x="400" y="348" type="curve"/>
      <point x="404" y="348" type="line"/>
      <point x="418" y="295"/>
      <point x="434" y="239"/>
      <point x="459" y="188" type="curve" smooth="yes"/>
      <point x="549" y="0" type="line"/>
      <point x="660" y="0" type="line"/>
      <point x="803" y="537" type="line"/>
      <point x="715" y="537" type="line"/>
      <point x="634" y="271" type="line" smooth="yes"/>
      <point x="612" y="198"/>
      <point x="610" y="158"/>
      <point x="603" y="81" type="curve"/>
      <point x="599" y="81" type="line"/>
      <point x="590" y="119"/>
      <point x="574" y="196"/>
      <point x="546" y="253" type="curve" smooth="yes"/>
      <point x="454" y="439" type="line"/>
      <point x="353" y="439" type="line"/>
      <point x="259" y="253" type="line" smooth="yes"/>
      <point x="230" y="196"/>
      <point x="216" y="114"/>
      <point x="207" y="81" type="curve"/>
      <point x="203" y="81" type="line"/>
      <point x="195" y="159"/>
      <point x="193" y="201"/>
      <point x="171" y="271" type="curve" smooth="yes"/>
      <point x="88" y="537" type="line"/>
      <point x="-3" y="537" type="line"/>
    </contour>
  </outline>
</glyph>
<glyph name="x" format="2">
  <advance width="800"/>
  <unicode hex="0078"/>
  <anchor x="400" y="0" name="bottom"/>
  <anchor x="400" y="537" name="top"/>
  <anchor x="801" y="537" name="topright"/>
  <outline>
    <contour>
      <point x="56" y="0" type="line"/>
      <point x="166" y="0" type="line"/>
      <point x="399" y="209" type="line"/>
      <point x="633" y="0" type="line"/>
      <point x="743" y="0" type="line"/>
      <point x="456" y="275" type="line"/>
      <point x="728" y="537" type="line"/>
      <point x="619" y="537" type="line"/>
      <point x="398" y="341" type="line"/>
      <point x="181" y="537" type="line"/>
      <point x="71" y="537" type="line"/>
      <point x="341" y="275" type="line"/>
    </contour>
  </outline>
</glyph>
<glyph name="braceleft" format="2">
  <advance width="800"/>
  <unicode hex="007B"/>
  <outline>
    <contour>
      <point x="618" y="-159" type="curve"/>
      <point x="618" y="-82" type="line"/>
      <point x="497" y="-81"/>
      <point x="445" y="-56"/>
      <point x="445" y="8" type="curve" smooth="yes"/>
      <point x="445" y="154" type="line" smooth="yes"/>
      <point x="445" y="222"/>
      <point x="404" y="263"/>
      <point x="308" y="276" type="curve"/>
      <point x="308" y="282" type="line"/>
      <point x="403" y="295"/>
      <point x="445" y="335"/>
      <point x="445" y="404" type="curve" smooth="yes"/>
      <point x="445" y="547" type="line" smooth="yes"/>
      <point x="445" y="611"/>
      <point x="499" y="636"/>
      <point x="618" y="638" type="curve"/>
      <point x="618" y="715" type="line"/>
      <point x="442" y="715"/>
      <point x="351" y="663"/>
      <point x="351" y="556" type="curve" smooth="yes"/>
      <point x="351" y="410" type="line" smooth="yes"/>
      <point x="351" y="344"/>
      <point x="298" y="318"/>
      <point x="185" y="318" type="curve"/>
      <point x="185" y="239" type="line"/>
      <point x="298" y="239"/>
      <point x="351" y="213"/>
      <point x="351" y="146" type="curve" smooth="yes"/>
      <point x="351" y="1" type="line" smooth="yes"/>
      <point x="351" y="-108"/>
      <point x="438" y="-158"/>
    </contour>
  </outline>
</glyph>
<glyph name="asciitilde" format="2">
  <advance width="800"/>
  <unicode hex="007E"/>
  <outline>
    <contour>
      <point x="82" y="285" type="line"/>
      <point x="132" y="318"/>
      <point x="193" y="344"/>
      <point x="249" y="344" type="curve" smooth="yes"/>
      <point x="296" y="344"/>
      <point x="329" y="334"/>
      <point x="384" y="316" type="curve" smooth="yes"/>
      <point x="452" y="294"/>
      <point x="493" y="285"/>
      <point x="550" y="285" type="curve" smooth="yes"/>
      <point x="619" y="285"/>
      <point x="677" y="304"/>
      <point x="718" y="339" type="curve"/>
      <point x="718" y="420" type="line"/>
      <point x="668" y="387"/>
      <point x="608" y="361"/>
      <point x="555" y="361" type="curve" smooth="yes"/>
      <point x="510" y="361"/>
      <point x="473" y="370"/>
      <point x="419" y="389" type="curve" smooth="yes"/>
      <point x="353" y="412"/>
      <point x="314" y="420"/>
      <point x="255" y="420" type="curve" smooth="yes"/>
      <point x="186" y="420"/>
      <point x="127" y="402"/>
      <point x="82" y="367" type="curve"/>
    </contour>
  </outline>
</glyph>
<glyph name="currency" format="2">
  <advance width="800"/>
  <unicode hex="00A4"/>
  <outline>
    <contour>
      <point x="675" y="131" type="line"/>
      <point x="729" y="182" type="line"/>
      <point x="629" y="249" type="line"/>
      <point x="667" y="281"/>
      <point x="689" y="320"/>
      <point x="689" y="361" type="curve" smooth="yes"/>
      <point x="689" y="403"/>
      <point x="667" y="443"/>
      <point x="630" y="473" type="curve"/>
      <point x="731" y="541" type="line"/>
      <point x="677" y="592" type="line"/>
      <point x="574" y="527" type="line"/>
      <point x="524" y="549"/>
      <point x="464" y="562"/>
      <point x="401" y="562" type="curve" smooth="yes"/>
      <point x="337" y="562"/>
      <point x="275" y="549"/>
      <point x="227" y="527" type="curve"/>
      <point x="124" y="592" type="line"/>
      <point x="69" y="541" type="line"/>
      <point x="171" y="472" type="line"/>
      <point x="133" y="441"/>
      <point x="114" y="402"/>
      <point x="114" y="362" type="curve" smooth="yes"/>
      <point x="114" y="320"/>
      <point x="135" y="282"/>
      <point x="173" y="250" type="curve"/>
      <point x="72" y="183" type="line"/>
      <point x="126" y="132" type="line"/>
      <point x="228" y="197" type="line"/>
      <point x="276" y="175"/>
      <point x="337" y="162"/>
      <point x="401" y="162" type="curve" smooth="yes"/>
      <point x="464" y="162"/>
      <point x="523" y="175"/>
      <point x="572" y="196" type="curve"/>
    </contour>
    <contour>
      <point x="400" y="234" type="curve" smooth="yes"/>
      <point x="285" y="234"/>
      <point x="189" y="281"/>
      <point x="189" y="362" type="curve" smooth="yes"/>
      <point x="189" y="443"/>
      <point x="280" y="492"/>
      <point x="403" y="492" type="curve" smooth="yes"/>
      <point x="522" y="492"/>
      <point x="613" y="443"/>
      <point x="613" y="362" type="curve" smooth="yes"/>
      <point x="613" y="281"/>
      <point x="519" y="234"/>
    </contour>
  </outline>
</glyph>
<glyph name="dieresis" format="2">
  <advance width="800"/>
  <unicode hex="00A8"/>
  <anchor x="400" y="537" name="_top"/>
  <anchor x="400" y="647" name="top"/>
  <outline>
    <contour>
      <point x="555" y="621" type="curve" smooth="yes"/>
      <point x="594" y="621"/>
      <point x="618" y="641"/>
      <point x="618" y="682" type="curve" smooth="yes"/>
      <point x="618" y="724"/>
      <point x="594" y="741"/>
      <point x="555" y="741" type="curve" smooth="yes"/>
      <point x="516" y="741"/>
      <point x="491" y="724"/>
      <point x="491" y="682" type="curve" smooth="yes"/>
      <point x="491" y="641"/>
      <point x="516" y="621"/>
    </contour>
    <contour>
      <point x="245" y="621" type="curve" smooth="yes"/>
      <point x="285" y="621"/>
      <point x="309" y="641"/>
      <point x="309" y="682" type="curve" smooth="yes"/>
      <point x="309" y="724"/>
      <point x="285" y="741"/>
      <point x="245" y="741" type="curve" smooth="yes"/>
      <point x="206" y="741"/>
      <point x="182" y="724"/>
      <point x="182" y="682" type="curve" smooth="yes"/>
      <point x="182" y="641"/>
      <point x="206" y="621"/>
    </contour>
  </outline>
</glyph>
<glyph name="registered" format="2">
  <advance width="800"/>
  <unicode hex="00AE"/>
  <outline>
    <contour>
      <point x="398" y="102" type="curve"/>
      <point x="614" y="102"/>
      <point x="771" y="205"/>
      <point x="771" y="361" type="curve" smooth="yes"/>
      <point x="771" y="512"/>
      <point x="622" y="618"/>
      <point x="402" y="618" type="curve" smooth="yes"/>
      <point x="186" y="618"/>
      <point x="29" y="514"/>
      <point x="29" y="359" type="curve" smooth="yes"/>
      <point x="29" y="208"/>
      <point x="176" y="102"/>
    </contour>
    <contour>
      <point x="399" y="151" type="curve"/>
      <point x="214" y="151"/>
      <point x="88" y="233"/>
      <point x="88" y="361" type="curve" smooth="yes"/>
      <point x="88" y="489"/>
      <point x="218" y="567"/>
      <point x="399" y="567" type="curve" smooth="yes"/>
      <point x="584" y="567"/>
      <point x="712" y="486"/>
      <point x="712" y="358" type="curve" smooth="yes"/>
      <point x="712" y="229"/>
      <point x="582" y="151"/>
    </contour>
    <contour>
      <point x="269" y="207" type="line"/>
      <point x="326" y="207" type="line"/>
      <point x="326" y="324" type="line"/>
      <point x="415" y="324" type="line"/>
      <point x="524" y="207" type="line"/>
      <point x="593" y="207" type="line"/>
      <point x="471" y="337" type="line"/>
      <point x="520" y="349"/>
      <point x="562" y="375"/>
      <point x="562" y="424" type="curve" smooth="yes"/>
      <point x="562" y="481"/>
      <point x="505" y="516"/>
      <point x="401" y="516" type="curve" smooth="yes"/>
      <point x="269" y="516" type="line"/>
    </contour>
    <contour>
      <point x="326" y="370" type="line"/>
      <point x="326" y="468" type="line"/>
      <point x="398" y="468" type="line" smooth="yes"/>
      <point x="465" y="468"/>
      <point x="503" y="453"/>
      <point x="503" y="420" type="curve" smooth="yes"/>
      <point x="503" y="386"/>
      <point x="460" y="370"/>
      <point x="398" y="370" type="curve" smooth="yes"/>
    </contour>
  </outline>
</glyph>
<glyph name="overscore" format="2">
  <advance width="800"/>
  <unicode hex="00AF"/>
  <outline>
    <contour>
      <point x="199" y="618" type="line"/>
      <point x="601" y="618" type="line"/>
      <point x="601" y="693" type="line"/>
      <point x="199" y="693" type="line"/>
    </contour>
  </outline>
</glyph>
<glyph name="degree" format="2">
  <advance width="800"/>
  <unicode hex="00B0"/>
  <outline>
    <contour>
      <point x="401" y="418" type="curve" smooth="yes"/>
      <point x="521" y="418"/>
      <point x="612" y="484"/>
      <point x="612" y="571" type="curve" smooth="yes"/>
      <point x="612" y="658"/>
      <point x="517" y="724"/>
      <point x="400" y="724" type="curve" smooth="yes"/>
      <point x="281" y="724"/>
      <point x="188" y="658"/>
      <point x="188" y="571" type="curve" smooth="yes"/>
      <point x="188" y="484"/>
      <point x="279" y="418"/>
    </contour>
    <contour>
      <point x="401" y="481" type="curve" smooth="yes"/>
      <point x="321" y="481"/>
      <point x="257" y="516"/>
      <point x="257" y="571" type="curve" smooth="yes"/>
      <point x="257" y="627"/>
      <point x="319" y="660"/>
      <point x="400" y="660" type="curve" smooth="yes"/>
      <point x="480" y="660"/>
      <point x="543" y="626"/>
      <point x="543" y="571" type="curve" smooth="yes"/>
      <point x="543" y="516"/>
      <point x="481" y="481"/>
    </contour>
  </outline>
</glyph>
<glyph name="plusminus" format="2">
  <advance width="800"/>
  <unicode hex="00B1"/>
  <outline>
    <contour>
      <point x="359" y="127" type="line"/>
      <point x="438" y="127" type="line"/>
      <point x="438" y="322" type="line"/>
      <point x="722" y="322" type="line"/>
      <point x="722" y="397" type="line"/>
      <point x="438" y="397" type="line"/>
      <point x="438" y="593" type="line"/>
      <point x="359" y="593" type="line"/>
      <point x="359" y="397" type="line"/>
      <point x="75" y="397" type="line"/>
      <point x="75" y="322" type="line"/>
      <point x="359" y="322" type="line"/>
    </contour>
    <contour>
      <point x="78" y="0" type="line"/>
      <point x="722" y="0" type="line"/>
      <point x="722" y="76" type="line"/>
      <point x="78" y="76" type="line"/>
    </contour>
  </outline>
</glyph>
<glyph name="twosuperior" format="2">
  <advance width="800"/>
  <unicode hex="00B2"/>
  <outline>
    <contour>
      <point x="193" y="416" type="line"/>
      <point x="612" y="416" type="line"/>
      <point x="612" y="481" type="line"/>
      <point x="293" y="481" type="line"/>
      <point x="416" y="556" type="line" smooth="yes"/>
      <point x="531" y="626"/>
      <point x="592" y="669"/>
      <point x="592" y="735" type="curve" smooth="yes"/>
      <point x="592" y="808"/>
      <point x="521" y="853"/>
      <point x="401" y="853" type="curve" smooth="yes"/>
      <point x="324" y="853"/>
      <point x="260" y="831"/>
      <point x="206" y="797" type="curve"/>
      <point x="245" y="749" type="line"/>
      <point x="295" y="775"/>
      <point x="340" y="792"/>
      <point x="398" y="792" type="curve" smooth="yes"/>
      <point x="471" y="792"/>
      <point x="515" y="770"/>
      <point x="515" y="730" type="curve" smooth="yes"/>
      <point x="515" y="687"/>
      <point x="472" y="662"/>
      <point x="361" y="586" type="curve" smooth="yes"/>
      <point x="193" y="473" type="line"/>
    </contour>
  </outline>
</glyph>
<glyph name="threesuperior" format="2">
  <advance width="800"/>
  <unicode hex="00B3"/>
  <outline>
    <contour>
      <point x="370" y="408" type="curve" smooth="yes"/>
      <point x="522" y="408"/>
      <point x="601" y="461"/>
      <point x="601" y="537" type="curve" smooth="yes"/>
      <point x="601" y="594"/>
      <point x="559" y="627"/>
      <point x="484" y="638" type="curve"/>
      <point x="484" y="641" type="line"/>
      <point x="541" y="655"/>
      <point x="585" y="690"/>
      <point x="585" y="742" type="curve" smooth="yes"/>
      <point x="585" y="808"/>
      <point x="516" y="853"/>
      <point x="395" y="853" type="curve" smooth="yes"/>
      <point x="316" y="853"/>
      <point x="255" y="834"/>
      <point x="199" y="803" type="curve"/>
      <point x="236" y="755" type="line"/>
      <point x="287" y="777"/>
      <point x="336" y="793"/>
      <point x="392" y="793" type="curve" smooth="yes"/>
      <point x="463" y="793"/>
      <point x="506" y="774"/>
      <point x="506" y="734" type="curve" smooth="yes"/>
      <point x="506" y="693"/>
      <point x="459" y="666"/>
      <point x="366" y="666" type="curve" smooth="yes"/>
      <point x="280" y="666" type="line"/>
      <point x="280" y="608" type="line"/>
      <point x="367" y="608" type="line" smooth="yes"/>
      <point x="469" y="608"/>
      <point x="523" y="588"/>
      <point x="523" y="540" type="curve" smooth="yes"/>
      <point x="523" y="497"/>
      <point x="472" y="469"/>
      <point x="372" y="469" type="curve" smooth="yes"/>
      <point x="312" y="469"/>
      <point x="253" y="481"/>
      <point x="192" y="503" type="curve"/>
      <point x="192" y="436" type="line"/>
      <point x="245" y="416"/>
      <point x="306" y="408"/>
    </contour>
  </outline>
</glyph>
<glyph name="acute" format="2">
  <advance width="800"/>
  <unicode hex="00B4"/>
  <outline>
    <contour>
      <point x="336" y="606" type="line"/>
      <point x="402" y="606" type="line"/>
      <point x="473" y="642"/>
      <point x="569" y="719"/>
      <point x="612" y="756" type="curve"/>
      <point x="612" y="766" type="line"/>
      <point x="500" y="766" type="line"/>
      <point x="463" y="721"/>
      <point x="388" y="656"/>
      <point x="336" y="618" type="curve"/>
    </contour>
  </outline>
</glyph>
<glyph name="micro" format="2">
  <advance width="800"/>
  <unicode hex="00B5"/>
  <anchor x="370" y="537" name="top"/>
  <anchor x="714" y="10" name="ogonek"/>
  <anchor x="771" y="537" name="topright"/>
  <anchor x="370" y="0" name="bottom"/>
  <outline>
    <contour>
      <point x="90" y="-240" type="line"/>
      <point x="187" y="-240" type="line"/>
      <point x="187" y="227" type="line"/>
      <point x="90" y="227" type="line"/>
    </contour>
    <component base="u" xOffset="-30"/>
  </outline>
</glyph>
<glyph name="cedilla" format="2">
  <advance width="800"/>
  <unicode hex="00B8"/>
  <outline>
    <contour>
      <point x="352" y="-240" type="curve" smooth="yes"/>
      <point x="476" y="-240"/>
      <point x="545" y="-201"/>
      <point x="545" y="-140" type="curve" smooth="yes"/>
      <point x="545" y="-86"/>
      <point x="491" y="-62"/>
      <point x="417" y="-51" type="curve"/>
      <point x="457" y="5" type="line"/>
      <point x="392" y="5" type="line"/>
      <point x="331" y="-85" type="line"/>
      <point x="421" y="-93"/>
      <point x="467" y="-107"/>
      <point x="467" y="-140" type="curve" smooth="yes"/>
      <point x="467" y="-171"/>
      <point x="425" y="-182"/>
      <point x="349" y="-182" type="curve" smooth="yes"/>
      <point x="326" y="-182"/>
      <point x="297" y="-180"/>
      <point x="276" y="-176" type="curve"/>
      <point x="276" y="-234" type="line"/>
      <point x="295" y="-238"/>
      <point x="323" y="-240"/>
    </contour>
  </outline>
</glyph>
<glyph name="Thorn" format="2">
  <advance width="800"/>
  <unicode hex="00DE"/>
  <anchor x="400" y="0" name="bottom"/>
  <anchor x="400" y="714" name="top"/>
  <outline>
    <contour>
      <point x="116" y="0" type="line"/>
      <point x="212" y="0" type="line"/>
      <point x="212" y="143" type="line"/>
      <point x="378" y="143" type="line" smooth="yes"/>
      <point x="636" y="143"/>
      <point x="750" y="254"/>
      <point x="750" y="374" type="curve" smooth="yes"/>
      <point x="750" y="508"/>
      <point x="639" y="585"/>
      <point x="403" y="585" type="curve" smooth="yes"/>
      <point x="212" y="585" type="line"/>
      <point x="212" y="714" type="line"/>
      <point x="116" y="714" type="line"/>
    </contour>
    <contour>
      <point x="212" y="226" type="line"/>
      <point x="212" y="501" type="line"/>
      <point x="391" y="501" type="line" smooth="yes"/>
      <point x="570" y="501"/>
      <point x="652" y="457"/>
      <point x="652" y="370" type="curve" smooth="yes"/>
      <point x="652" y="268"/>
      <point x="547" y="226"/>
      <point x="367" y="226" type="curve" smooth="yes"/>
    </contour>
  </outline>
</glyph>
<glyph name="germandbls" format="2">
  <advance width="800"/>
  <unicode hex="00DF"/>
  <anchor x="400" y="0" name="bottom"/>
  <anchor x="400" y="765" name="top"/>
  <outline>
    <contour>
      <point x="506" y="-10" type="curve" smooth="yes"/>
      <point x="670" y="-10"/>
      <point x="764" y="40"/>
      <point x="764" y="151" type="curve" smooth="yes"/>
      <point x="764" y="239"/>
      <point x="695" y="276"/>
      <point x="605" y="323" type="curve" smooth="yes"/>
      <point x="517" y="369"/>
      <point x="476" y="379"/>
      <point x="476" y="406" type="curve" smooth="yes"/>
      <point x="476" y="473"/>
      <point x="673" y="496"/>
      <point x="673" y="617" type="curve" smooth="yes"/>
      <point x="673" y="714"/>
      <point x="567" y="765"/>
      <point x="398" y="765" type="curve" smooth="yes"/>
      <point x="215" y="765"/>
      <point x="96" y="715"/>
      <point x="96" y="580" type="curve" smooth="yes"/>
      <point x="96" y="0" type="line"/>
      <point x="190" y="0" type="line"/>
      <point x="190" y="576" type="line" smooth="yes"/>
      <point x="190" y="659"/>
      <point x="270" y="684"/>
      <point x="397" y="684" type="curve" smooth="yes"/>
      <point x="508" y="684"/>
      <point x="575" y="659"/>
      <point x="575" y="606" type="curve" smooth="yes"/>
      <point x="575" y="520"/>
      <point x="382" y="513"/>
      <point x="382" y="400" type="curve" smooth="yes"/>
      <point x="382" y="344"/>
      <point x="440" y="315"/>
      <point x="535" y="264" type="curve" smooth="yes"/>
      <point x="627" y="215"/>
      <point x="669" y="201"/>
      <point x="669" y="154" type="curve" smooth="yes"/>
      <point x="669" y="99"/>
      <point x="617" y="68"/>
      <point x="506" y="68" type="curve" smooth="yes"/>
      <point x="431" y="68"/>
      <point x="362" y="89"/>
      <point x="308" y="110" type="curve"/>
      <point x="308" y="24" type="line"/>
      <point x="358" y="2"/>
      <point x="422" y="-10"/>
    </contour>
  </outline>
</glyph>
<glyph name="divide" format="2">
  <advance width="800"/>
  <unicode hex="00F7"/>
  <outline>
    <contour>
      <point x="77" y="315" type="line"/>
      <point x="723" y="315" type="line"/>
      <point x="723" y="390" type="line"/>
      <point x="77" y="390" type="line"/>
    </contour>
    <contour>
      <point x="399" y="117" type="curve" smooth="yes"/>
      <point x="439" y="117"/>
      <point x="462" y="136"/>
      <point x="462" y="180" type="curve" smooth="yes"/>
      <point x="462" y="226"/>
      <point x="439" y="242"/>
      <point x="399" y="242" type="curve" smooth="yes"/>
      <point x="360" y="242"/>
      <point x="336" y="226"/>
      <point x="336" y="180" type="curve" smooth="yes"/>
      <point x="336" y="136"/>
      <point x="360" y="117"/>
    </contour>
    <contour>
      <point x="399" y="462" type="curve" smooth="yes"/>
      <point x="439" y="462"/>
      <point x="462" y="481"/>
      <point x="462" y="525" type="curve" smooth="yes"/>
      <point x="462" y="571"/>
      <point x="439" y="587"/>
      <point x="399" y="587" type="curve" smooth="yes"/>
      <point x="360" y="587"/>
      <point x="336" y="571"/>
      <point x="336" y="525" type="curve" smooth="yes"/>
      <point x="336" y="481"/>
      <point x="360" y="462"/>
    </contour>
  </outline>
</glyph>
<glyph name="oslash" format="2">
  <advance width="800"/>
  <unicode hex="00F8"/>
  <anchor x="400" y="0" name="bottom"/>
  <anchor x="400" y="537" name="top"/>
  <anchor x="371" y="10" name="ogonek"/>
  <anchor x="771" y="537" name="topright"/>
  <anchor x="370" y="269" name="center"/>
  <outline>
    <contour>
      <point x="133" y="-34" type="line"/>
      <point x="740" y="529" type="line"/>
      <point x="678" y="568" type="line"/>
      <point x="72" y="6" type="line"/>
    </contour>
    <component base="o" xOffset="-30"/>
  </outline>
</glyph>
<glyph name="dcaron" format="2">
  <advance width="800"/>
  <unicode hex="010F"/>
  <anchor x="380" y="0" name="bottom"/>
  <anchor x="348" y="269" name="center"/>
  <anchor x="431" y="760" name="top"/>
  <anchor x="799" y="760" name="topright"/>
  <outline>
    <contour>
      <point x="323" y="-10" type="curve" smooth="yes"/>
      <point x="440" y="-10"/>
      <point x="510" y="21"/>
      <point x="551" y="72" type="curve"/>
      <point x="556" y="72" type="line"/>
      <point x="567" y="0" type="line"/>
      <point x="646" y="0" type="line"/>
      <point x="646" y="760" type="line"/>
      <point x="550" y="760" type="line"/>
      <point x="550" y="555" type="line" smooth="yes"/>
      <point x="550" y="524"/>
      <point x="552" y="495"/>
      <point x="557" y="469" type="curve"/>
      <point x="551" y="469" type="line"/>
      <point x="515" y="515"/>
      <point x="453" y="547"/>
      <point x="331" y="547" type="curve" smooth="yes"/>
      <point x="144" y="547"/>
      <point x="42" y="447"/>
      <point x="42" y="270" type="curve" smooth="yes"/>
      <point x="42" y="85"/>
      <point x="142" y="-10"/>
    </contour>
    <contour>
      <point x="342" y="68" type="curve" smooth="yes"/>
      <point x="206" y="68"/>
      <point x="140" y="132"/>
      <point x="140" y="263" type="curve" smooth="yes"/>
      <point x="140" y="402"/>
      <point x="214" y="469"/>
      <point x="348" y="469" type="curve" smooth="yes"/>
      <point x="492" y="469"/>
      <point x="551" y="381"/>
      <point x="551" y="267" type="curve" smooth="yes"/>
      <point x="551" y="248" type="line" smooth="yes"/>
      <point x="551" y="138"/>
      <point x="488" y="68"/>
    </contour>
    <component base="caroncommaaccent" xOffset="371" yOffset="42"/>
  </outline>
</glyph>
<glyph name="dcroat" format="2">
  <advance width="800"/>
  <unicode hex="0111"/>
  <anchor x="400" y="0" name="bottom"/>
  <anchor x="400" y="269" name="center"/>
  <anchor x="400" y="760" name="top"/>
  <anchor x="801" y="760" name="topright"/>
  <outline>
    <contour>
      <point x="363" y="-10" type="curve" smooth="yes"/>
      <point x="493" y="-10"/>
      <point x="566" y="23"/>
      <point x="608" y="72" type="curve"/>
      <point x="613" y="72" type="line"/>
      <point x="624" y="0" type="line"/>
      <point x="703" y="0" type="line"/>
      <point x="703" y="760" type="line"/>
      <point x="607" y="760" type="line"/>
      <point x="607" y="547" type="line" smooth="yes"/>
      <point x="607" y="518"/>
      <point x="609" y="491"/>
      <point x="614" y="463" type="curve"/>
      <point x="608" y="463" type="line"/>
      <point x="572" y="509"/>
      <point x="500" y="541"/>
      <point x="376" y="541" type="curve" smooth="yes"/>
      <point x="166" y="541"/>
      <point x="56" y="443"/>
      <point x="56" y="269" type="curve" smooth="yes"/>
      <point x="56" y="84"/>
      <point x="167" y="-10"/>
    </contour>
    <contour>
      <point x="383" y="68" type="curve" smooth="yes"/>
      <point x="231" y="68"/>
      <point x="155" y="132"/>
      <point x="155" y="260" type="curve" smooth="yes"/>
      <point x="155" y="397"/>
      <point x="240" y="463"/>
      <point x="389" y="463" type="curve" smooth="yes"/>
      <point x="546" y="463"/>
      <point x="608" y="377"/>
      <point x="608" y="265" type="curve" smooth="yes"/>
      <point x="608" y="245" type="line" smooth="yes"/>
      <point x="608" y="137"/>
      <point x="541" y="68"/>
    </contour>
    <contour>
      <point x="337" y="602" type="line"/>
      <point x="830" y="602" type="line"/>
      <point x="830" y="671" type="line"/>
      <point x="337" y="671" type="line"/>
    </contour>
  </outline>
</glyph>
<glyph name="IJ" format="2">
  <advance width="800"/>
  <unicode hex="0132"/>
  <anchor x="400" y="0" name="bottom"/>
  <anchor x="-30" y="0" name="caret_1"/>
  <anchor x="400" y="714" name="top"/>
  <anchor x="-2" y="714" name="topleft"/>
  <outline>
    <contour>
      <point x="367" y="-10" type="curve" smooth="yes"/>
      <point x="583" y="-10"/>
      <point x="679" y="75"/>
      <point x="679" y="224" type="curve" smooth="yes"/>
      <point x="679" y="714" type="line"/>
      <point x="582" y="714" type="line"/>
      <point x="582" y="237" type="line" smooth="yes"/>
      <point x="582" y="120"/>
      <point x="508" y="79"/>
      <point x="359" y="79" type="curve" smooth="yes"/>
      <point x="267" y="79"/>
      <point x="172" y="96"/>
      <point x="125" y="109" type="curve"/>
      <point x="125" y="18" type="line"/>
      <point x="177" y="2"/>
      <point x="279" y="-10"/>
    </contour>
    <contour>
      <point x="120" y="204" type="line"/>
      <point x="216" y="204" type="line"/>
      <point x="216" y="714" type="line"/>
      <point x="120" y="714" type="line"/>
    </contour>
  </outline>
</glyph>
<glyph name="ij" format="2">
  <advance width="800"/>
  <unicode hex="0133"/>
  <anchor x="405" y="-245" name="bottom"/>
  <anchor x="-30" y="0" name="caret_1"/>
  <anchor x="400" y="761" name="top"/>
  <outline>
    <contour>
      <point x="363" y="-245" type="curve" smooth="yes"/>
      <point x="549" y="-245"/>
      <point x="653" y="-175"/>
      <point x="653" y="-49" type="curve" smooth="yes"/>
      <point x="653" y="537" type="line"/>
      <point x="557" y="537" type="line"/>
      <point x="557" y="-32" type="line" smooth="yes"/>
      <point x="557" y="-123"/>
      <point x="498" y="-165"/>
      <point x="354" y="-165" type="curve" smooth="yes"/>
      <point x="289" y="-165"/>
      <point x="211" y="-156"/>
      <point x="158" y="-144" type="curve"/>
      <point x="158" y="-227" type="line"/>
      <point x="208" y="-238"/>
      <point x="290" y="-245"/>
    </contour>
    <contour>
      <point x="150" y="0" type="line"/>
      <point x="247" y="0" type="line"/>
      <point x="247" y="537" type="line"/>
      <point x="150" y="537" type="line"/>
    </contour>
    <contour>
      <point x="200" y="630" type="curve" smooth="yes"/>
      <point x="246" y="630"/>
      <point x="273" y="652"/>
      <point x="273" y="696" type="curve" smooth="yes"/>
      <point x="273" y="740"/>
      <point x="245" y="761"/>
      <point x="199" y="761" type="curve" smooth="yes"/>
      <point x="151" y="761"/>
      <point x="125" y="740"/>
      <point x="125" y="696" type="curve" smooth="yes"/>
      <point x="125" y="652"/>
      <point x="153" y="630"/>
    </contour>
    <contour>
      <point x="602" y="630" type="curve" smooth="yes"/>
      <point x="648" y="630"/>
      <point x="675" y="652"/>
      <point x="675" y="696" type="curve" smooth="yes"/>
      <point x="675" y="740"/>
      <point x="647" y="761"/>
      <point x="601" y="761" type="curve" smooth="yes"/>
      <point x="553" y="761"/>
      <point x="528" y="740"/>
      <point x="528" y="696" type="curve" smooth="yes"/>
      <point x="528" y="652"/>
      <point x="555" y="630"/>
    </contour>
  </outline>
</glyph>
<glyph name="napostrophe" format="2">
  <advance width="800"/>
  <unicode hex="0149"/>
  <anchor x="419" y="0" name="bottom"/>
  <anchor x="417" y="537" name="top"/>
  <outline>
    <contour>
      <point x="122" y="0" type="line"/>
      <point x="219" y="0" type="line"/>
      <point x="219" y="272" type="line" smooth="yes"/>
      <point x="219" y="396"/>
      <point x="294" y="469"/>
      <point x="437" y="469" type="curve" smooth="yes"/>
      <point x="548" y="469"/>
      <point x="613" y="428"/>
      <point x="613" y="339" type="curve" smooth="yes"/>
      <point x="613" y="0" type="line"/>
      <point x="710" y="0" type="line"/>
      <point x="710" y="358" type="line" smooth="yes"/>
      <point x="710" y="487"/>
      <point x="615" y="547"/>
      <point x="462" y="547" type="curve" smooth="yes"/>
      <point x="336" y="547"/>
      <point x="258" y="519"/>
      <point x="218" y="459" type="curve"/>
      <point x="213" y="459" type="line"/>
      <point x="199" y="537" type="line"/>
      <point x="122" y="537" type="line"/>
    </contour>
    <component base="quoteright" xOffset="-404"/>
  </outline>
</glyph>
<glyph name="eng" format="2">
  <advance width="800"/>
  <unicode hex="014B"/>
  <anchor x="417" y="-240" name="bottom"/>
  <anchor x="415" y="537" name="top"/>
  <anchor x="801" y="537" name="topright"/>
  <outline>
    <contour>
      <point x="518" y="-240" type="curve" smooth="yes"/>
      <point x="640" y="-240"/>
      <point x="710" y="-178"/>
      <point x="710" y="-78" type="curve" smooth="yes"/>
      <point x="710" y="240" type="line"/>
      <point x="613" y="235" type="line"/>
      <point x="613" y="-78" type="line" smooth="yes"/>
      <point x="613" y="-143"/>
      <point x="572" y="-162"/>
      <point x="506" y="-162" type="curve" smooth="yes"/>
      <point x="472" y="-162"/>
      <point x="442" y="-158"/>
      <point x="412" y="-152" type="curve"/>
      <point x="412" y="-228" type="line"/>
      <point x="438" y="-235"/>
      <point x="473" y="-240"/>
    </contour>
    <component base="n"/>
  </outline>
</glyph>
<glyph name="Uogonek" format="2">
  <advance width="800"/>
  <unicode hex="0172"/>
  <anchor x="424" y="-222" name="bottom"/>
  <anchor x="399" y="714" name="top"/>
  <anchor x="744" y="10" name="ogonek"/>
  <anchor x="801" y="714" name="topright"/>
  <outline>
    <contour>
      <point x="435" y="-222" type="curve" smooth="yes"/>
      <point x="468" y="-222"/>
      <point x="495" y="-217"/>
      <point x="517" y="-212" type="curve"/>
      <point x="517" y="-152" type="line"/>
      <point x="501" y="-156"/>
      <point x="475" y="-159"/>
      <point x="455" y="-159" type="curve" smooth="yes"/>
      <point x="402" y="-159"/>
      <point x="376" y="-144"/>
      <point x="376" y="-111" type="curve" smooth="yes"/>
      <point x="376" y="-65"/>
      <point x="457" y="-28"/>
      <point x="548" y="14" type="curve"/>
      <point x="494" y="30" type="line"/>
      <point x="399" y="-1"/>
      <point x="297" y="-49"/>
      <point x="297" y="-121" type="curve" smooth="yes"/>
      <point x="297" y="-181"/>
      <point x="347" y="-222"/>
    </contour>
    <component base="U"/>
  </outline>
</glyph>
<glyph name="uni0180" format="2">
  <advance width="800"/>
  <unicode hex="0180"/>
  <anchor x="400" y="0" name="bottom"/>
  <anchor x="358" y="760" name="top"/>
  <anchor x="771" y="760" name="topright"/>
  <outline>
    <contour>
      <point x="-22" y="604" type="line"/>
      <point x="490" y="604" type="line"/>
      <point x="490" y="674" type="line"/>
      <point x="-22" y="674" type="line"/>
    </contour>
    <component base="b" xOffset="-30"/>
  </outline>
</glyph>
<glyph name="uni0185" format="2">
  <advance width="800"/>
  <unicode hex="0185"/>
  <anchor x="400" y="0" name="bottom"/>
  <anchor x="400" y="760" name="top"/>
  <outline>
    <contour>
      <point x="412" y="-10" type="curve" smooth="yes"/>
      <point x="628" y="-10"/>
      <point x="742" y="83"/>
      <point x="742" y="269" type="curve" smooth="yes"/>
      <point x="742" y="454"/>
      <point x="626" y="546"/>
      <point x="436" y="546" type="curve" smooth="yes"/>
      <point x="313" y="546"/>
      <point x="228" y="511"/>
      <point x="191" y="467" type="curve"/>
      <point x="185" y="467" type="line"/>
      <point x="188" y="489"/>
      <point x="191" y="531"/>
      <point x="191" y="576" type="curve" smooth="yes"/>
      <point x="191" y="760" type="line"/>
      <point x="96" y="760" type="line"/>
      <point x="96" y="267" type="line" smooth="yes"/>
      <point x="96" y="84"/>
      <point x="212" y="-10"/>
    </contour>
    <contour>
      <point x="414" y="68" type="curve" smooth="yes"/>
      <point x="270" y="68"/>
      <point x="191" y="128"/>
      <point x="191" y="265" type="curve" smooth="yes"/>
      <point x="191" y="273" type="line" smooth="yes"/>
      <point x="191" y="405"/>
      <point x="268" y="467"/>
      <point x="419" y="467" type="curve" smooth="yes"/>
      <point x="569" y="467"/>
      <point x="644" y="402"/>
      <point x="644" y="270" type="curve" smooth="yes"/>
      <point x="644" y="136"/>
      <point x="568" y="68"/>
    </contour>
  </outline>
</glyph>
<glyph name="uni0191" format="2">
  <advance width="800"/>
  <unicode hex="0191"/>
  <anchor x="391" y="-194" name="bottom"/>
  <anchor x="420" y="714" name="top"/>
  <outline>
    <contour>
      <point x="32" y="-195" type="curve" smooth="yes"/>
      <point x="141" y="-195"/>
      <point x="212" y="-147"/>
      <point x="212" y="-35" type="curve" smooth="yes"/>
      <point x="212" y="299" type="line"/>
      <point x="680" y="299" type="line"/>
      <point x="680" y="385" type="line"/>
      <point x="212" y="385" type="line"/>
      <point x="212" y="628" type="line"/>
      <point x="707" y="628" type="line"/>
      <point x="707" y="714" type="line"/>
      <point x="116" y="714" type="line"/>
      <point x="116" y="-31" type="line" smooth="yes"/>
      <point x="116" y="-92"/>
      <point x="82" y="-111"/>
      <point x="22" y="-111" type="curve" smooth="yes"/>
      <point x="-7" y="-111"/>
      <point x="-30" y="-107"/>
      <point x="-51" y="-101" type="curve"/>
      <point x="-51" y="-182" type="line"/>
      <point x="-30" y="-190"/>
      <point x="-4" y="-195"/>
    </contour>
  </outline>
</glyph>
<glyph name="uni0194" format="2">
  <advance width="800"/>
  <unicode hex="0194"/>
  <anchor x="400" y="-240" name="bottom"/>
  <anchor x="400" y="714" name="top"/>
  <outline>
    <contour>
      <point x="400" y="-240" type="curve" smooth="yes"/>
      <point x="503" y="-240"/>
      <point x="562" y="-181"/>
      <point x="562" y="-105" type="curve" smooth="yes"/>
      <point x="562" y="-33"/>
      <point x="506" y="45"/>
      <point x="445" y="129" type="curve"/>
      <point x="772" y="714" type="line"/>
      <point x="671" y="714" type="line"/>
      <point x="453" y="338" type="line" smooth="yes"/>
      <point x="434" y="304"/>
      <point x="417" y="260"/>
      <point x="401" y="228" type="curve"/>
      <point x="386" y="258"/>
      <point x="367" y="305"/>
      <point x="349" y="335" type="curve" smooth="yes"/>
      <point x="127" y="714" type="line"/>
      <point x="28" y="714" type="line"/>
      <point x="355" y="124" type="line"/>
      <point x="292" y="51"/>
      <point x="238" y="-32"/>
      <point x="238" y="-106" type="curve" smooth="yes"/>
      <point x="238" y="-181"/>
      <point x="299" y="-240"/>
    </contour>
    <contour>
      <point x="402" y="-161" type="curve" smooth="yes"/>
      <point x="354" y="-161"/>
      <point x="320" y="-143"/>
      <point x="320" y="-102" type="curve" smooth="yes"/>
      <point x="320" y="-61"/>
      <point x="353" y="-15"/>
      <point x="399" y="31" type="curve"/>
      <point x="444" y="-14"/>
      <point x="480" y="-60"/>
      <point x="480" y="-104" type="curve" smooth="yes"/>
      <point x="480" y="-144"/>
      <point x="449" y="-161"/>
    </contour>
  </outline>
</glyph>
<glyph name="uni0195" format="2">
  <advance width="800"/>
  <unicode hex="0195"/>
  <anchor x="401" y="0" name="bottom"/>
  <anchor x="100" y="760" name="top"/>
  <outline>
    <contour>
      <point x="558" y="-11" type="curve" smooth="yes"/>
      <point x="679" y="-11"/>
      <point x="754" y="46"/>
      <point x="754" y="142" type="curve" smooth="yes"/>
      <point x="754" y="538" type="line"/>
      <point x="667" y="538" type="line"/>
      <point x="667" y="142" type="line" smooth="yes"/>
      <point x="667" y="90"/>
      <point x="624" y="68"/>
      <point x="558" y="68" type="curve" smooth="yes"/>
      <point x="489" y="68"/>
      <point x="449" y="88"/>
      <point x="449" y="151" type="curve" smooth="yes"/>
      <point x="449" y="398" type="line" smooth="yes"/>
      <point x="449" y="509"/>
      <point x="389" y="548"/>
      <point x="290" y="548" type="curve" smooth="yes"/>
      <point x="208" y="548"/>
      <point x="163" y="524"/>
      <point x="141" y="484" type="curve"/>
      <point x="135" y="484" type="line"/>
      <point x="140" y="509"/>
      <point x="141" y="537"/>
      <point x="141" y="568" type="curve" smooth="yes"/>
      <point x="141" y="760" type="line"/>
      <point x="54" y="760" type="line"/>
      <point x="54" y="0" type="line"/>
      <point x="141" y="0" type="line"/>
      <point x="141" y="332" type="line" smooth="yes"/>
      <point x="141" y="439"/>
      <point x="191" y="470"/>
      <point x="267" y="470" type="curve" smooth="yes"/>
      <point x="323" y="470"/>
      <point x="362" y="446"/>
      <point x="362" y="379" type="curve" smooth="yes"/>
      <point x="362" y="151" type="line" smooth="yes"/>
      <point x="362" y="30"/>
      <point x="446" y="-11"/>
    </contour>
  </outline>
</glyph>
<glyph name="uni019B" format="2">
  <advance width="800"/>
  <unicode hex="019B"/>
  <anchor x="328" y="0" name="bottom"/>
  <anchor x="336" y="766" name="top"/>
  <outline>
    <contour>
      <point x="174" y="531" type="line"/>
      <point x="578" y="620" type="line"/>
      <point x="557" y="687" type="line"/>
      <point x="153" y="597" type="line"/>
    </contour>
    <component base="lambda" xOffset="-30"/>
  </outline>
</glyph>
<glyph name="uni019C" format="2">
  <advance width="800"/>
  <unicode hex="019C"/>
  <anchor x="400" y="0" name="bottom"/>
  <anchor x="400" y="357" name="center"/>
  <anchor x="400" y="714" name="top"/>
  <anchor x="-1" y="714" name="topleft"/>
  <outline>
    <contour>
      <point x="205" y="-10" type="curve" smooth="yes"/>
      <point x="292" y="-10"/>
      <point x="335" y="18"/>
      <point x="366" y="68" type="curve"/>
      <point x="371" y="68" type="line"/>
      <point x="388" y="17"/>
      <point x="426" y="-10"/>
      <point x="513" y="-10" type="curve" smooth="yes"/>
      <point x="596" y="-10"/>
      <point x="638" y="7"/>
      <point x="668" y="60" type="curve"/>
      <point x="673" y="60" type="line"/>
      <point x="686" y="0" type="line"/>
      <point x="754" y="0" type="line"/>
      <point x="754" y="714" type="line"/>
      <point x="666" y="714" type="line"/>
      <point x="666" y="262" type="line" smooth="yes"/>
      <point x="666" y="145"/>
      <point x="633" y="73"/>
      <point x="540" y="73" type="curve" smooth="yes"/>
      <point x="469" y="73"/>
      <point x="441" y="118"/>
      <point x="441" y="200" type="curve" smooth="yes"/>
      <point x="441" y="714" type="line"/>
      <point x="354" y="714" type="line"/>
      <point x="354" y="262" type="line" smooth="yes"/>
      <point x="354" y="136"/>
      <point x="309" y="73"/>
      <point x="229" y="73" type="curve" smooth="yes"/>
      <point x="161" y="73"/>
      <point x="133" y="119"/>
      <point x="133" y="200" type="curve" smooth="yes"/>
      <point x="133" y="714" type="line"/>
      <point x="46" y="714" type="line"/>
      <point x="46" y="183" type="line" smooth="yes"/>
      <point x="46" y="51"/>
      <point x="95" y="-10"/>
    </contour>
  </outline>
</glyph>
<glyph name="uni019D" format="2">
  <advance width="800"/>
  <unicode hex="019D"/>
  <anchor x="403" y="-200" name="bottom"/>
  <anchor x="403" y="714" name="top"/>
  <anchor x="800" y="714" name="topright"/>
  <outline>
    <contour>
      <point x="8" y="-200" type="curve" smooth="yes"/>
      <point x="112" y="-200"/>
      <point x="176" y="-152"/>
      <point x="176" y="-39" type="curve" smooth="yes"/>
      <point x="176" y="195" type="line"/>
      <point x="83" y="195" type="line"/>
      <point x="83" y="-37" type="line" smooth="yes"/>
      <point x="83" y="-101"/>
      <point x="54" y="-121"/>
      <point x="-3" y="-121" type="curve" smooth="yes"/>
      <point x="-27" y="-121"/>
      <point x="-51" y="-116"/>
      <point x="-71" y="-111" type="curve"/>
      <point x="-71" y="-186" type="line"/>
      <point x="-52" y="-194"/>
      <point x="-27" y="-200"/>
    </contour>
    <component base="N" xOffset="-30"/>
  </outline>
</glyph>
<glyph name="uni01A2" format="2">
  <advance width="800"/>
  <unicode hex="01A2"/>
  <anchor x="151" y="0" name="bottom"/>
  <anchor x="153" y="10" name="ogonek"/>
  <anchor x="458" y="714" name="top"/>
  <anchor x="-233" y="714" name="topleft"/>
  <anchor x="1144" y="714" name="topright"/>
  <outline>
    <contour>
      <point x="152" y="-10" type="curve" smooth="yes"/>
      <point x="432" y="-10"/>
      <point x="577" y="134"/>
      <point x="577" y="361" type="curve" smooth="yes"/>
      <point x="577" y="573"/>
      <point x="450" y="726"/>
      <point x="157" y="726" type="curve" smooth="yes"/>
      <point x="-127" y="726"/>
      <point x="-275" y="578"/>
      <point x="-275" y="357" type="curve" smooth="yes"/>
      <point x="-275" y="137"/>
      <point x="-132" y="-10"/>
    </contour>
    <contour>
      <point x="152" y="74" type="curve" smooth="yes"/>
      <point x="-69" y="74"/>
      <point x="-173" y="181"/>
      <point x="-173" y="358" type="curve" smooth="yes"/>
      <point x="-173" y="535"/>
      <point x="-67" y="640"/>
      <point x="154" y="640" type="curve" smooth="yes"/>
      <point x="368" y="640"/>
      <point x="474" y="534"/>
      <point x="474" y="358" type="curve" smooth="yes"/>
      <point x="474" y="181"/>
      <point x="373" y="74"/>
    </contour>
    <contour>
      <point x="978" y="0" type="line"/>
      <point x="1075" y="0" type="line"/>
      <point x="1075" y="467" type="line" smooth="yes"/>
      <point x="1075" y="644"/>
      <point x="966" y="726"/>
      <point x="766" y="726" type="curve" smooth="yes"/>
      <point x="621" y="726"/>
      <point x="522" y="681"/>
      <point x="454" y="623" type="curve"/>
      <point x="494" y="575" type="line"/>
      <point x="538" y="605"/>
      <point x="627" y="641"/>
      <point x="746" y="641" type="curve" smooth="yes"/>
      <point x="900" y="641"/>
      <point x="978" y="583"/>
      <point x="978" y="449" type="curve" smooth="yes"/>
    </contour>
  </outline>
</glyph>
<glyph name="uni01B2" format="2">
  <advance width="800"/>
  <unicode hex="01B2"/>
  <anchor x="409" y="0" name="bottom"/>
  <anchor x="744" y="10" name="ogonek"/>
  <anchor x="400" y="714" name="top"/>
  <anchor x="801" y="714" name="topright"/>
  <outline>
    <contour>
      <point x="396" y="-10" type="curve" smooth="yes"/>
      <point x="618" y="-10"/>
      <point x="717" y="102"/>
      <point x="717" y="253" type="curve" smooth="yes"/>
      <point x="717" y="579" type="line" smooth="yes"/>
      <point x="717" y="675"/>
      <point x="653" y="724"/>
      <point x="541" y="724" type="curve" smooth="yes"/>
      <point x="488" y="724"/>
      <point x="444" y="715"/>
      <point x="418" y="701" type="curve"/>
      <point x="418" y="619" type="line"/>
      <point x="443" y="631"/>
      <point x="480" y="638"/>
      <point x="522" y="638" type="curve" smooth="yes"/>
      <point x="580" y="638"/>
      <point x="620" y="620"/>
      <point x="620" y="570" type="curve" smooth="yes"/>
      <point x="620" y="261" type="line" smooth="yes"/>
      <point x="620" y="155"/>
      <point x="559" y="76"/>
      <point x="398" y="76" type="curve" smooth="yes"/>
      <point x="238" y="76"/>
      <point x="180" y="148"/>
      <point x="180" y="260" type="curve" smooth="yes"/>
      <point x="180" y="714" type="line"/>
      <point x="83" y="714" type="line"/>
      <point x="83" y="254" type="line" smooth="yes"/>
      <point x="83" y="93"/>
      <point x="176" y="-10"/>
    </contour>
  </outline>
</glyph>
<glyph name="uni01B3" format="2">
  <advance width="800"/>
  <unicode hex="01B3"/>
  <anchor x="400" y="0" name="bottom"/>
  <anchor x="400" y="714" name="top"/>
  <outline>
    <contour>
      <point x="345" y="0" type="line"/>
      <point x="442" y="0" type="line"/>
      <point x="442" y="277" type="line"/>
      <point x="772" y="714" type="line"/>
      <point x="668" y="714" type="line"/>
      <point x="393" y="370" type="line"/>
      <point x="192" y="646" type="line" smooth="yes"/>
      <point x="150" y="704"/>
      <point x="114" y="725"/>
      <point x="43" y="725" type="curve" smooth="yes"/>
      <point x="8" y="725"/>
      <point x="-18" y="719"/>
      <point x="-34" y="713" type="curve"/>
      <point x="-34" y="635" type="line"/>
      <point x="-20" y="640"/>
      <point x="-1" y="643"/>
      <point x="22" y="643" type="curve" smooth="yes"/>
      <point x="61" y="643"/>
      <point x="82" y="633"/>
      <point x="105" y="601" type="curve" smooth="yes"/>
      <point x="344" y="273" type="line"/>
    </contour>
  </outline>
</glyph>
<glyph name="uni01B4" format="2">
  <advance width="800"/>
  <unicode hex="01B4"/>
  <anchor x="400" y="-245" name="bottom"/>
  <anchor x="400" y="537" name="top"/>
  <outline>
    <contour>
      <point x="148" y="-245" type="curve" smooth="yes"/>
      <point x="285" y="-245"/>
      <point x="337" y="-173"/>
      <point x="394" y="-71" type="curve" smooth="yes"/>
      <point x="666" y="411" type="line" smooth="yes"/>
      <point x="689" y="452"/>
      <point x="710" y="469"/>
      <point x="756" y="469" type="curve" smooth="yes"/>
      <point x="775" y="469"/>
      <point x="793" y="466"/>
      <point x="805" y="464" type="curve"/>
      <point x="805" y="535" type="line"/>
      <point x="787" y="542"/>
      <point x="762" y="547"/>
      <point x="731" y="547" type="curve" smooth="yes"/>
      <point x="654" y="547"/>
      <point x="623" y="521"/>
      <point x="583" y="450" type="curve" smooth="yes"/>
      <point x="456" y="226" type="line" smooth="yes"/>
      <point x="433" y="184"/>
      <point x="414" y="134"/>
      <point x="394" y="86" type="curve"/>
      <point x="391" y="86" type="line"/>
      <point x="371" y="132"/>
      <point x="351" y="184"/>
      <point x="326" y="225" type="curve" smooth="yes"/>
      <point x="139" y="537" type="line"/>
      <point x="43" y="537" type="line"/>
      <point x="347" y="-4" type="line"/>
      <point x="301" y="-74" type="line" smooth="yes"/>
      <point x="258" y="-140"/>
      <point x="220" y="-169"/>
      <point x="138" y="-169" type="curve" smooth="yes"/>
      <point x="109" y="-169"/>
      <point x="81" y="-166"/>
      <point x="56" y="-163" type="curve"/>
      <point x="56" y="-237" type="line"/>
      <point x="84" y="-241"/>
      <point x="115" y="-245"/>
    </contour>
  </outline>
</glyph>
<glyph name="uni01B5" format="2">
  <advance width="800"/>
  <unicode hex="01B5"/>
  <anchor x="416" y="0" name="bottom"/>
  <anchor x="416" y="714" name="top"/>
  <anchor x="772" y="714" name="topright"/>
  <outline>
    <contour>
      <point x="140" y="326" type="line"/>
      <point x="675" y="326" type="line"/>
      <point x="675" y="408" type="line"/>
      <point x="140" y="408" type="line"/>
    </contour>
    <component base="Z" xOffset="-30"/>
  </outline>
</glyph>
<glyph name="uni01BB" format="2">
  <advance width="800"/>
  <unicode hex="01BB"/>
  <anchor x="436" y="0" name="bottom"/>
  <anchor x="414" y="714" name="top"/>
  <outline>
    <contour>
      <point x="150" y="310" type="line"/>
      <point x="749" y="310" type="line"/>
      <point x="749" y="384" type="line"/>
      <point x="150" y="384" type="line"/>
    </contour>
    <component base="two" xOffset="-30"/>
  </outline>
</glyph>
<glyph name="uni01BC" format="2">
  <advance width="800"/>
  <unicode hex="01BC"/>
  <anchor x="400" y="0" name="bottom"/>
  <anchor x="400" y="714" name="top"/>
  <outline>
    <contour>
      <point x="342" y="-10" type="curve" smooth="yes"/>
      <point x="569" y="-10"/>
      <point x="706" y="87"/>
      <point x="706" y="223" type="curve" smooth="yes"/>
      <point x="706" y="365"/>
      <point x="563" y="442"/>
      <point x="363" y="442" type="curve" smooth="yes"/>
      <point x="290" y="442" type="line"/>
      <point x="290" y="627" type="line"/>
      <point x="667" y="627" type="line"/>
      <point x="667" y="714" type="line"/>
      <point x="54" y="714" type="line"/>
      <point x="54" y="627" type="line"/>
      <point x="193" y="627" type="line"/>
      <point x="193" y="362" type="line"/>
      <point x="346" y="362" type="line" smooth="yes"/>
      <point x="497" y="362"/>
      <point x="604" y="319"/>
      <point x="604" y="223" type="curve" smooth="yes"/>
      <point x="604" y="125"/>
      <point x="500" y="71"/>
      <point x="341" y="71" type="curve" smooth="yes"/>
      <point x="245" y="71"/>
      <point x="166" y="88"/>
      <point x="90" y="118" type="curve"/>
      <point x="90" y="29" type="line"/>
      <point x="156" y="1"/>
      <point x="233" y="-10"/>
    </contour>
  </outline>
</glyph>
<glyph name="uni01BD" format="2">
  <advance width="800"/>
  <unicode hex="01BD"/>
  <anchor x="400" y="0" name="bottom"/>
  <anchor x="400" y="537" name="top"/>
  <outline>
    <contour>
      <point x="354" y="-10" type="curve" smooth="yes"/>
      <point x="610" y="-10"/>
      <point x="706" y="78"/>
      <point x="706" y="177" type="curve" smooth="yes"/>
      <point x="706" y="277"/>
      <point x="625" y="346"/>
      <point x="387" y="346" type="curve" smooth="yes"/>
      <point x="317" y="346" type="line"/>
      <point x="317" y="458" type="line"/>
      <point x="675" y="458" type="line"/>
      <point x="675" y="537" type="line"/>
      <point x="89" y="537" type="line"/>
      <point x="89" y="458" type="line"/>
      <point x="229" y="458" type="line"/>
      <point x="229" y="270" type="line"/>
      <point x="361" y="270" type="line" smooth="yes"/>
      <point x="543" y="270"/>
      <point x="610" y="240"/>
      <point x="610" y="173" type="curve" smooth="yes"/>
      <point x="610" y="98"/>
      <point x="535" y="68"/>
      <point x="357" y="68" type="curve" smooth="yes"/>
      <point x="242" y="68"/>
      <point x="152" y="89"/>
      <point x="77" y="110" type="curve"/>
      <point x="77" y="25" type="line"/>
      <point x="142" y="3"/>
      <point x="233" y="-10"/>
    </contour>
  </outline>
</glyph>
<glyph name="uni01BF" format="2">
  <advance width="800"/>
  <unicode hex="01BF"/>
  <anchor x="419" y="-240" name="bottom"/>
  <anchor x="419" y="553" name="top"/>
  <outline>
    <contour>
      <point x="97" y="-240" type="line"/>
      <point x="192" y="-240" type="line"/>
      <point x="192" y="-11" type="line"/>
      <point x="531" y="4"/>
      <point x="740" y="134"/>
      <point x="740" y="322" type="curve" smooth="yes"/>
      <point x="740" y="470"/>
      <point x="621" y="547"/>
      <point x="445" y="547" type="curve" smooth="yes"/>
      <point x="304" y="547"/>
      <point x="229" y="510"/>
      <point x="192" y="465" type="curve"/>
      <point x="187" y="465" type="line"/>
      <point x="175" y="537" type="line"/>
      <point x="97" y="537" type="line"/>
    </contour>
    <contour>
      <point x="192" y="67" type="curve" smooth="yes"/>
      <point x="192" y="287" type="line"/>
      <point x="192" y="408"/>
      <point x="258" y="467"/>
      <point x="426" y="467" type="curve" smooth="yes"/>
      <point x="562" y="467"/>
      <point x="642" y="409"/>
      <point x="642" y="320" type="curve" smooth="yes"/>
      <point x="642" y="180"/>
      <point x="192" y="88"/>
    </contour>
  </outline>
</glyph>
<glyph name="uni01E4" format="2">
  <advance width="800"/>
  <unicode hex="01E4"/>
  <anchor x="438" y="0" name="bottom"/>
  <anchor x="455" y="714" name="top"/>
  <outline>
    <contour>
      <point x="449" y="-10" type="curve" smooth="yes"/>
      <point x="546" y="-10"/>
      <point x="641" y="7"/>
      <point x="717" y="27" type="curve"/>
      <point x="717" y="391" type="line"/>
      <point x="385" y="391" type="line"/>
      <point x="385" y="308" type="line"/>
      <point x="624" y="308" type="line"/>
      <point x="624" y="90" type="line"/>
      <point x="577" y="83"/>
      <point x="520" y="75"/>
      <point x="452" y="75" type="curve" smooth="yes"/>
      <point x="237" y="75"/>
      <point x="138" y="193"/>
      <point x="138" y="350" type="curve" smooth="yes"/>
      <point x="138" y="534"/>
      <point x="252" y="637"/>
      <point x="468" y="637" type="curve" smooth="yes"/>
      <point x="537" y="637"/>
      <point x="609" y="623"/>
      <point x="671" y="601" type="curve"/>
      <point x="706" y="682" type="line"/>
      <point x="634" y="709"/>
      <point x="553" y="724"/>
      <point x="466" y="724" type="curve" smooth="yes"/>
      <point x="189" y="724"/>
      <point x="39" y="585"/>
      <point x="39" y="346" type="curve" smooth="yes"/>
      <point x="39" y="115"/>
      <point x="178" y="-10"/>
    </contour>
    <contour>
      <point x="385" y="160" type="line"/>
      <point x="829" y="160" type="line"/>
      <point x="829" y="234" type="line"/>
      <point x="385" y="234" type="line"/>
    </contour>
  </outline>
</glyph>
<glyph name="uni021C" format="2">
  <advance width="800"/>
  <unicode hex="021C"/>
  <anchor x="400" y="-105" name="bottom"/>
  <anchor x="388" y="714" name="top"/>
  <outline>
    <contour>
      <point x="78" y="-180" type="line"/>
      <point x="541" y="-98"/>
      <point x="736" y="-4"/>
      <point x="736" y="183" type="curve" smooth="yes"/>
      <point x="736" y="286"/>
      <point x="650" y="342"/>
      <point x="545" y="374" type="curve"/>
      <point x="648" y="413"/>
      <point x="715" y="466"/>
      <point x="715" y="543" type="curve" smooth="yes"/>
      <point x="715" y="675"/>
      <point x="568" y="724"/>
      <point x="404" y="724" type="curve" smooth="yes"/>
      <point x="283" y="724"/>
      <point x="184" y="704"/>
      <point x="87" y="652" type="curve"/>
      <point x="134" y="585" type="line"/>
      <point x="212" y="624"/>
      <point x="295" y="644"/>
      <point x="401" y="644" type="curve" smooth="yes"/>
      <point x="517" y="644"/>
      <point x="615" y="605"/>
      <point x="615" y="539" type="curve" smooth="yes"/>
      <point x="615" y="451"/>
      <point x="486" y="416"/>
      <point x="226" y="366" type="curve"/>
      <point x="244" y="290" type="line"/>
      <point x="322" y="303"/>
      <point x="395" y="317"/>
      <point x="460" y="334" type="curve"/>
      <point x="571" y="300"/>
      <point x="635" y="260"/>
      <point x="635" y="183" type="curve" smooth="yes"/>
      <point x="635" y="67"/>
      <point x="497" y="-12"/>
      <point x="78" y="-87" type="curve"/>
    </contour>
  </outline>
</glyph>
<glyph name="uni021D" format="2">
  <advance width="800"/>
  <unicode hex="021D"/>
  <anchor x="370" y="-176" name="bottom"/>
  <anchor x="362" y="537" name="top"/>
  <outline>
    <contour>
      <point x="50" y="-240" type="line"/>
      <point x="453" y="-195"/>
      <point x="728" y="-109"/>
      <point x="728" y="67" type="curve" smooth="yes"/>
      <point x="728" y="157"/>
      <point x="641" y="204"/>
      <point x="538" y="233" type="curve"/>
      <point x="634" y="268"/>
      <point x="690" y="317"/>
      <point x="690" y="379" type="curve" smooth="yes"/>
      <point x="690" y="498"/>
      <point x="555" y="547"/>
      <point x="375" y="547" type="curve" smooth="yes"/>
      <point x="269" y="547"/>
      <point x="170" y="535"/>
      <point x="79" y="502" type="curve"/>
      <point x="111" y="431" type="line"/>
      <point x="188" y="456"/>
      <point x="277" y="470"/>
      <point x="374" y="470" type="curve" smooth="yes"/>
      <point x="497" y="470"/>
      <point x="594" y="438"/>
      <point x="594" y="379" type="curve" smooth="yes"/>
      <point x="594" y="312"/>
      <point x="495" y="270"/>
      <point x="208" y="225" type="curve"/>
      <point x="230" y="153" type="line"/>
      <point x="311" y="165"/>
      <point x="385" y="178"/>
      <point x="450" y="195" type="curve"/>
      <point x="564" y="168"/>
      <point x="632" y="133"/>
      <point x="632" y="68" type="curve" smooth="yes"/>
      <point x="632" y="-44"/>
      <point x="423" y="-110"/>
      <point x="50" y="-155" type="curve"/>
    </contour>
  </outline>
</glyph>
<glyph name="uni0221" format="2">
  <advance width="800"/>
  <unicode hex="0221"/>
  <anchor x="438" y="-102" name="bottom"/>
  <anchor x="438" y="760" name="top"/>
  <outline>
    <contour>
      <point x="515" y="-102" type="line"/>
      <point x="518" y="-67"/>
      <point x="526" y="-23"/>
      <point x="534" y="5" type="curve"/>
      <point x="561" y="1"/>
      <point x="590" y="-2"/>
      <point x="628" y="-2" type="curve" smooth="yes"/>
      <point x="744" y="-2"/>
      <point x="803" y="52"/>
      <point x="803" y="124" type="curve" smooth="yes"/>
      <point x="803" y="191"/>
      <point x="743" y="229"/>
      <point x="664" y="229" type="curve" smooth="yes"/>
      <point x="568" y="229"/>
      <point x="520" y="189"/>
      <point x="492" y="114" type="curve"/>
      <point x="473" y="130"/>
      <point x="466" y="148"/>
      <point x="466" y="167" type="curve"/>
      <point x="466" y="760" type="line"/>
      <point x="379" y="760" type="line"/>
      <point x="379" y="566" type="line" smooth="yes"/>
      <point x="379" y="544"/>
      <point x="381" y="525"/>
      <point x="383" y="500" type="curve"/>
      <point x="379" y="500" type="line"/>
      <point x="356" y="529"/>
      <point x="314" y="548"/>
      <point x="239" y="548" type="curve" smooth="yes"/>
      <point x="103" y="548"/>
      <point x="20" y="468"/>
      <point x="20" y="269" type="curve" smooth="yes"/>
      <point x="20" y="68"/>
      <point x="94" y="-10"/>
      <point x="232" y="-10" type="curve" smooth="yes"/>
      <point x="316" y="-10"/>
      <point x="372" y="17"/>
      <point x="396" y="75" type="curve"/>
      <point x="402" y="75" type="line"/>
      <point x="410" y="55"/>
      <point x="437" y="36"/>
      <point x="467" y="24" type="curve"/>
      <point x="457" y="-9"/>
      <point x="449" y="-56"/>
      <point x="444" y="-97" type="curve"/>
    </contour>
    <contour>
      <point x="250" y="63" type="curve" smooth="yes"/>
      <point x="154" y="63"/>
      <point x="109" y="114"/>
      <point x="109" y="269" type="curve" smooth="yes"/>
      <point x="109" y="420"/>
      <point x="159" y="472"/>
      <point x="251" y="472" type="curve" smooth="yes"/>
      <point x="328" y="472"/>
      <point x="379" y="430"/>
      <point x="379" y="276" type="curve" smooth="yes"/>
      <point x="379" y="246" type="line" smooth="yes"/>
      <point x="379" y="113"/>
      <point x="330" y="63"/>
    </contour>
    <contour>
      <point x="629" y="63" type="curve" smooth="yes"/>
      <point x="601" y="63"/>
      <point x="573" y="66"/>
      <point x="547" y="70" type="curve"/>
      <point x="568" y="137"/>
      <point x="593" y="165"/>
      <point x="657" y="165" type="curve" smooth="yes"/>
      <point x="700" y="165"/>
      <point x="723" y="150"/>
      <point x="723" y="119" type="curve" smooth="yes"/>
      <point x="723" y="87"/>
      <point x="688" y="63"/>
    </contour>
  </outline>
</glyph>
<glyph name="uni0224" format="2">
  <advance width="800"/>
  <unicode hex="0224"/>
  <anchor x="446" y="-240" name="bottom"/>
  <anchor x="400" y="714" name="top"/>
  <anchor x="772" y="714" name="topright"/>
  <outline>
    <contour>
      <point x="574" y="-203" type="curve" smooth="yes"/>
      <point x="674" y="-203"/>
      <point x="721" y="-151"/>
      <point x="721" y="-63" type="curve" smooth="yes"/>
      <point x="721" y="86" type="line"/>
      <point x="609" y="86" type="line"/>
      <point x="609" y="0" type="line"/>
      <point x="634" y="0" type="line"/>
      <point x="634" y="-66" type="line" smooth="yes"/>
      <point x="634" y="-106"/>
      <point x="608" y="-122"/>
      <point x="562" y="-122" type="curve" smooth="yes"/>
      <point x="536" y="-122"/>
      <point x="512" y="-117"/>
      <point x="495" y="-113" type="curve"/>
      <point x="495" y="-191" type="line"/>
      <point x="512" y="-196"/>
      <point x="542" y="-203"/>
    </contour>
    <component base="Z" xOffset="-30"/>
  </outline>
</glyph>
<glyph name="uni0225" format="2">
  <advance width="800"/>
  <unicode hex="0225"/>
  <anchor x="447" y="-240" name="bottom"/>
  <anchor x="400" y="537" name="top"/>
  <anchor x="771" y="537" name="topright"/>
  <outline>
    <contour>
      <point x="556" y="-204" type="curve" smooth="yes"/>
      <point x="656" y="-204"/>
      <point x="703" y="-152"/>
      <point x="703" y="-64" type="curve" smooth="yes"/>
      <point x="703" y="81" type="line"/>
      <point x="591" y="81" type="line"/>
      <point x="591" y="0" type="line"/>
      <point x="616" y="0" type="line"/>
      <point x="616" y="-66" type="line" smooth="yes"/>
      <point x="616" y="-107"/>
      <point x="590" y="-124"/>
      <point x="545" y="-124" type="curve" smooth="yes"/>
      <point x="518" y="-124"/>
      <point x="494" y="-119"/>
      <point x="477" y="-115" type="curve"/>
      <point x="477" y="-192" type="line"/>
      <point x="494" y="-197"/>
      <point x="524" y="-204"/>
    </contour>
    <component base="z" xOffset="-30"/>
  </outline>
</glyph>
<glyph name="uni0234" format="2">
  <advance width="800"/>
  <unicode hex="0234"/>
  <anchor x="466" y="0" name="bottom"/>
  <anchor x="264" y="760" name="top"/>
  <outline>
    <contour>
      <point x="142" y="-31" type="line"/>
      <point x="159" y="3"/>
      <point x="202" y="53"/>
      <point x="238" y="75" type="curve"/>
      <point x="260" y="34"/>
      <point x="326" y="-10"/>
      <point x="467" y="-10" type="curve" smooth="yes"/>
      <point x="621" y="-10"/>
      <point x="697" y="47"/>
      <point x="697" y="114" type="curve" smooth="yes"/>
      <point x="697" y="187"/>
      <point x="631" y="235"/>
      <point x="484" y="235" type="curve" smooth="yes"/>
      <point x="402" y="235"/>
      <point x="343" y="224"/>
      <point x="311" y="215" type="curve"/>
      <point x="311" y="760" type="line"/>
      <point x="216" y="760" type="line"/>
      <point x="216" y="216" type="line" smooth="yes"/>
      <point x="216" y="192"/>
      <point x="217" y="176"/>
      <point x="219" y="157" type="curve"/>
      <point x="152" y="122"/>
      <point x="94" y="52"/>
      <point x="69" y="-4" type="curve"/>
    </contour>
    <contour>
      <point x="474" y="61" type="curve" smooth="yes"/>
      <point x="367" y="61"/>
      <point x="323" y="93"/>
      <point x="314" y="139" type="curve"/>
      <point x="345" y="150"/>
      <point x="400" y="163"/>
      <point x="476" y="163" type="curve" smooth="yes"/>
      <point x="570" y="163"/>
      <point x="611" y="145"/>
      <point x="611" y="114" type="curve" smooth="yes"/>
      <point x="611" y="85"/>
      <point x="571" y="61"/>
    </contour>
  </outline>
</glyph>
<glyph name="uni0236" format="2">
  <advance width="800"/>
  <unicode hex="0236"/>
  <anchor x="503" y="0" name="bottom"/>
  <anchor x="346" y="679" name="top"/>
  <outline>
    <contour>
      <point x="215" y="-25" type="line"/>
      <point x="234" y="6"/>
      <point x="272" y="38"/>
      <point x="306" y="60" type="curve"/>
      <point x="330" y="23"/>
      <point x="394" y="-10"/>
      <point x="518" y="-10" type="curve" smooth="yes"/>
      <point x="652" y="-10"/>
      <point x="730" y="46"/>
      <point x="730" y="118" type="curve" smooth="yes"/>
      <point x="730" y="183"/>
      <point x="668" y="234"/>
      <point x="533" y="234" type="curve" smooth="yes"/>
      <point x="461" y="234"/>
      <point x="409" y="225"/>
      <point x="376" y="214" type="curve"/>
      <point x="376" y="457" type="line"/>
      <point x="679" y="457" type="line"/>
      <point x="679" y="537" type="line"/>
      <point x="376" y="537" type="line"/>
      <point x="376" y="679" type="line"/>
      <point x="298" y="679" type="line"/>
      <point x="280" y="540" type="line"/>
      <point x="55" y="521" type="line"/>
      <point x="55" y="457" type="line"/>
      <point x="279" y="457" type="line"/>
      <point x="279" y="210" type="line" smooth="yes"/>
      <point x="279" y="185"/>
      <point x="280" y="163"/>
      <point x="282" y="148" type="curve"/>
      <point x="229" y="118"/>
      <point x="170" y="64"/>
      <point x="139" y="2" type="curve"/>
    </contour>
    <contour>
      <point x="526" y="61" type="curve" smooth="yes"/>
      <point x="431" y="61"/>
      <point x="386" y="95"/>
      <point x="381" y="137" type="curve"/>
      <point x="409" y="151"/>
      <point x="458" y="163"/>
      <point x="525" y="163" type="curve" smooth="yes"/>
      <point x="608" y="163"/>
      <point x="644" y="143"/>
      <point x="644" y="113" type="curve" smooth="yes"/>
      <point x="644" y="84"/>
      <point x="606" y="61"/>
    </contour>
  </outline>
</glyph>
<glyph name="jdotless" format="2">
  <advance width="800"/>
  <unicode hex="0237"/>
  <anchor x="400" y="-245" name="bottom"/>
  <anchor x="457" y="537" name="top"/>
  <outline>
    <contour>
      <point x="252" y="-245" type="curve" smooth="yes"/>
      <point x="420" y="-245"/>
      <point x="518" y="-175"/>
      <point x="518" y="-49" type="curve" smooth="yes"/>
      <point x="518" y="537" type="line"/>
      <point x="162" y="537" type="line"/>
      <point x="162" y="470" type="line"/>
      <point x="421" y="457" type="line"/>
      <point x="421" y="-32" type="line" smooth="yes"/>
      <point x="421" y="-123"/>
      <point x="367" y="-165"/>
      <point x="242" y="-165" type="curve" smooth="yes"/>
      <point x="185" y="-165"/>
      <point x="109" y="-156"/>
      <point x="66" y="-144" type="curve"/>
      <point x="66" y="-227" type="line"/>
      <point x="106" y="-238"/>
      <point x="186" y="-245"/>
    </contour>
  </outline>
</glyph>
<glyph name="uni0238" format="2">
  <advance width="800"/>
  <unicode hex="0238"/>
  <anchor x="401" y="0" name="bottom"/>
  <anchor x="403" y="760" name="top"/>
  <outline>
    <contour>
      <point x="231" y="-10" type="curve" smooth="yes"/>
      <point x="319" y="-10"/>
      <point x="373" y="24"/>
      <point x="399" y="94" type="curve"/>
      <point x="427" y="24"/>
      <point x="481" y="-10"/>
      <point x="571" y="-10" type="curve" smooth="yes"/>
      <point x="718" y="-10"/>
      <point x="778" y="99"/>
      <point x="778" y="270" type="curve" smooth="yes"/>
      <point x="778" y="466"/>
      <point x="714" y="546"/>
      <point x="587" y="546" type="curve" smooth="yes"/>
      <point x="516" y="546"/>
      <point x="469" y="526"/>
      <point x="442" y="485" type="curve"/>
      <point x="438" y="485" type="line"/>
      <point x="440" y="514"/>
      <point x="441" y="524"/>
      <point x="441" y="545" type="curve" smooth="yes"/>
      <point x="441" y="760" type="line"/>
      <point x="359" y="760" type="line"/>
      <point x="359" y="545" type="line" smooth="yes"/>
      <point x="359" y="524"/>
      <point x="360" y="516"/>
      <point x="362" y="485" type="curve"/>
      <point x="358" y="485" type="line"/>
      <point x="334" y="526"/>
      <point x="288" y="547"/>
      <point x="212" y="547" type="curve" smooth="yes"/>
      <point x="89" y="547"/>
      <point x="21" y="464"/>
      <point x="21" y="270" type="curve" smooth="yes"/>
      <point x="21" y="97"/>
      <point x="82" y="-10"/>
    </contour>
    <contour>
      <point x="230" y="64" type="curve" smooth="yes"/>
      <point x="150" y="64"/>
      <point x="107" y="124"/>
      <point x="107" y="269" type="curve" smooth="yes"/>
      <point x="107" y="410"/>
      <point x="147" y="472"/>
      <point x="228" y="472" type="curve" smooth="yes"/>
      <point x="320" y="472"/>
      <point x="359" y="420"/>
      <point x="359" y="269" type="curve" smooth="yes"/>
      <point x="359" y="120"/>
      <point x="318" y="64"/>
    </contour>
    <contour>
      <point x="573" y="65" type="curve" smooth="yes"/>
      <point x="483" y="65"/>
      <point x="440" y="119"/>
      <point x="440" y="269" type="curve" smooth="yes"/>
      <point x="440" y="398"/>
      <point x="475" y="472"/>
      <point x="572" y="472" type="curve" smooth="yes"/>
      <point x="655" y="472"/>
      <point x="692" y="412"/>
      <point x="692" y="271" type="curve" smooth="yes"/>
      <point x="692" y="120"/>
      <point x="649" y="65"/>
    </contour>
  </outline>
</glyph>
<glyph name="uni023A" format="2">
  <advance width="800"/>
  <unicode hex="023A"/>
  <anchor x="400" y="-75" name="bottom"/>
  <anchor x="400" y="760" name="top"/>
  <anchor x="713" y="10" name="ogonek"/>
  <anchor x="771" y="714" name="topright"/>
  <outline>
    <contour>
      <point x="195" y="-75" type="line"/>
      <point x="270" y="-75" type="line"/>
      <point x="651" y="760" type="line"/>
      <point x="576" y="760" type="line"/>
    </contour>
    <component base="A" xOffset="-30"/>
  </outline>
</glyph>
<glyph name="uni023C" format="2">
  <advance width="800"/>
  <unicode hex="023C"/>
  <anchor x="400" y="-208" name="bottom"/>
  <anchor x="429" y="760" name="top"/>
  <anchor x="771" y="537" name="topright"/>
  <outline>
    <contour>
      <point x="154" y="-208" type="line"/>
      <point x="229" y="-208" type="line"/>
      <point x="712" y="760" type="line"/>
      <point x="637" y="760" type="line"/>
    </contour>
    <component base="c" xOffset="-30"/>
  </outline>
</glyph>
<glyph name="uni0247" format="2">
  <advance width="800"/>
  <unicode hex="0247"/>
  <anchor x="399" y="-208" name="bottom"/>
  <anchor x="399" y="760" name="top"/>
  <anchor x="384" y="10" name="ogonek"/>
  <anchor x="772" y="537" name="topright"/>
  <outline>
    <contour>
      <point x="115" y="-208" type="line"/>
      <point x="190" y="-208" type="line"/>
      <point x="673" y="760" type="line"/>
      <point x="598" y="760" type="line"/>
    </contour>
    <component base="e" xOffset="-30"/>
  </outline>
</glyph>
<glyph name="uni0249" format="2">
  <advance width="800"/>
  <unicode hex="0249"/>
  <anchor x="400" y="-245" name="bottom"/>
  <anchor x="459" y="761" name="top"/>
  <anchor x="771" y="761" name="topright"/>
  <outline>
    <contour>
      <point x="226" y="223" type="line"/>
      <point x="700" y="223" type="line"/>
      <point x="700" y="298" type="line"/>
      <point x="226" y="298" type="line"/>
    </contour>
    <component base="j" xOffset="-30"/>
  </outline>
</glyph>
<glyph name="uni024A" format="2">
  <advance width="800"/>
  <unicode hex="024A"/>
  <anchor x="400" y="-240" name="bottom"/>
  <anchor x="400" y="714" name="top"/>
  <outline>
    <contour>
      <point x="802" y="-240" type="curve" smooth="yes"/>
      <point x="840" y="-240"/>
      <point x="866" y="-235"/>
      <point x="887" y="-227" type="curve"/>
      <point x="887" y="-146" type="line"/>
      <point x="866" y="-152"/>
      <point x="844" y="-156"/>
      <point x="817" y="-156" type="curve" smooth="yes"/>
      <point x="751" y="-156"/>
      <point x="717" y="-138"/>
      <point x="717" y="-76" type="curve" smooth="yes"/>
      <point x="717" y="124" type="line"/>
      <point x="625" y="91" type="line"/>
      <point x="622" y="67"/>
      <point x="620" y="44"/>
      <point x="620" y="17" type="curve" smooth="yes"/>
      <point x="620" y="-81" type="line"/>
      <point x="620" y="-193"/>
      <point x="687" y="-240"/>
    </contour>
    <component base="uni2C6D" xOffset="-30"/>
  </outline>
</glyph>
<glyph name="uni024D" format="2">
  <advance width="800"/>
  <unicode hex="024D"/>
  <anchor x="400" y="0" name="bottom"/>
  <anchor x="400" y="537" name="top"/>
  <anchor x="771" y="537" name="topright"/>
  <outline>
    <contour>
      <point x="132" y="211" type="line"/>
      <point x="609" y="211" type="line"/>
      <point x="609" y="287" type="line"/>
      <point x="132" y="287" type="line"/>
    </contour>
    <component base="r" xOffset="-30"/>
  </outline>
</glyph>
<glyph name="uni0255" format="2">
  <advance width="800"/>
  <unicode hex="0255"/>
  <anchor x="399" y="0" name="bottom"/>
  <anchor x="399" y="537" name="top"/>
  <outline>
    <contour>
      <point x="158" y="-50" type="line"/>
      <point x="173" y="-17"/>
      <point x="190" y="12"/>
      <point x="211" y="37" type="curve"/>
      <point x="269" y="5"/>
      <point x="349" y="-10"/>
      <point x="459" y="-10" type="curve" smooth="yes"/>
      <point x="603" y="-10"/>
      <point x="710" y="32"/>
      <point x="710" y="135" type="curve" smooth="yes"/>
      <point x="710" y="208"/>
      <point x="632" y="258"/>
      <point x="494" y="258" type="curve" smooth="yes"/>
      <point x="373" y="258"/>
      <point x="280" y="231"/>
      <point x="222" y="184" type="curve"/>
      <point x="200" y="208"/>
      <point x="191" y="236"/>
      <point x="191" y="268" type="curve" smooth="yes"/>
      <point x="191" y="401"/>
      <point x="290" y="464"/>
      <point x="477" y="464" type="curve" smooth="yes"/>
      <point x="554" y="464"/>
      <point x="615" y="450"/>
      <point x="665" y="433" type="curve"/>
      <point x="693" y="510" type="line"/>
      <point x="644" y="528"/>
      <point x="569" y="547"/>
      <point x="475" y="547" type="curve" smooth="yes"/>
      <point x="234" y="547"/>
      <point x="92" y="460"/>
      <point x="92" y="266" type="curve" smooth="yes"/>
      <point x="92" y="195"/>
      <point x="114" y="139"/>
      <point x="155" y="97" type="curve"/>
      <point x="127" y="63"/>
      <point x="103" y="24"/>
      <point x="86" y="-18" type="curve"/>
    </contour>
    <contour>
      <point x="459" y="68" type="curve" smooth="yes"/>
      <point x="365" y="68"/>
      <point x="302" y="84"/>
      <point x="260" y="113" type="curve"/>
      <point x="314" y="163"/>
      <point x="391" y="183"/>
      <point x="486" y="183" type="curve" smooth="yes"/>
      <point x="581" y="183"/>
      <point x="621" y="158"/>
      <point x="621" y="133" type="curve" smooth="yes"/>
      <point x="621" y="93"/>
      <point x="565" y="68"/>
    </contour>
  </outline>
</glyph>
<glyph name="uni0257" format="2">
  <advance width="800"/>
  <unicode hex="0257"/>
  <anchor x="400" y="0" name="bottom"/>
  <anchor x="400" y="765" name="top"/>
  <outline>
    <contour>
      <point x="364" y="-10" type="curve" smooth="yes"/>
      <point x="494" y="-10"/>
      <point x="566" y="23"/>
      <point x="608" y="72" type="curve"/>
      <point x="613" y="72" type="line"/>
      <point x="624" y="0" type="line"/>
      <point x="703" y="0" type="line"/>
      <point x="703" y="626" type="line" smooth="yes"/>
      <point x="703" y="668"/>
      <point x="730" y="683"/>
      <point x="779" y="683" type="curve" smooth="yes"/>
      <point x="803" y="683"/>
      <point x="822" y="680"/>
      <point x="840" y="676" type="curve"/>
      <point x="840" y="755" type="line"/>
      <point x="821" y="761"/>
      <point x="796" y="765"/>
      <point x="765" y="765" type="curve" smooth="yes"/>
      <point x="670" y="765"/>
      <point x="608" y="717"/>
      <point x="608" y="624" type="curve" smooth="yes"/>
      <point x="608" y="552" type="line" smooth="yes"/>
      <point x="608" y="527"/>
      <point x="610" y="496"/>
      <point x="614" y="469" type="curve"/>
      <point x="608" y="469" type="line"/>
      <point x="572" y="515"/>
      <point x="500" y="547"/>
      <point x="376" y="547" type="curve" smooth="yes"/>
      <point x="166" y="547"/>
      <point x="56" y="447"/>
      <point x="56" y="271" type="curve" smooth="yes"/>
      <point x="56" y="85"/>
      <point x="168" y="-10"/>
    </contour>
    <contour>
      <point x="383" y="68" type="curve" smooth="yes"/>
      <point x="230" y="68"/>
      <point x="155" y="133"/>
      <point x="155" y="263" type="curve" smooth="yes"/>
      <point x="155" y="402"/>
      <point x="240" y="469"/>
      <point x="389" y="469" type="curve" smooth="yes"/>
      <point x="546" y="469"/>
      <point x="608" y="382"/>
      <point x="608" y="267" type="curve" smooth="yes"/>
      <point x="608" y="248" type="line" smooth="yes"/>
      <point x="608" y="138"/>
      <point x="541" y="68"/>
    </contour>
  </outline>
</glyph>
<glyph name="schwahook" format="2">
  <advance width="800"/>
  <unicode hex="025A"/>
  <anchor x="288" y="0" name="bottom"/>
  <anchor x="288" y="537" name="top"/>
  <outline>
    <contour>
      <point x="279" y="-10" type="curve" smooth="yes"/>
      <point x="472" y="-10"/>
      <point x="547" y="104"/>
      <point x="548" y="291" type="curve"/>
      <point x="591" y="297" type="line"/>
      <point x="602" y="206"/>
      <point x="646" y="178"/>
      <point x="727" y="178" type="curve" smooth="yes"/>
      <point x="776" y="178"/>
      <point x="808" y="192"/>
      <point x="830" y="207" type="curve"/>
      <point x="801" y="254" type="line"/>
      <point x="784" y="245"/>
      <point x="764" y="237"/>
      <point x="732" y="237" type="curve" smooth="yes"/>
      <point x="683" y="237"/>
      <point x="659" y="260"/>
      <point x="651" y="327" type="curve" smooth="yes"/>
      <point x="645" y="376" type="line"/>
      <point x="543" y="357" type="line"/>
      <point x="526" y="471"/>
      <point x="436" y="547"/>
      <point x="275" y="547" type="curve" smooth="yes"/>
      <point x="190" y="547"/>
      <point x="130" y="531"/>
      <point x="85" y="513" type="curve"/>
      <point x="85" y="440" type="line"/>
      <point x="134" y="463"/>
      <point x="191" y="476"/>
      <point x="263" y="476" type="curve" smooth="yes"/>
      <point x="388" y="476"/>
      <point x="449" y="428"/>
      <point x="460" y="332" type="curve"/>
      <point x="53" y="243" type="line"/>
      <point x="53" y="63"/>
      <point x="122" y="-10"/>
    </contour>
    <contour>
      <point x="283" y="60" type="curve" smooth="yes"/>
      <point x="168" y="60"/>
      <point x="140" y="117"/>
      <point x="138" y="206" type="curve"/>
      <point x="463" y="266" type="line"/>
      <point x="463" y="151"/>
      <point x="413" y="60"/>
    </contour>
  </outline>
</glyph>
<glyph name="uni0262" format="2">
  <advance width="800"/>
  <unicode hex="0262"/>
  <anchor x="443" y="0" name="bottom"/>
  <anchor x="443" y="537" name="top"/>
  <outline>
    <contour>
      <point x="434" y="-10" type="curve" smooth="yes"/>
      <point x="540" y="-10"/>
      <point x="621" y="4"/>
      <point x="704" y="28" type="curve"/>
      <point x="704" y="300" type="line"/>
      <point x="418" y="300" type="line"/>
      <point x="418" y="226" type="line"/>
      <point x="613" y="226" type="line"/>
      <point x="613" y="83" type="line"/>
      <point x="563" y="73"/>
      <point x="509" y="70"/>
      <point x="438" y="70" type="curve" smooth="yes"/>
      <point x="255" y="70"/>
      <point x="151" y="140"/>
      <point x="151" y="266" type="curve" smooth="yes"/>
      <point x="151" y="400"/>
      <point x="271" y="467"/>
      <point x="462" y="467" type="curve" smooth="yes"/>
      <point x="534" y="467"/>
      <point x="603" y="453"/>
      <point x="663" y="432" type="curve"/>
      <point x="697" y="510" type="line"/>
      <point x="635" y="535"/>
      <point x="556" y="547"/>
      <point x="459" y="547" type="curve" smooth="yes"/>
      <point x="224" y="547"/>
      <point x="56" y="461"/>
      <point x="56" y="266" type="curve" smooth="yes"/>
      <point x="56" y="77"/>
      <point x="209" y="-10"/>
    </contour>
  </outline>
</glyph>
<glyph name="uni0263" format="2">
  <advance width="800"/>
  <unicode hex="0263"/>
  <anchor x="400" y="-238" name="bottom"/>
  <anchor x="400" y="537" name="top"/>
  <outline>
    <contour>
      <point x="397" y="-238" type="curve" smooth="yes"/>
      <point x="507" y="-238"/>
      <point x="572" y="-184"/>
      <point x="572" y="-108" type="curve" smooth="yes"/>
      <point x="572" y="-45"/>
      <point x="526" y="13"/>
      <point x="459" y="83" type="curve"/>
      <point x="797" y="537" type="line"/>
      <point x="687" y="537" type="line"/>
      <point x="496" y="303" type="line" smooth="yes"/>
      <point x="463" y="262"/>
      <point x="419" y="188"/>
      <point x="403" y="152" type="curve"/>
      <point x="397" y="152" type="line"/>
      <point x="380" y="189"/>
      <point x="338" y="263"/>
      <point x="306" y="303" type="curve" smooth="yes"/>
      <point x="114" y="537" type="line"/>
      <point x="4" y="537" type="line"/>
      <point x="342" y="84" type="line"/>
      <point x="279" y="20"/>
      <point x="225" y="-38"/>
      <point x="225" y="-108" type="curve" smooth="yes"/>
      <point x="225" y="-185"/>
      <point x="292" y="-238"/>
    </contour>
    <contour>
      <point x="399" y="-161" type="curve" smooth="yes"/>
      <point x="348" y="-161"/>
      <point x="316" y="-142"/>
      <point x="316" y="-104" type="curve" smooth="yes"/>
      <point x="316" y="-73"/>
      <point x="349" y="-29"/>
      <point x="399" y="11" type="curve"/>
      <point x="448" y="-30"/>
      <point x="481" y="-74"/>
      <point x="481" y="-105" type="curve" smooth="yes"/>
      <point x="481" y="-143"/>
      <point x="451" y="-161"/>
    </contour>
  </outline>
</glyph>
<glyph name="uni0264" format="2">
  <advance width="800"/>
  <unicode hex="0264"/>
  <anchor x="400" y="0" name="bottom"/>
  <anchor x="400" y="537" name="top"/>
  <outline>
    <contour>
      <point x="398" y="-9" type="curve" smooth="yes"/>
      <point x="491" y="-9"/>
      <point x="548" y="34"/>
      <point x="548" y="110" type="curve" smooth="yes"/>
      <point x="548" y="161"/>
      <point x="513" y="201"/>
      <point x="452" y="263" type="curve"/>
      <point x="612" y="421" type="line" smooth="yes"/>
      <point x="654" y="462"/>
      <point x="677" y="470"/>
      <point x="718" y="470" type="curve" smooth="yes"/>
      <point x="737" y="470"/>
      <point x="758" y="467"/>
      <point x="770" y="465" type="curve"/>
      <point x="770" y="538" type="line"/>
      <point x="754" y="544"/>
      <point x="733" y="547"/>
      <point x="704" y="547" type="curve" smooth="yes"/>
      <point x="638" y="547"/>
      <point x="601" y="523"/>
      <point x="554" y="481" type="curve" smooth="yes"/>
      <point x="462" y="398" type="line" smooth="yes"/>
      <point x="437" y="375"/>
      <point x="416" y="344"/>
      <point x="402" y="321" type="curve"/>
      <point x="398" y="321" type="line"/>
      <point x="383" y="348"/>
      <point x="354" y="386"/>
      <point x="339" y="399" type="curve" smooth="yes"/>
      <point x="248" y="480" type="line" smooth="yes"/>
      <point x="196" y="528"/>
      <point x="162" y="547"/>
      <point x="101" y="547" type="curve" smooth="yes"/>
      <point x="68" y="547"/>
      <point x="45" y="542"/>
      <point x="29" y="537" type="curve"/>
      <point x="29" y="465" type="line"/>
      <point x="39" y="467"/>
      <point x="56" y="470"/>
      <point x="82" y="470" type="curve" smooth="yes"/>
      <point x="121" y="470"/>
      <point x="146" y="461"/>
      <point x="181" y="426" type="curve" smooth="yes"/>
      <point x="346" y="263" type="line"/>
      <point x="291" y="207"/>
      <point x="248" y="165"/>
      <point x="248" y="109" type="curve" smooth="yes"/>
      <point x="248" y="34"/>
      <point x="305" y="-9"/>
    </contour>
    <contour>
      <point x="397" y="66" type="curve" smooth="yes"/>
      <point x="361" y="66"/>
      <point x="333" y="81"/>
      <point x="333" y="114" type="curve" smooth="yes"/>
      <point x="333" y="144"/>
      <point x="359" y="170"/>
      <point x="400" y="201" type="curve"/>
      <point x="436" y="177"/>
      <point x="463" y="147"/>
      <point x="463" y="114" type="curve" smooth="yes"/>
      <point x="463" y="82"/>
      <point x="433" y="66"/>
    </contour>
  </outline>
</glyph>
<glyph name="uni0268" format="2">
  <advance width="800"/>
  <unicode hex="0268"/>
  <anchor x="400" y="0" name="bottom"/>
  <anchor x="400" y="761" name="top"/>
  <anchor x="651" y="761" name="topright"/>
  <outline>
    <contour>
      <point x="176" y="232" type="line"/>
      <point x="650" y="232" type="line"/>
      <point x="650" y="307" type="line"/>
      <point x="176" y="307" type="line"/>
    </contour>
    <component base="i" xOffset="-30"/>
  </outline>
</glyph>
<glyph name="uni026A" format="2">
  <advance width="800"/>
  <unicode hex="026A"/>
  <anchor x="400" y="0" name="bottom"/>
  <anchor x="400" y="537" name="top"/>
  <outline>
    <contour>
      <point x="157" y="0" type="line"/>
      <point x="643" y="0" type="line"/>
      <point x="643" y="65" type="line"/>
      <point x="446" y="79" type="line"/>
      <point x="446" y="459" type="line"/>
      <point x="643" y="472" type="line"/>
      <point x="643" y="537" type="line"/>
      <point x="157" y="537" type="line"/>
      <point x="157" y="472" type="line"/>
      <point x="352" y="459" type="line"/>
      <point x="352" y="79" type="line"/>
      <point x="157" y="65" type="line"/>
    </contour>
  </outline>
</glyph>
<glyph name="uni026B" format="2">
  <advance width="800"/>
  <unicode hex="026B"/>
  <anchor x="428" y="0" name="bottom"/>
  <anchor x="425" y="760" name="top"/>
  <anchor x="644" y="760" name="topright"/>
  <anchor x="397" y="387" name="center"/>
  <outline>
    <contour>
      <point x="172" y="318" type="curve"/>
      <point x="232" y="318" type="line"/>
      <point x="242" y="352"/>
      <point x="271" y="375"/>
      <point x="313" y="375" type="curve" smooth="yes"/>
      <point x="392" y="375"/>
      <point x="442" y="319"/>
      <point x="535" y="319" type="curve" smooth="yes"/>
      <point x="609" y="319"/>
      <point x="670" y="364"/>
      <point x="679" y="450" type="curve"/>
      <point x="620" y="450" type="line"/>
      <point x="608" y="411"/>
      <point x="578" y="393"/>
      <point x="538" y="393" type="curve" smooth="yes"/>
      <point x="459" y="393"/>
      <point x="407" y="449"/>
      <point x="314" y="449" type="curve" smooth="yes"/>
      <point x="239" y="449"/>
      <point x="180" y="400"/>
    </contour>
    <component base="l" xOffset="-30"/>
  </outline>
</glyph>
<glyph name="uni026D" format="2">
  <advance width="800"/>
  <unicode hex="026D"/>
  <anchor x="562" y="-240" name="bottom"/>
  <anchor x="420" y="760" name="top"/>
  <outline>
    <contour>
      <point x="605" y="-240" type="curve" smooth="yes"/>
      <point x="662" y="-240"/>
      <point x="702" y="-233"/>
      <point x="728" y="-225" type="curve"/>
      <point x="728" y="-149" type="line"/>
      <point x="703" y="-156"/>
      <point x="665" y="-162"/>
      <point x="619" y="-162" type="curve" smooth="yes"/>
      <point x="512" y="-162"/>
      <point x="474" y="-111"/>
      <point x="474" y="-47" type="curve" smooth="yes"/>
      <point x="474" y="760" type="line"/>
      <point x="115" y="760" type="line"/>
      <point x="115" y="693" type="line"/>
      <point x="377" y="680" type="line"/>
      <point x="377" y="-49" type="line" smooth="yes"/>
      <point x="377" y="-181"/>
      <point x="455" y="-240"/>
    </contour>
  </outline>
</glyph>
<glyph name="uni026E" format="2">
  <advance width="800"/>
  <unicode hex="026E"/>
  <anchor x="409" y="-240" name="bottom"/>
  <anchor x="134" y="760" name="top"/>
  <outline>
    <contour>
      <point x="411" y="-240" type="curve" smooth="yes"/>
      <point x="621" y="-240"/>
      <point x="757" y="-141"/>
      <point x="757" y="3" type="curve" smooth="yes"/>
      <point x="757" y="148"/>
      <point x="631" y="220"/>
      <point x="396" y="230" type="curve"/>
      <point x="726" y="470" type="line"/>
      <point x="726" y="537" type="line"/>
      <point x="175" y="537" type="line"/>
      <point x="175" y="760" type="line"/>
      <point x="81" y="760" type="line"/>
      <point x="81" y="0" type="line"/>
      <point x="175" y="0" type="line"/>
      <point x="175" y="458" type="line"/>
      <point x="609" y="458" type="line"/>
      <point x="284" y="221" type="line"/>
      <point x="284" y="156" type="line"/>
      <point x="354" y="156" type="line" smooth="yes"/>
      <point x="550" y="156"/>
      <point x="662" y="110"/>
      <point x="662" y="1" type="curve" smooth="yes"/>
      <point x="662" y="-100"/>
      <point x="562" y="-161"/>
      <point x="413" y="-161" type="curve" smooth="yes"/>
      <point x="312" y="-161"/>
      <point x="226" y="-140"/>
      <point x="161" y="-120" type="curve"/>
      <point x="161" y="-205" type="line"/>
      <point x="224" y="-226"/>
      <point x="305" y="-240"/>
    </contour>
  </outline>
</glyph>
<glyph name="uni0270" format="2">
  <advance width="800"/>
  <unicode hex="0270"/>
  <anchor x="708" y="-240" name="bottom"/>
  <anchor x="399" y="537" name="top"/>
  <outline>
    <contour>
      <point x="662" y="-240" type="line"/>
      <point x="749" y="-240" type="line"/>
      <point x="749" y="537" type="line"/>
      <point x="662" y="537" type="line"/>
      <point x="662" y="266" type="line" smooth="yes"/>
      <point x="662" y="148"/>
      <point x="630" y="73"/>
      <point x="539" y="73" type="curve" smooth="yes"/>
      <point x="472" y="73"/>
      <point x="440" y="120"/>
      <point x="440" y="205" type="curve" smooth="yes"/>
      <point x="440" y="537" type="line"/>
      <point x="354" y="537" type="line"/>
      <point x="354" y="266" type="line" smooth="yes"/>
      <point x="354" y="138"/>
      <point x="308" y="73"/>
      <point x="229" y="73" type="curve" smooth="yes"/>
      <point x="161" y="73"/>
      <point x="135" y="121"/>
      <point x="135" y="205" type="curve" smooth="yes"/>
      <point x="135" y="537" type="line"/>
      <point x="48" y="537" type="line"/>
      <point x="48" y="187" type="line" smooth="yes"/>
      <point x="48" y="53"/>
      <point x="95" y="-10"/>
      <point x="204" y="-10" type="curve" smooth="yes"/>
      <point x="290" y="-10"/>
      <point x="336" y="19"/>
      <point x="366" y="68" type="curve"/>
      <point x="370" y="68" type="line"/>
      <point x="387" y="16"/>
      <point x="425" y="-10"/>
      <point x="512" y="-10" type="curve" smooth="yes"/>
      <point x="589" y="-10"/>
      <point x="632" y="10"/>
      <point x="656" y="60" type="curve"/>
      <point x="662" y="60" type="line"/>
    </contour>
  </outline>
</glyph>
<glyph name="uni0272" format="2">
  <advance width="800"/>
  <unicode hex="0272"/>
  <anchor x="435" y="-240" name="bottom"/>
  <anchor x="409" y="537" name="top"/>
  <outline>
    <contour>
      <point x="18" y="-240" type="curve" smooth="yes"/>
      <point x="117" y="-240"/>
      <point x="194" y="-200"/>
      <point x="194" y="-71" type="curve" smooth="yes"/>
      <point x="194" y="272" type="line" smooth="yes"/>
      <point x="194" y="396"/>
      <point x="272" y="469"/>
      <point x="427" y="469" type="curve" smooth="yes"/>
      <point x="550" y="469"/>
      <point x="613" y="428"/>
      <point x="613" y="339" type="curve" smooth="yes"/>
      <point x="613" y="0" type="line"/>
      <point x="710" y="0" type="line"/>
      <point x="710" y="358" type="line" smooth="yes"/>
      <point x="710" y="487"/>
      <point x="610" y="547"/>
      <point x="452" y="547" type="curve" smooth="yes"/>
      <point x="318" y="547"/>
      <point x="234" y="519"/>
      <point x="194" y="459" type="curve"/>
      <point x="188" y="459" type="line"/>
      <point x="175" y="537" type="line"/>
      <point x="97" y="537" type="line"/>
      <point x="97" y="-70" type="line" smooth="yes"/>
      <point x="97" y="-145"/>
      <point x="66" y="-162"/>
      <point x="1" y="-162" type="curve" smooth="yes"/>
      <point x="-25" y="-162"/>
      <point x="-56" y="-156"/>
      <point x="-77" y="-151" type="curve"/>
      <point x="-77" y="-224" type="line"/>
      <point x="-56" y="-233"/>
      <point x="-21" y="-240"/>
    </contour>
  </outline>
</glyph>
<glyph name="uni0273" format="2">
  <advance width="800"/>
  <unicode hex="0273"/>
  <anchor x="417" y="-240" name="bottom"/>
  <anchor x="415" y="537" name="top"/>
  <outline>
    <contour>
      <point x="796" y="-240" type="curve" smooth="yes"/>
      <point x="835" y="-240"/>
      <point x="874" y="-233"/>
      <point x="894" y="-224" type="curve"/>
      <point x="894" y="-151" type="line"/>
      <point x="876" y="-156"/>
      <point x="845" y="-162"/>
      <point x="813" y="-162" type="curve" smooth="yes"/>
      <point x="749" y="-162"/>
      <point x="710" y="-145"/>
      <point x="710" y="-70" type="curve" smooth="yes"/>
      <point x="710" y="358" type="line" smooth="yes"/>
      <point x="710" y="487"/>
      <point x="610" y="547"/>
      <point x="451" y="547" type="curve" smooth="yes"/>
      <point x="317" y="547"/>
      <point x="233" y="519"/>
      <point x="193" y="459" type="curve"/>
      <point x="188" y="459" type="line"/>
      <point x="174" y="537" type="line"/>
      <point x="97" y="537" type="line"/>
      <point x="97" y="0" type="line"/>
      <point x="194" y="0" type="line"/>
      <point x="194" y="272" type="line" smooth="yes"/>
      <point x="194" y="396"/>
      <point x="272" y="469"/>
      <point x="426" y="469" type="curve" smooth="yes"/>
      <point x="550" y="469"/>
      <point x="613" y="428"/>
      <point x="613" y="339" type="curve" smooth="yes"/>
      <point x="613" y="-71" type="line" smooth="yes"/>
      <point x="613" y="-201"/>
      <point x="688" y="-240"/>
    </contour>
  </outline>
</glyph>
<glyph name="uni0274" format="2">
  <advance width="800"/>
  <unicode hex="0274"/>
  <anchor x="400" y="0" name="bottom"/>
  <anchor x="400" y="537" name="top"/>
  <outline>
    <contour>
      <point x="85" y="0" type="line"/>
      <point x="173" y="0" type="line"/>
      <point x="173" y="289" type="line" smooth="yes"/>
      <point x="173" y="322"/>
      <point x="172" y="396"/>
      <point x="170" y="424" type="curve"/>
      <point x="611" y="0" type="line"/>
      <point x="714" y="0" type="line"/>
      <point x="714" y="537" type="line"/>
      <point x="626" y="537" type="line"/>
      <point x="626" y="237" type="line" smooth="yes"/>
      <point x="626" y="210"/>
      <point x="629" y="141"/>
      <point x="631" y="112" type="curve"/>
      <point x="188" y="537" type="line"/>
      <point x="85" y="537" type="line"/>
    </contour>
  </outline>
</glyph>
<glyph name="rlongleg" format="2">
  <advance width="800"/>
  <unicode hex="027C"/>
  <anchor x="372" y="-240" name="bottom"/>
  <anchor x="467" y="537" name="top"/>
  <outline>
    <contour>
      <point x="318" y="-240" type="line"/>
      <point x="415" y="-240" type="line"/>
      <point x="415" y="267" type="line" smooth="yes"/>
      <point x="415" y="375"/>
      <point x="499" y="461"/>
      <point x="639" y="461" type="curve" smooth="yes"/>
      <point x="685" y="461"/>
      <point x="729" y="452"/>
      <point x="763" y="440" type="curve"/>
      <point x="788" y="526" type="line"/>
      <point x="748" y="539"/>
      <point x="697" y="547"/>
      <point x="641" y="547" type="curve" smooth="yes"/>
      <point x="524" y="547"/>
      <point x="453" y="509"/>
      <point x="414" y="440" type="curve"/>
      <point x="408" y="440" type="line"/>
      <point x="397" y="537" type="line"/>
      <point x="104" y="537" type="line"/>
      <point x="104" y="470" type="line"/>
      <point x="318" y="457" type="line"/>
    </contour>
  </outline>
</glyph>
<glyph name="uni027D" format="2">
  <advance width="800"/>
  <unicode hex="027D"/>
  <anchor x="483" y="-240" name="bottom"/>
  <anchor x="446" y="537" name="top"/>
  <outline>
    <contour>
      <point x="522" y="-240" type="curve" smooth="yes"/>
      <point x="566" y="-240"/>
      <point x="597" y="-233"/>
      <point x="621" y="-224" type="curve"/>
      <point x="621" y="-151" type="line"/>
      <point x="599" y="-157"/>
      <point x="570" y="-162"/>
      <point x="535" y="-162" type="curve" smooth="yes"/>
      <point x="455" y="-162"/>
      <point x="415" y="-132"/>
      <point x="415" y="-70" type="curve" smooth="yes"/>
      <point x="415" y="267" type="line" smooth="yes"/>
      <point x="415" y="375"/>
      <point x="499" y="461"/>
      <point x="639" y="461" type="curve" smooth="yes"/>
      <point x="685" y="461"/>
      <point x="729" y="452"/>
      <point x="763" y="440" type="curve"/>
      <point x="788" y="526" type="line"/>
      <point x="748" y="539"/>
      <point x="697" y="547"/>
      <point x="641" y="547" type="curve" smooth="yes"/>
      <point x="524" y="547"/>
      <point x="453" y="509"/>
      <point x="414" y="440" type="curve"/>
      <point x="408" y="440" type="line"/>
      <point x="397" y="537" type="line"/>
      <point x="104" y="537" type="line"/>
      <point x="104" y="470" type="line"/>
      <point x="318" y="457" type="line"/>
      <point x="318" y="-71" type="line" smooth="yes"/>
      <point x="318" y="-200"/>
      <point x="396" y="-240"/>
    </contour>
  </outline>
</glyph>
<glyph name="uni027E" format="2">
  <advance width="800"/>
  <unicode hex="027E"/>
  <anchor x="400" y="0" name="bottom"/>
  <anchor x="488" y="537" name="top"/>
  <outline>
    <contour>
      <point x="239" y="0" type="line"/>
      <point x="334" y="0" type="line"/>
      <point x="334" y="305" type="line" smooth="yes"/>
      <point x="334" y="415"/>
      <point x="407" y="465"/>
      <point x="535" y="465" type="curve" smooth="yes"/>
      <point x="598" y="465"/>
      <point x="648" y="454"/>
      <point x="675" y="444" type="curve"/>
      <point x="695" y="525" type="line"/>
      <point x="662" y="537"/>
      <point x="606" y="548"/>
      <point x="529" y="548" type="curve" smooth="yes"/>
      <point x="352" y="548"/>
      <point x="239" y="467"/>
      <point x="239" y="316" type="curve" smooth="yes"/>
    </contour>
  </outline>
</glyph>
<glyph name="uni0280" format="2">
  <advance width="800"/>
  <unicode hex="0280"/>
  <anchor x="438" y="0" name="bottom"/>
  <anchor x="399" y="537" name="top"/>
  <outline>
    <contour>
      <point x="141" y="0" type="line"/>
      <point x="233" y="0" type="line"/>
      <point x="233" y="211" type="line"/>
      <point x="422" y="211" type="line"/>
      <point x="625" y="0" type="line"/>
      <point x="733" y="0" type="line"/>
      <point x="515" y="225" type="line"/>
      <point x="606" y="241"/>
      <point x="690" y="286"/>
      <point x="690" y="378" type="curve" smooth="yes"/>
      <point x="690" y="481"/>
      <point x="593" y="537"/>
      <point x="413" y="537" type="curve" smooth="yes"/>
      <point x="141" y="537" type="line"/>
    </contour>
    <contour>
      <point x="233" y="287" type="line"/>
      <point x="233" y="461" type="line"/>
      <point x="403" y="461" type="line" smooth="yes"/>
      <point x="542" y="461"/>
      <point x="599" y="427"/>
      <point x="599" y="377" type="curve" smooth="yes"/>
      <point x="599" y="316"/>
      <point x="531" y="287"/>
      <point x="410" y="287" type="curve" smooth="yes"/>
    </contour>
  </outline>
</glyph>
<glyph name="uni0283" format="2">
  <advance width="800"/>
  <unicode hex="0283"/>
  <anchor x="291" y="-240" name="bottom"/>
  <anchor x="548" y="763" name="top"/>
  <outline>
    <contour>
      <point x="213" y="-240" type="curve" smooth="yes"/>
      <point x="357" y="-240"/>
      <point x="452" y="-168"/>
      <point x="452" y="-40" type="curve" smooth="yes"/>
      <point x="452" y="565" type="line" smooth="yes"/>
      <point x="452" y="641"/>
      <point x="507" y="683"/>
      <point x="612" y="683" type="curve" smooth="yes"/>
      <point x="659" y="683"/>
      <point x="696" y="677"/>
      <point x="715" y="671" type="curve"/>
      <point x="715" y="752" type="line"/>
      <point x="690" y="759"/>
      <point x="654" y="765"/>
      <point x="600" y="765" type="curve" smooth="yes"/>
      <point x="453" y="765"/>
      <point x="356" y="698"/>
      <point x="356" y="566" type="curve" smooth="yes"/>
      <point x="356" y="-39" type="line" smooth="yes"/>
      <point x="356" y="-116"/>
      <point x="298" y="-156"/>
      <point x="202" y="-156" type="curve" smooth="yes"/>
      <point x="151" y="-156"/>
      <point x="112" y="-149"/>
      <point x="91" y="-142" type="curve"/>
      <point x="91" y="-226" type="line"/>
      <point x="112" y="-233"/>
      <point x="153" y="-240"/>
    </contour>
  </outline>
</glyph>
<glyph name="uni0284" format="2">
  <advance width="800"/>
  <unicode hex="0284"/>
  <anchor x="292" y="-240" name="bottom"/>
  <anchor x="529" y="765" name="top"/>
  <outline>
    <contour>
      <point x="152" y="247" type="line"/>
      <point x="655" y="247" type="line"/>
      <point x="655" y="324" type="line"/>
      <point x="152" y="324" type="line"/>
    </contour>
    <component base="uni0283" xOffset="-30"/>
  </outline>
</glyph>
<glyph name="uni0288" format="2">
  <advance width="800"/>
  <unicode hex="0288"/>
  <anchor x="400" y="-239" name="bottom"/>
  <anchor x="400" y="679" name="top"/>
  <outline>
    <contour>
      <point x="586" y="-239" type="curve" smooth="yes"/>
      <point x="644" y="-239"/>
      <point x="690" y="-231"/>
      <point x="732" y="-222" type="curve"/>
      <point x="732" y="-145" type="line"/>
      <point x="693" y="-153"/>
      <point x="644" y="-160"/>
      <point x="595" y="-160" type="curve" smooth="yes"/>
      <point x="468" y="-160"/>
      <point x="422" y="-127"/>
      <point x="422" y="-45" type="curve" smooth="yes"/>
      <point x="422" y="457" type="line"/>
      <point x="726" y="457" type="line"/>
      <point x="726" y="537" type="line"/>
      <point x="422" y="537" type="line"/>
      <point x="422" y="679" type="line"/>
      <point x="345" y="679" type="line"/>
      <point x="327" y="540" type="line"/>
      <point x="102" y="521" type="line"/>
      <point x="102" y="457" type="line"/>
      <point x="326" y="457" type="line"/>
      <point x="326" y="-63" type="line" smooth="yes"/>
      <point x="326" y="-198"/>
      <point x="416" y="-239"/>
    </contour>
  </outline>
</glyph>
<glyph name="uni0289" format="2">
  <advance width="800"/>
  <unicode hex="0289"/>
  <anchor x="400" y="0" name="bottom"/>
  <anchor x="400" y="537" name="top"/>
  <anchor x="714" y="10" name="ogonek"/>
  <anchor x="771" y="537" name="topright"/>
  <outline>
    <contour>
      <point x="-12" y="251" type="line"/>
      <point x="810" y="251" type="line"/>
      <point x="810" y="327" type="line"/>
      <point x="-12" y="327" type="line"/>
    </contour>
    <component base="u" xOffset="-30"/>
  </outline>
</glyph>
<glyph name="ezhcurl" format="2">
  <advance width="800"/>
  <unicode hex="0293"/>
  <anchor x="393" y="-244" name="bottom"/>
  <anchor x="380" y="537" name="top"/>
  <outline>
    <contour>
      <point x="703" y="-244" type="curve"/>
      <point x="767" y="-186" type="line"/>
      <point x="734" y="-158"/>
      <point x="693" y="-130"/>
      <point x="660" y="-107" type="curve"/>
      <point x="681" y="-80"/>
      <point x="704" y="-40"/>
      <point x="704" y="4" type="curve" smooth="yes"/>
      <point x="704" y="159"/>
      <point x="572" y="228"/>
      <point x="310" y="231" type="curve"/>
      <point x="672" y="470" type="line"/>
      <point x="672" y="537" type="line"/>
      <point x="88" y="537" type="line"/>
      <point x="88" y="459" type="line"/>
      <point x="552" y="459" type="line"/>
      <point x="196" y="223" type="line"/>
      <point x="196" y="157" type="line"/>
      <point x="270" y="157" type="line" smooth="yes"/>
      <point x="512" y="157"/>
      <point x="607" y="113"/>
      <point x="607" y="1" type="curve" smooth="yes"/>
      <point x="607" y="-16"/>
      <point x="598" y="-32"/>
      <point x="590" y="-47" type="curve"/>
      <point x="502" y="2"/>
      <point x="402" y="28"/>
      <point x="261" y="28" type="curve" smooth="yes"/>
      <point x="107" y="28"/>
      <point x="27" y="-22"/>
      <point x="27" y="-96" type="curve" smooth="yes"/>
      <point x="27" y="-197"/>
      <point x="152" y="-240"/>
      <point x="292" y="-240" type="curve" smooth="yes"/>
      <point x="456" y="-240"/>
      <point x="551" y="-212"/>
      <point x="606" y="-169" type="curve"/>
      <point x="636" y="-190"/>
      <point x="673" y="-217"/>
    </contour>
    <contour>
      <point x="293" y="-163" type="curve" smooth="yes"/>
      <point x="182" y="-163"/>
      <point x="116" y="-137"/>
      <point x="116" y="-97" type="curve" smooth="yes"/>
      <point x="116" y="-72"/>
      <point x="156" y="-47"/>
      <point x="264" y="-47" type="curve" smooth="yes"/>
      <point x="376" y="-47"/>
      <point x="460" y="-67"/>
      <point x="544" y="-113" type="curve"/>
      <point x="496" y="-144"/>
      <point x="422" y="-163"/>
    </contour>
  </outline>
</glyph>
<glyph name="uni0294" format="2">
  <advance width="800"/>
  <unicode hex="0294"/>
  <anchor x="343" y="0" name="bottom"/>
  <anchor x="343" y="765" name="top"/>
  <outline>
    <contour>
      <point x="295" y="0" type="line"/>
      <point x="392" y="0" type="line"/>
      <point x="392" y="311" type="line"/>
      <point x="584" y="376"/>
      <point x="695" y="467"/>
      <point x="695" y="559" type="curve" smooth="yes"/>
      <point x="695" y="683"/>
      <point x="580" y="765"/>
      <point x="362" y="765" type="curve" smooth="yes"/>
      <point x="223" y="765"/>
      <point x="133" y="733"/>
      <point x="69" y="701" type="curve"/>
      <point x="109" y="626" type="line"/>
      <point x="160" y="653"/>
      <point x="241" y="685"/>
      <point x="359" y="685" type="curve" smooth="yes"/>
      <point x="516" y="685"/>
      <point x="595" y="635"/>
      <point x="595" y="554" type="curve" smooth="yes"/>
      <point x="595" y="463"/>
      <point x="480" y="397"/>
      <point x="295" y="359" type="curve"/>
    </contour>
  </outline>
</glyph>
<glyph name="uni029B" format="2">
  <advance width="800"/>
  <unicode hex="029B"/>
  <anchor x="448" y="0" name="bottom"/>
  <anchor x="436" y="760" name="top"/>
  <outline>
    <contour>
      <point x="425" y="-10" type="curve" smooth="yes"/>
      <point x="530" y="-10"/>
      <point x="612" y="4"/>
      <point x="695" y="28" type="curve"/>
      <point x="695" y="300" type="line"/>
      <point x="409" y="300" type="line"/>
      <point x="409" y="226" type="line"/>
      <point x="604" y="226" type="line"/>
      <point x="604" y="83" type="line"/>
      <point x="553" y="73"/>
      <point x="499" y="70"/>
      <point x="428" y="70" type="curve" smooth="yes"/>
      <point x="245" y="70"/>
      <point x="149" y="140"/>
      <point x="149" y="266" type="curve" smooth="yes"/>
      <point x="149" y="400"/>
      <point x="255" y="467"/>
      <point x="446" y="467" type="curve" smooth="yes"/>
      <point x="524" y="467"/>
      <point x="594" y="453"/>
      <point x="653" y="432" type="curve"/>
      <point x="687" y="510" type="line"/>
      <point x="687" y="637" type="line" smooth="yes"/>
      <point x="687" y="669"/>
      <point x="719" y="685"/>
      <point x="773" y="685" type="curve" smooth="yes"/>
      <point x="805" y="685"/>
      <point x="832" y="679"/>
      <point x="848" y="675" type="curve"/>
      <point x="848" y="752" type="line"/>
      <point x="830" y="758"/>
      <point x="803" y="765"/>
      <point x="767" y="765" type="curve" smooth="yes"/>
      <point x="657" y="765"/>
      <point x="604" y="717"/>
      <point x="604" y="628" type="curve" smooth="yes"/>
      <point x="604" y="539" type="line"/>
      <point x="559" y="544"/>
      <point x="507" y="547"/>
      <point x="444" y="547" type="curve" smooth="yes"/>
      <point x="209" y="547"/>
      <point x="54" y="461"/>
      <point x="54" y="266" type="curve" smooth="yes"/>
      <point x="54" y="77"/>
      <point x="199" y="-10"/>
    </contour>
  </outline>
</glyph>
<glyph name="uni029D" format="2">
  <advance width="800"/>
  <unicode hex="029D"/>
  <anchor x="456" y="-240" name="bottom"/>
  <anchor x="458" y="760" name="top"/>
  <outline>
    <contour>
      <point x="323" y="-240" type="curve" smooth="yes"/>
      <point x="440" y="-240"/>
      <point x="514" y="-200"/>
      <point x="517" y="-73" type="curve"/>
      <point x="625" y="-73" type="line"/>
      <point x="625" y="0" type="line"/>
      <point x="517" y="0" type="line"/>
      <point x="517" y="537" type="line"/>
      <point x="162" y="537" type="line"/>
      <point x="162" y="470" type="line"/>
      <point x="421" y="457" type="line"/>
      <point x="421" y="0" type="line"/>
      <point x="348" y="0" type="line" smooth="yes"/>
      <point x="213" y="0"/>
      <point x="147" y="-49"/>
      <point x="147" y="-122" type="curve" smooth="yes"/>
      <point x="147" y="-192"/>
      <point x="210" y="-240"/>
    </contour>
    <contour>
      <point x="320" y="-167" type="curve" smooth="yes"/>
      <point x="258" y="-167"/>
      <point x="233" y="-145"/>
      <point x="233" y="-120" type="curve" smooth="yes"/>
      <point x="233" y="-84"/>
      <point x="270" y="-73"/>
      <point x="353" y="-73" type="curve" smooth="yes"/>
      <point x="421" y="-73" type="line"/>
      <point x="421" y="-91" type="line" smooth="yes"/>
      <point x="421" y="-146"/>
      <point x="384" y="-167"/>
    </contour>
    <contour>
      <point x="459" y="630" type="curve" smooth="yes"/>
      <point x="505" y="630"/>
      <point x="533" y="652"/>
      <point x="533" y="696" type="curve" smooth="yes"/>
      <point x="533" y="740"/>
      <point x="505" y="761"/>
      <point x="459" y="761" type="curve" smooth="yes"/>
      <point x="411" y="761"/>
      <point x="385" y="740"/>
      <point x="385" y="696" type="curve" smooth="yes"/>
      <point x="385" y="652"/>
      <point x="412" y="630"/>
    </contour>
  </outline>
</glyph>
<glyph name="qhook" format="2">
  <advance width="800"/>
  <unicode hex="02A0"/>
  <anchor x="400" y="-240" name="bottom"/>
  <anchor x="400" y="765" name="top"/>
  <outline>
    <contour>
      <point x="608" y="-240" type="line"/>
      <point x="703" y="-240" type="line"/>
      <point x="703" y="595" type="line" smooth="yes"/>
      <point x="703" y="670"/>
      <point x="734" y="687"/>
      <point x="797" y="687" type="curve" smooth="yes"/>
      <point x="830" y="687"/>
      <point x="861" y="681"/>
      <point x="882" y="676" type="curve"/>
      <point x="882" y="750" type="line"/>
      <point x="861" y="758"/>
      <point x="825" y="765"/>
      <point x="778" y="765" type="curve" smooth="yes"/>
      <point x="687" y="765"/>
      <point x="608" y="728"/>
      <point x="608" y="598" type="curve" smooth="yes"/>
      <point x="608" y="549" type="line"/>
      <point x="608" y="528"/>
      <point x="611" y="486"/>
      <point x="614" y="468" type="curve"/>
      <point x="608" y="468" type="line"/>
      <point x="568" y="512"/>
      <point x="493" y="547"/>
      <point x="369" y="547" type="curve" smooth="yes"/>
      <point x="179" y="547"/>
      <point x="57" y="452"/>
      <point x="57" y="268" type="curve" smooth="yes"/>
      <point x="57" y="83"/>
      <point x="173" y="-10"/>
      <point x="362" y="-10" type="curve" smooth="yes"/>
      <point x="490" y="-10"/>
      <point x="568" y="25"/>
      <point x="608" y="69" type="curve"/>
      <point x="614" y="69" type="line"/>
      <point x="612" y="51"/>
      <point x="608" y="10"/>
      <point x="608" y="-10" type="curve" smooth="yes"/>
    </contour>
    <contour>
      <point x="378" y="68" type="curve" smooth="yes"/>
      <point x="232" y="68"/>
      <point x="155" y="140"/>
      <point x="155" y="266" type="curve" smooth="yes"/>
      <point x="155" y="391"/>
      <point x="237" y="469"/>
      <point x="383" y="469" type="curve" smooth="yes"/>
      <point x="540" y="469"/>
      <point x="609" y="397"/>
      <point x="609" y="267" type="curve" smooth="yes"/>
      <point x="609" y="251" type="line" smooth="yes"/>
      <point x="609" y="129"/>
      <point x="538" y="68"/>
    </contour>
  </outline>
</glyph>
<glyph name="dzlig" format="2">
  <advance width="800"/>
  <unicode hex="02A3"/>
  <anchor x="400" y="0" name="bottom"/>
  <anchor x="400" y="760" name="top"/>
  <outline>
    <contour>
      <point x="208" y="-10" type="curve" smooth="yes"/>
      <point x="297" y="-10"/>
      <point x="341" y="16"/>
      <point x="366" y="59" type="curve"/>
      <point x="369" y="59" type="line"/>
      <point x="381" y="0" type="line"/>
      <point x="804" y="0" type="line"/>
      <point x="804" y="70" type="line"/>
      <point x="537" y="70" type="line"/>
      <point x="800" y="471" type="line"/>
      <point x="800" y="537" type="line"/>
      <point x="450" y="537" type="line"/>
      <point x="450" y="760" type="line"/>
      <point x="365" y="760" type="line"/>
      <point x="365" y="549" type="line" smooth="yes"/>
      <point x="365" y="529"/>
      <point x="367" y="502"/>
      <point x="369" y="482" type="curve"/>
      <point x="366" y="482" type="line"/>
      <point x="340" y="524"/>
      <point x="292" y="547"/>
      <point x="216" y="547" type="curve" smooth="yes"/>
      <point x="83" y="547"/>
      <point x="8" y="465"/>
      <point x="8" y="268" type="curve" smooth="yes"/>
      <point x="8" y="67"/>
      <point x="80" y="-10"/>
    </contour>
    <contour>
      <point x="230" y="63" type="curve" smooth="yes"/>
      <point x="142" y="63"/>
      <point x="94" y="113"/>
      <point x="94" y="266" type="curve" smooth="yes"/>
      <point x="94" y="409"/>
      <point x="139" y="474"/>
      <point x="235" y="474" type="curve" smooth="yes"/>
      <point x="331" y="474"/>
      <point x="368" y="409"/>
      <point x="368" y="268" type="curve" smooth="yes"/>
      <point x="368" y="251" type="line" smooth="yes"/>
      <point x="368" y="117"/>
      <point x="333" y="63"/>
    </contour>
    <contour>
      <point x="450" y="67" type="line"/>
      <point x="450" y="467" type="line"/>
      <point x="707" y="467" type="line"/>
    </contour>
  </outline>
</glyph>
<glyph name="uni02A4" format="2">
  <advance width="800"/>
  <unicode hex="02A4"/>
  <anchor x="400" y="-240" name="bottom"/>
  <anchor x="400" y="760" name="top"/>
  <outline>
    <contour>
      <point x="543" y="-240" type="curve" smooth="yes"/>
      <point x="712" y="-240"/>
      <point x="789" y="-139"/>
      <point x="789" y="5" type="curve" smooth="yes"/>
      <point x="789" y="151"/>
      <point x="715" y="216"/>
      <point x="581" y="227" type="curve"/>
      <point x="769" y="482" type="line"/>
      <point x="769" y="538" type="line"/>
      <point x="441" y="538" type="line"/>
      <point x="441" y="760" type="line"/>
      <point x="360" y="760" type="line"/>
      <point x="360" y="555" type="line" smooth="yes"/>
      <point x="360" y="534"/>
      <point x="361" y="514"/>
      <point x="363" y="493" type="curve"/>
      <point x="359" y="493" type="line"/>
      <point x="340" y="529"/>
      <point x="297" y="548"/>
      <point x="224" y="548" type="curve" smooth="yes"/>
      <point x="88" y="548"/>
      <point x="16" y="469"/>
      <point x="16" y="268" type="curve" smooth="yes"/>
      <point x="16" y="65"/>
      <point x="82" y="-10"/>
      <point x="212" y="-10" type="curve" smooth="yes"/>
      <point x="301" y="-10"/>
      <point x="342" y="14"/>
      <point x="360" y="53" type="curve"/>
      <point x="365" y="53" type="line"/>
      <point x="375" y="0" type="line"/>
      <point x="441" y="0" type="line"/>
      <point x="441" y="469" type="line"/>
      <point x="677" y="469" type="line"/>
      <point x="494" y="223" type="line"/>
      <point x="494" y="162" type="line"/>
      <point x="537" y="162" type="line" smooth="yes"/>
      <point x="651" y="162"/>
      <point x="705" y="111"/>
      <point x="705" y="7" type="curve" smooth="yes"/>
      <point x="705" y="-103"/>
      <point x="648" y="-168"/>
      <point x="537" y="-168" type="curve" smooth="yes"/>
      <point x="489" y="-168"/>
      <point x="451" y="-156"/>
      <point x="420" y="-142" type="curve"/>
      <point x="420" y="-221" type="line"/>
      <point x="448" y="-233"/>
      <point x="485" y="-240"/>
    </contour>
    <contour>
      <point x="231" y="58" type="curve" smooth="yes"/>
      <point x="142" y="58"/>
      <point x="99" y="112"/>
      <point x="99" y="268" type="curve" smooth="yes"/>
      <point x="99" y="421"/>
      <point x="145" y="477"/>
      <point x="233" y="477" type="curve" smooth="yes"/>
      <point x="323" y="477"/>
      <point x="361" y="431"/>
      <point x="361" y="274" type="curve" smooth="yes"/>
      <point x="361" y="245" type="line" smooth="yes"/>
      <point x="361" y="102"/>
      <point x="323" y="58"/>
    </contour>
  </outline>
</glyph>
<glyph name="dzligcurl" format="2">
  <advance width="800"/>
  <unicode hex="02A5"/>
  <anchor x="392" y="0" name="bottom"/>
  <anchor x="392" y="760" name="top"/>
  <outline>
    <contour>
      <point x="652" y="-87" type="line"/>
      <point x="667" y="-55"/>
      <point x="683" y="-25"/>
      <point x="699" y="0" type="curve"/>
      <point x="873" y="0" type="line" smooth="yes"/>
      <point x="1039" y="0"/>
      <point x="1111" y="48"/>
      <point x="1111" y="126" type="curve" smooth="yes"/>
      <point x="1111" y="184"/>
      <point x="1058" y="232"/>
      <point x="941" y="232" type="curve" smooth="yes"/>
      <point x="804" y="232"/>
      <point x="722" y="180"/>
      <point x="649" y="74" type="curve"/>
      <point x="492" y="74" type="line"/>
      <point x="983" y="468" type="line"/>
      <point x="983" y="537" type="line"/>
      <point x="385" y="537" type="line"/>
      <point x="385" y="760" type="line"/>
      <point x="289" y="760" type="line"/>
      <point x="289" y="552" type="line" smooth="yes"/>
      <point x="289" y="529"/>
      <point x="292" y="486"/>
      <point x="295" y="468" type="curve"/>
      <point x="289" y="468" type="line"/>
      <point x="249" y="512"/>
      <point x="179" y="547"/>
      <point x="25" y="547" type="curve" smooth="yes"/>
      <point x="-192" y="547"/>
      <point x="-311" y="452"/>
      <point x="-311" y="268" type="curve" smooth="yes"/>
      <point x="-311" y="83"/>
      <point x="-198" y="-10"/>
      <point x="21" y="-10" type="curve" smooth="yes"/>
      <point x="178" y="-10"/>
      <point x="249" y="26"/>
      <point x="289" y="72" type="curve"/>
      <point x="293" y="72" type="line"/>
      <point x="308" y="0" type="line"/>
      <point x="615" y="0" type="line"/>
      <point x="602" y="-18"/>
      <point x="590" y="-38"/>
      <point x="579" y="-59" type="curve"/>
    </contour>
    <contour>
      <point x="38" y="68" type="curve" smooth="yes"/>
      <point x="-140" y="68"/>
      <point x="-213" y="140"/>
      <point x="-213" y="266" type="curve" smooth="yes"/>
      <point x="-213" y="391"/>
      <point x="-135" y="469"/>
      <point x="40" y="469" type="curve" smooth="yes"/>
      <point x="229" y="469"/>
      <point x="290" y="397"/>
      <point x="290" y="267" type="curve" smooth="yes"/>
      <point x="290" y="251" type="line" smooth="yes"/>
      <point x="290" y="129"/>
      <point x="228" y="68"/>
    </contour>
    <contour>
      <point x="735" y="74" type="line"/>
      <point x="787" y="134"/>
      <point x="846" y="162"/>
      <point x="934" y="162" type="curve" smooth="yes"/>
      <point x="998" y="162"/>
      <point x="1024" y="145"/>
      <point x="1024" y="119" type="curve" smooth="yes"/>
      <point x="1024" y="95"/>
      <point x="991" y="74"/>
      <point x="880" y="74" type="curve" smooth="yes"/>
    </contour>
    <contour>
      <point x="385" y="65" type="line"/>
      <point x="385" y="464" type="line"/>
      <point x="873" y="464" type="line"/>
    </contour>
  </outline>
</glyph>
<glyph name="tslig" format="2">
  <advance width="800"/>
  <unicode hex="02A6"/>
  <anchor x="400" y="0" name="bottom"/>
  <anchor x="400" y="660" name="top"/>
  <outline>
    <contour>
      <point x="294" y="0" type="curve" smooth="yes"/>
      <point x="516" y="0" type="line" smooth="yes"/>
      <point x="695" y="0"/>
      <point x="774" y="62"/>
      <point x="774" y="151" type="curve" smooth="yes"/>
      <point x="774" y="242"/>
      <point x="692" y="272"/>
      <point x="580" y="310" type="curve" smooth="yes"/>
      <point x="465" y="349"/>
      <point x="419" y="364"/>
      <point x="419" y="405" type="curve" smooth="yes"/>
      <point x="419" y="449"/>
      <point x="470" y="473"/>
      <point x="559" y="473" type="curve" smooth="yes"/>
      <point x="620" y="473"/>
      <point x="681" y="458"/>
      <point x="731" y="439" type="curve"/>
      <point x="760" y="512" type="line"/>
      <point x="703" y="534"/>
      <point x="638" y="548"/>
      <point x="563" y="548" type="curve" smooth="yes"/>
      <point x="525" y="548"/>
      <point x="493" y="544"/>
      <point x="465" y="538" type="curve"/>
      <point x="166" y="538" type="line"/>
      <point x="166" y="660" type="line"/>
      <point x="109" y="660" type="line"/>
      <point x="79" y="546" type="line"/>
      <point x="-13" y="510" type="line"/>
      <point x="-13" y="466" type="line"/>
      <point x="77" y="466" type="line"/>
      <point x="77" y="167" type="line" smooth="yes"/>
      <point x="77" y="37"/>
      <point x="154" y="0"/>
    </contour>
    <contour>
      <point x="312" y="75" type="line"/>
      <point x="209" y="75"/>
      <point x="166" y="105"/>
      <point x="166" y="169" type="curve" smooth="yes"/>
      <point x="166" y="466" type="line"/>
      <point x="365" y="466" type="line"/>
      <point x="344" y="448"/>
      <point x="331" y="428"/>
      <point x="331" y="402" type="curve" smooth="yes"/>
      <point x="331" y="311"/>
      <point x="410" y="286"/>
      <point x="522" y="246" type="curve" smooth="yes"/>
      <point x="627" y="208"/>
      <point x="685" y="192"/>
      <point x="685" y="144" type="curve" smooth="yes"/>
      <point x="685" y="98"/>
      <point x="633" y="75"/>
      <point x="517" y="75" type="curve" smooth="yes"/>
    </contour>
  </outline>
</glyph>
<glyph name="tcligcurl" format="2">
  <advance width="800"/>
  <unicode hex="02A8"/>
  <anchor x="439" y="0" name="bottom"/>
  <anchor x="439" y="679" name="top"/>
  <outline>
    <contour>
      <point x="201" y="-10" type="curve" smooth="yes"/>
      <point x="545" y="-10"/>
      <point x="651" y="204"/>
      <point x="875" y="204" type="curve" smooth="yes"/>
      <point x="957" y="204"/>
      <point x="1003" y="180"/>
      <point x="1003" y="141" type="curve" smooth="yes"/>
      <point x="1003" y="101"/>
      <point x="955" y="68"/>
      <point x="847" y="68" type="curve" smooth="yes"/>
      <point x="668" y="68"/>
      <point x="569" y="149"/>
      <point x="569" y="275" type="curve" smooth="yes"/>
      <point x="569" y="393"/>
      <point x="665" y="464"/>
      <point x="848" y="464" type="curve" smooth="yes"/>
      <point x="907" y="464"/>
      <point x="966" y="455"/>
      <point x="1026" y="432" type="curve"/>
      <point x="1054" y="510" type="line"/>
      <point x="992" y="534"/>
      <point x="920" y="547"/>
      <point x="844" y="547" type="curve" smooth="yes"/>
      <point x="618" y="547"/>
      <point x="471" y="457"/>
      <point x="471" y="271" type="curve" smooth="yes"/>
      <point x="471" y="99"/>
      <point x="610" y="-10"/>
      <point x="841" y="-10" type="curve" smooth="yes"/>
      <point x="1003" y="-10"/>
      <point x="1093" y="45"/>
      <point x="1093" y="142" type="curve" smooth="yes"/>
      <point x="1093" y="228"/>
      <point x="1018" y="285"/>
      <point x="878" y="285" type="curve" smooth="yes"/>
      <point x="601" y="285"/>
      <point x="491" y="68"/>
      <point x="210" y="68" type="curve" smooth="yes"/>
      <point x="76" y="68"/>
      <point x="17" y="108"/>
      <point x="17" y="201" type="curve" smooth="yes"/>
      <point x="17" y="457" type="line"/>
      <point x="305" y="457" type="line"/>
      <point x="305" y="537" type="line"/>
      <point x="17" y="537" type="line"/>
      <point x="17" y="679" type="line"/>
      <point x="-62" y="679" type="line"/>
      <point x="-80" y="540" type="line"/>
      <point x="-293" y="521" type="line"/>
      <point x="-293" y="457" type="line"/>
      <point x="-81" y="457" type="line"/>
      <point x="-81" y="189" type="line" smooth="yes"/>
      <point x="-81" y="36"/>
      <point x="26" y="-10"/>
    </contour>
  </outline>
</glyph>
<glyph name="uni02AA" format="2">
  <advance width="800"/>
  <unicode hex="02AA"/>
  <anchor x="400" y="0" name="bottom"/>
  <anchor x="400" y="760" name="top"/>
  <outline>
    <contour>
      <point x="464" y="-10" type="curve" smooth="yes"/>
      <point x="660" y="-10"/>
      <point x="763" y="47"/>
      <point x="763" y="151" type="curve" smooth="yes"/>
      <point x="763" y="242"/>
      <point x="667" y="272"/>
      <point x="545" y="309" type="curve" smooth="yes"/>
      <point x="425" y="345"/>
      <point x="363" y="361"/>
      <point x="363" y="405" type="curve" smooth="yes"/>
      <point x="363" y="447"/>
      <point x="424" y="471"/>
      <point x="525" y="471" type="curve" smooth="yes"/>
      <point x="595" y="471"/>
      <point x="663" y="456"/>
      <point x="716" y="437" type="curve"/>
      <point x="748" y="511" type="line"/>
      <point x="687" y="533"/>
      <point x="613" y="547"/>
      <point x="529" y="547" type="curve" smooth="yes"/>
      <point x="373" y="547"/>
      <point x="272" y="497"/>
      <point x="272" y="400" type="curve" smooth="yes"/>
      <point x="272" y="310"/>
      <point x="366" y="280"/>
      <point x="488" y="242" type="curve" smooth="yes"/>
      <point x="604" y="206"/>
      <point x="673" y="188"/>
      <point x="673" y="143" type="curve" smooth="yes"/>
      <point x="673" y="95"/>
      <point x="610" y="66"/>
      <point x="469" y="66" type="curve" smooth="yes"/>
      <point x="353" y="66"/>
      <point x="256" y="82"/>
      <point x="173" y="118" type="curve"/>
      <point x="173" y="760" type="line"/>
      <point x="82" y="760" type="line"/>
      <point x="82" y="0" type="line"/>
      <point x="173" y="0" type="line"/>
      <point x="173" y="32" type="line"/>
      <point x="241" y="4"/>
      <point x="337" y="-10"/>
    </contour>
  </outline>
</glyph>
<glyph name="uni02AB" format="2">
  <advance width="800"/>
  <unicode hex="02AB"/>
  <anchor x="400" y="0" name="bottom"/>
  <anchor x="400" y="760" name="top"/>
  <outline>
    <contour>
      <point x="108" y="0" type="line"/>
      <point x="735" y="0" type="line"/>
      <point x="735" y="74" type="line"/>
      <point x="309" y="74" type="line"/>
      <point x="731" y="468" type="line"/>
      <point x="731" y="537" type="line"/>
      <point x="202" y="537" type="line"/>
      <point x="202" y="760" type="line"/>
      <point x="108" y="760" type="line"/>
    </contour>
    <contour>
      <point x="202" y="65" type="line"/>
      <point x="202" y="464" type="line"/>
      <point x="621" y="464" type="line"/>
    </contour>
  </outline>
</glyph>
<glyph name="uni02AC" format="2">
  <advance width="800"/>
  <unicode hex="02AC"/>
  <anchor x="400" y="0" name="bottom"/>
  <anchor x="400" y="714" name="top"/>
  <outline>
    <contour>
      <point x="190" y="378" type="line"/>
      <point x="273" y="378" type="line"/>
      <point x="402" y="627" type="line"/>
      <point x="526" y="378" type="line"/>
      <point x="611" y="378" type="line"/>
      <point x="753" y="714" type="line"/>
      <point x="677" y="714" type="line"/>
      <point x="566" y="464" type="line"/>
      <point x="442" y="714" type="line"/>
      <point x="365" y="714" type="line"/>
      <point x="233" y="465" type="line"/>
      <point x="124" y="714" type="line"/>
      <point x="46" y="714" type="line"/>
    </contour>
    <contour>
      <point x="190" y="0" type="line"/>
      <point x="273" y="0" type="line"/>
      <point x="402" y="249" type="line"/>
      <point x="526" y="0" type="line"/>
      <point x="611" y="0" type="line"/>
      <point x="753" y="336" type="line"/>
      <point x="677" y="336" type="line"/>
      <point x="566" y="86" type="line"/>
      <point x="442" y="336" type="line"/>
      <point x="365" y="336" type="line"/>
      <point x="233" y="87" type="line"/>
      <point x="124" y="336" type="line"/>
      <point x="46" y="336" type="line"/>
    </contour>
  </outline>
</glyph>
<glyph name="uni02AE" format="2">
  <advance width="800"/>
  <unicode hex="02AE"/>
  <anchor x="392" y="-240" name="bottom"/>
  <anchor x="392" y="537" name="top"/>
  <outline>
    <contour>
      <point x="613" y="-223" type="line"/>
      <point x="709" y="-223" type="line"/>
      <point x="709" y="537" type="line"/>
      <point x="613" y="537" type="line"/>
      <point x="613" y="262" type="line" smooth="yes"/>
      <point x="613" y="137"/>
      <point x="522" y="68"/>
      <point x="382" y="68" type="curve" smooth="yes"/>
      <point x="262" y="68"/>
      <point x="193" y="112"/>
      <point x="193" y="207" type="curve" smooth="yes"/>
      <point x="193" y="408" type="line" smooth="yes"/>
      <point x="193" y="509"/>
      <point x="120" y="547"/>
      <point x="23" y="547" type="curve" smooth="yes"/>
      <point x="-17" y="547"/>
      <point x="-43" y="542"/>
      <point x="-62" y="536" type="curve"/>
      <point x="-62" y="459" type="line"/>
      <point x="-46" y="463"/>
      <point x="-26" y="467"/>
      <point x="1" y="467" type="curve" smooth="yes"/>
      <point x="61" y="467"/>
      <point x="96" y="451"/>
      <point x="96" y="404" type="curve" smooth="yes"/>
      <point x="96" y="186" type="line" smooth="yes"/>
      <point x="96" y="50"/>
      <point x="199" y="-11"/>
      <point x="359" y="-11" type="curve" smooth="yes"/>
      <point x="487" y="-11"/>
      <point x="571" y="19"/>
      <point x="612" y="84" type="curve"/>
      <point x="617" y="84" type="line"/>
      <point x="616" y="59"/>
      <point x="613" y="12"/>
      <point x="613" y="-15" type="curve" smooth="yes"/>
    </contour>
  </outline>
</glyph>
<glyph name="uni02BE" format="2">
  <advance width="800"/>
  <unicode hex="02BE"/>
  <outline>
    <contour>
      <point x="315" y="575" type="line"/>
      <point x="416" y="575"/>
      <point x="485" y="615"/>
      <point x="485" y="681" type="curve" smooth="yes"/>
      <point x="485" y="749"/>
      <point x="416" y="788"/>
      <point x="315" y="788" type="curve"/>
      <point x="315" y="733" type="line"/>
      <point x="382" y="733"/>
      <point x="420" y="714"/>
      <point x="420" y="681" type="curve" smooth="yes"/>
      <point x="420" y="648"/>
      <point x="375" y="630"/>
      <point x="315" y="630" type="curve"/>
    </contour>
  </outline>
</glyph>
<glyph name="uni02C0" format="2">
  <advance width="800"/>
  <unicode hex="02C0"/>
  <outline>
    <contour>
      <point x="331" y="463" type="line"/>
      <point x="404" y="463" type="line"/>
      <point x="404" y="515" type="line"/>
      <point x="532" y="541"/>
      <point x="590" y="588"/>
      <point x="590" y="646" type="curve" smooth="yes"/>
      <point x="590" y="714"/>
      <point x="522" y="766"/>
      <point x="388" y="766" type="curve" smooth="yes"/>
      <point x="316" y="766"/>
      <point x="254" y="752"/>
      <point x="211" y="733" type="curve"/>
      <point x="237" y="678" type="line"/>
      <point x="276" y="696"/>
      <point x="330" y="708"/>
      <point x="384" y="708" type="curve" smooth="yes"/>
      <point x="472" y="708"/>
      <point x="511" y="680"/>
      <point x="511" y="645" type="curve" smooth="yes"/>
      <point x="511" y="601"/>
      <point x="448" y="567"/>
      <point x="331" y="549" type="curve"/>
    </contour>
  </outline>
</glyph>
<glyph name="caron" format="2">
  <advance width="800"/>
  <unicode hex="02C7"/>
  <anchor x="399" y="528" name="_top"/>
  <anchor x="399" y="763" name="top"/>
  <outline>
    <contour>
      <point x="352" y="606" type="curve"/>
      <point x="446" y="606" type="line"/>
      <point x="480" y="651"/>
      <point x="565" y="715"/>
      <point x="618" y="753" type="curve"/>
      <point x="618" y="766" type="line"/>
      <point x="550" y="766" type="line"/>
      <point x="500" y="743"/>
      <point x="444" y="711"/>
      <point x="398" y="676" type="curve"/>
      <point x="354" y="711"/>
      <point x="299" y="743"/>
      <point x="248" y="766" type="curve"/>
      <point x="182" y="766" type="line"/>
      <point x="182" y="753" type="line"/>
      <point x="234" y="715"/>
      <point x="316" y="651"/>
    </contour>
  </outline>
</glyph>
<glyph name="uni02D1" format="2">
  <advance width="800"/>
  <unicode hex="02D1"/>
  <outline>
    <contour>
      <point x="401" y="397" type="line"/>
      <point x="528" y="536" type="line"/>
      <point x="273" y="536" type="line"/>
    </contour>
  </outline>
</glyph>
<glyph name="breve" format="2">
  <advance width="800"/>
  <unicode hex="02D8"/>
  <anchor x="399" y="537" name="_top"/>
  <anchor x="398" y="765" name="top"/>
  <outline>
    <contour>
      <point x="397" y="606" type="curve" smooth="yes"/>
      <point x="522" y="606"/>
      <point x="597" y="663"/>
      <point x="604" y="744" type="curve"/>
      <point x="537" y="744" type="line"/>
      <point x="524" y="685"/>
      <point x="469" y="673"/>
      <point x="399" y="673" type="curve" smooth="yes"/>
      <point x="333" y="673"/>
      <point x="275" y="684"/>
      <point x="261" y="744" type="curve"/>
      <point x="195" y="744" type="line"/>
      <point x="201" y="663"/>
      <point x="276" y="606"/>
    </contour>
  </outline>
</glyph>
<glyph name="tilde" format="2">
  <advance width="800"/>
  <unicode hex="02DC"/>
  <outline>
    <contour>
      <point x="151" y="606" type="curve"/>
      <point x="212" y="606" type="line"/>
      <point x="222" y="645"/>
      <point x="251" y="663"/>
      <point x="293" y="663" type="curve" smooth="yes"/>
      <point x="365" y="663"/>
      <point x="416" y="607"/>
      <point x="503" y="607" type="curve" smooth="yes"/>
      <point x="586" y="607"/>
      <point x="640" y="657"/>
      <point x="649" y="738" type="curve"/>
      <point x="589" y="738" type="line"/>
      <point x="578" y="700"/>
      <point x="548" y="681"/>
      <point x="505" y="681" type="curve" smooth="yes"/>
      <point x="438" y="681"/>
      <point x="383" y="737"/>
      <point x="296" y="737" type="curve" smooth="yes"/>
      <point x="212" y="737"/>
      <point x="160" y="686"/>
    </contour>
  </outline>
</glyph>
<glyph name="hungarumlaut" format="2">
  <advance width="800"/>
  <unicode hex="02DD"/>
  <outline>
    <contour>
      <point x="440" y="606" type="line"/>
      <point x="498" y="606" type="line"/>
      <point x="561" y="642"/>
      <point x="646" y="721"/>
      <point x="682" y="756" type="curve"/>
      <point x="682" y="766" type="line"/>
      <point x="579" y="766" type="line"/>
      <point x="548" y="722"/>
      <point x="486" y="658"/>
      <point x="440" y="618" type="curve"/>
    </contour>
    <contour>
      <point x="208" y="606" type="line"/>
      <point x="266" y="606" type="line"/>
      <point x="329" y="642"/>
      <point x="414" y="721"/>
      <point x="449" y="756" type="curve"/>
      <point x="449" y="766" type="line"/>
      <point x="347" y="766" type="line"/>
      <point x="315" y="722"/>
      <point x="254" y="658"/>
      <point x="208" y="618" type="curve"/>
    </contour>
  </outline>
</glyph>
<glyph name="uni02EF" format="2">
  <advance width="800"/>
  <unicode hex="02EF"/>
  <outline>
    <contour>
      <point x="374" y="-240" type="line"/>
      <point x="426" y="-240" type="line"/>
      <point x="620" y="-18" type="line"/>
      <point x="538" y="-18" type="line"/>
      <point x="400" y="-152" type="line"/>
      <point x="263" y="-18" type="line"/>
      <point x="180" y="-18" type="line"/>
    </contour>
  </outline>
</glyph>
<glyph name="uni02F2" format="2">
  <advance width="800"/>
  <unicode hex="02F2"/>
  <outline>
    <contour>
      <point x="234" y="-240" type="line"/>
      <point x="566" y="-133" type="line"/>
      <point x="566" y="-84" type="line"/>
      <point x="235" y="23" type="line"/>
      <point x="235" y="-46" type="line"/>
      <point x="469" y="-109" type="line"/>
      <point x="235" y="-171" type="line"/>
    </contour>
  </outline>
</glyph>
<glyph name="uni02FD" format="2">
  <advance width="800"/>
  <unicode hex="02FD"/>
  <outline>
    <contour>
      <point x="128" y="-208" type="line"/>
      <point x="673" y="-208" type="line"/>
      <point x="673" y="-43" type="line"/>
      <point x="603" y="-43" type="line"/>
      <point x="603" y="-142" type="line"/>
      <point x="199" y="-142" type="line"/>
      <point x="199" y="-43" type="line"/>
      <point x="128" y="-43" type="line"/>
    </contour>
  </outline>
</glyph>
<glyph name="candraBinducomb" format="2">
  <unicode hex="0310"/>
  <anchor x="0" y="537" name="_top"/>
  <anchor x="0" y="845" name="top"/>
  <outline>
    <contour>
      <point x="-3" y="606" type="curve" smooth="yes"/>
      <point x="123" y="606"/>
      <point x="195" y="662"/>
      <point x="206" y="744" type="curve"/>
      <point x="143" y="744" type="line"/>
      <point x="134" y="692"/>
      <point x="83" y="678"/>
      <point x="-1" y="678" type="curve" smooth="yes"/>
      <point x="-88" y="678"/>
      <point x="-136" y="689"/>
      <point x="-144" y="744" type="curve"/>
      <point x="-206" y="744" type="line"/>
      <point x="-198" y="660"/>
      <point x="-130" y="606"/>
    </contour>
    <contour>
      <point x="-1" y="732" type="curve" smooth="yes"/>
      <point x="38" y="732"/>
      <point x="60" y="750"/>
      <point x="60" y="789" type="curve" smooth="yes"/>
      <point x="60" y="828"/>
      <point x="38" y="845"/>
      <point x="-1" y="845" type="curve" smooth="yes"/>
      <point x="-38" y="845"/>
      <point x="-61" y="828"/>
      <point x="-61" y="789" type="curve" smooth="yes"/>
      <point x="-61" y="750"/>
      <point x="-38" y="732"/>
    </contour>
  </outline>
</glyph>
<glyph name="lefttackbelowcomb" format="2">
  <unicode hex="0318"/>
  <anchor x="0" y="0" name="_bottom"/>
  <anchor x="0" y="-218" name="bottom"/>
  <outline>
    <contour>
      <point x="39" y="-218" type="line"/>
      <point x="114" y="-218" type="line"/>
      <point x="114" y="-28" type="line"/>
      <point x="39" y="-28" type="line"/>
      <point x="39" y="-93" type="line"/>
      <point x="-113" y="-93" type="line"/>
      <point x="-113" y="-153" type="line"/>
      <point x="39" y="-153" type="line"/>
    </contour>
  </outline>
</glyph>
<glyph name="ringhalfleftbelowcomb" format="2">
  <unicode hex="031C"/>
  <anchor x="0" y="0" name="_bottom"/>
  <anchor x="0" y="-227" name="bottom"/>
  <outline>
    <contour>
      <point x="78" y="-227" type="curve"/>
      <point x="78" y="-174" type="line"/>
      <point x="14" y="-174"/>
      <point x="-21" y="-154"/>
      <point x="-21" y="-120" type="curve" smooth="yes"/>
      <point x="-21" y="-86"/>
      <point x="22" y="-66"/>
      <point x="78" y="-66" type="curve"/>
      <point x="78" y="-14" type="line"/>
      <point x="-16" y="-14"/>
      <point x="-80" y="-54"/>
      <point x="-80" y="-120" type="curve" smooth="yes"/>
      <point x="-80" y="-187"/>
      <point x="-16" y="-227"/>
    </contour>
  </outline>
</glyph>
<glyph name="plusbelowcomb" format="2">
  <unicode hex="031F"/>
  <anchor x="0" y="0" name="_bottom"/>
  <anchor x="0" y="-228" name="bottom"/>
  <outline>
    <contour>
      <point x="-38" y="-228" type="line"/>
      <point x="37" y="-228" type="line"/>
      <point x="37" y="-158" type="line"/>
      <point x="140" y="-158" type="line"/>
      <point x="140" y="-98" type="line"/>
      <point x="37" y="-98" type="line"/>
      <point x="37" y="-28" type="line"/>
      <point x="-38" y="-28" type="line"/>
      <point x="-38" y="-98" type="line"/>
      <point x="-141" y="-98" type="line"/>
      <point x="-141" y="-158" type="line"/>
      <point x="-38" y="-158" type="line"/>
    </contour>
  </outline>
</glyph>
<glyph name="hookpalatalizedbelowcomb" format="2">
  <unicode hex="0321"/>
  <outline>
    <contour>
      <point x="-40" y="-238" type="curve" smooth="yes"/>
      <point x="67" y="-238"/>
      <point x="115" y="-191"/>
      <point x="115" y="-101" type="curve" smooth="yes"/>
      <point x="115" y="43" type="line"/>
      <point x="25" y="43" type="line"/>
      <point x="25" y="-105" type="line" smooth="yes"/>
      <point x="25" y="-142"/>
      <point x="0" y="-158"/>
      <point x="-42" y="-158" type="curve" smooth="yes"/>
      <point x="-74" y="-158"/>
      <point x="-101" y="-153"/>
      <point x="-115" y="-149" type="curve"/>
      <point x="-115" y="-226" type="line"/>
      <point x="-101" y="-232"/>
      <point x="-72" y="-238"/>
    </contour>
  </outline>
</glyph>
<glyph name="hookretroflexbelowcomb" format="2">
  <unicode hex="0322"/>
  <outline>
    <contour>
      <point x="39" y="-238" type="curve" smooth="yes"/>
      <point x="71" y="-238"/>
      <point x="100" y="-232"/>
      <point x="114" y="-226" type="curve"/>
      <point x="114" y="-149" type="line"/>
      <point x="100" y="-153"/>
      <point x="74" y="-158"/>
      <point x="41" y="-158" type="curve" smooth="yes"/>
      <point x="-1" y="-158"/>
      <point x="-26" y="-142"/>
      <point x="-26" y="-105" type="curve" smooth="yes"/>
      <point x="-26" y="43" type="line"/>
      <point x="-115" y="43" type="line"/>
      <point x="-115" y="-102" type="line" smooth="yes"/>
      <point x="-115" y="-191"/>
      <point x="-68" y="-238"/>
    </contour>
  </outline>
</glyph>
<glyph name="commaaccent" format="2">
  <unicode hex="0326"/>
  <anchor x="0" y="0" name="_bottom"/>
  <anchor x="0" y="-221" name="bottom"/>
  <outline>
    <contour>
      <point x="-106" y="-221" type="line"/>
      <point x="-52" y="-221" type="line"/>
      <point x="-5" y="-177"/>
      <point x="35" y="-105"/>
      <point x="50" y="-68" type="curve"/>
      <point x="50" y="-61" type="line"/>
      <point x="-45" y="-61" type="line"/>
      <point x="-52" y="-104"/>
      <point x="-84" y="-175"/>
      <point x="-106" y="-209" type="curve"/>
    </contour>
  </outline>
</glyph>
<glyph name="gbridgeabovecomb" format="2">
  <unicode hex="0346"/>
  <anchor x="0" y="537" name="_top"/>
  <anchor x="0" y="762" name="top"/>
  <outline>
    <contour>
      <point x="-271" y="592" type="line"/>
      <point x="-196" y="592" type="line"/>
      <point x="-196" y="702" type="line"/>
      <point x="196" y="702" type="line"/>
      <point x="196" y="592" type="line"/>
      <point x="271" y="592" type="line"/>
      <point x="271" y="762" type="line"/>
      <point x="-271" y="762" type="line"/>
    </contour>
  </outline>
</glyph>
